<svg width="116" height="90" viewBox="0 0 116 90" fill="none" xmlns="http://www.w3.org/2000/svg">
<g clip-path="url(#clip0)">
<path d="M98.9655 67.5046C98.5575 65.0316 98.7514 62.5218 98.3128 60.0234C97.8769 57.5532 97.5504 55.1221 96.8732 52.7035C95.5802 48.0663 93.872 43.2848 91.3812 39.1466C86.3907 30.8498 80.1224 24.3373 71.9645 19.1784C56.6005 9.45709 35.5511 9.59669 19.4058 16.9201C14.8334 18.9944 10.6341 21.5791 6.50045 24.4058C5.12024 25.3483 3.38955 26.7434 1.89533 25.0496C0.567292 23.5457 1.62506 21.8891 2.90526 20.786C9.72768 14.896 19.2558 10.8523 27.8396 8.54647C45.8097 3.71523 64.0995 7.65351 79.3328 18.0617C88.43 24.2724 95.834 34.4508 99.6564 44.7909C101.456 49.6488 102.366 54.3941 103.366 59.4286C103.903 62.1375 104.194 64.792 104.154 67.578C104.138 68.5022 103.473 72.1859 104.125 72.8114C104.435 73.1078 109.791 68.6583 110.806 68.2977C113.181 67.4507 115.53 69.5444 113.952 71.9325C112.533 74.0781 108.806 75.8649 106.734 77.3781C104.479 79.0296 102.454 81.3049 99.4502 80.2396C97.6138 79.5939 95.7675 77.3167 94.3581 75.9909C92.7713 74.5049 89.4982 72.3231 88.8103 70.232C87.9744 67.7011 90.747 66.2337 92.8421 67.4435C95.1008 68.744 96.4382 72.0923 98.8567 73.0792C99.3281 71.4013 99.0609 69.22 98.9655 67.5046C98.7052 65.9045 99.0095 68.3236 98.9655 67.5046Z" fill="white"/>
</g>
<defs>
<clipPath id="clip0">
<rect width="108.182" height="79.5074" fill="white" transform="translate(0 10.4077) rotate(-5.52078)"/>
</clipPath>
</defs>
</svg>
