<svg width="78" height="15" viewBox="0 0 78 15" fill="none" xmlns="http://www.w3.org/2000/svg">
	<path d="M70.8481 8.92769C69.2229 8.92769 64.5257 9.45612 64.1882 7.1848C63.7686 4.37114 68.866 5.4929 70.3465 5.52071C70.5153 5.52534 72.8639 5.69222 72.917 5.60878C73.2015 5.16842 71.7354 3.56459 71.4991 3.18913C70.9253 2.26205 70.4334 1.23764 71.475 0.389372C72.3334 -0.305931 73.2545 0.00463801 73.9779 0.713847C75.4199 2.13226 76.8474 4.62608 77.7347 6.40142C78.733 8.38999 76.6448 10.2302 75.4777 11.7553C74.6338 12.8585 72.8061 16.182 71.0217 14.5596C69.4592 13.1366 72.97 9.0992 73.052 9.14555C72.4347 8.77936 71.5329 8.92769 70.8481 8.92769Z" fill="#341F3A"/>
	<path d="M9.78012 9.28461C8.30924 9.28461 6.86247 9.13164 5.39641 9.0992C4.09915 9.07138 2.44501 9.40513 1.22973 8.87206C0.250747 8.44098 -0.400297 7.41656 0.284505 6.44778C1.08505 5.31211 3.33236 5.71539 4.51389 5.71075C5.96547 5.70612 7.36884 5.87299 8.81078 5.87299C9.96337 5.87299 11.5886 5.60878 12.6833 6.10012C13.5176 6.47095 14.0915 7.43974 13.696 8.31582C13.0836 9.66471 10.9424 9.28461 9.78012 9.28461Z" fill="#341F3A"/>
	<path d="M39.3425 9.10847C37.8233 9.10847 32.1858 9.94747 32.8031 7.07819C33.2901 4.81614 38.1706 5.7154 39.7909 5.7154C41.2377 5.7154 46.1085 4.89957 45.9397 7.44902C45.7757 9.94747 40.9435 9.10847 39.3425 9.10847Z" fill="#341F3A"/>
	<path d="M23.4471 9.10847C22.01 9.10847 16.7438 9.8594 17.5829 7.05501C18.2339 4.88567 22.3476 5.71539 24.0355 5.71539C25.5015 5.71539 29.9672 5.00155 29.7213 7.49537C29.4705 9.95211 25.0482 9.10847 23.4471 9.10847Z" fill="#341F3A"/>
	<path d="M56.9255 8.75155C55.7874 8.75155 54.7264 8.72374 53.6076 8.60785C52.4888 8.49197 51.206 8.81181 50.1402 8.38999C49.2528 8.0377 48.6741 7.29141 48.9828 6.34117C49.4072 5.03863 51.042 5.13134 52.1946 5.13134C53.6703 5.13134 55.1267 5.33993 56.6121 5.33993C57.7309 5.33993 59.3657 5.12207 60.3206 5.84055C61.1983 6.49877 61.2706 7.74104 60.3737 8.42707C59.5394 9.05285 57.9093 8.75155 56.9255 8.75155Z" fill="#341F3A"/>
</svg>