<svg width="266" height="397" viewBox="0 0 266 397" fill="none" xmlns="http://www.w3.org/2000/svg">
<rect x="14" y="23" width="197" height="347" fill="#FF553E"/>
<path d="M0 8.85962V370.288H17.5125V26.4342H186.827V370.288H204.346V8.85962H0Z" fill="#341F3A"/>
<path d="M2.9198 11.7839V370.288H17.5126V26.4342H186.827V370.288H201.426V11.7839H2.9198Z" fill="#862F9F"/>
<path d="M14.5985 23.5042V370.288H17.5125V26.4342H186.827V370.288H189.747V23.5042H14.5985Z" fill="#D79CE8"/>
<path d="M189.747 23.5042L186.827 26.4342H17.5125V370.288H14.5985V23.5042H189.747Z" fill="#341F3A"/>
<path d="M2.91972 370.288V11.7839H201.426L204.346 8.85962H0V370.288H2.91972Z" fill="#D79CE8"/>
<path d="M258.17 397V0L182.084 26.4342V370.288L258.17 397Z" fill="#862F9F"/>
<path d="M193.717 221.057V52.3821L243.415 38.0735V223.385L193.717 221.057Z" fill="#D79CE8"/>
<path d="M193.717 52.3821V221.057L195.131 217.554L241.713 42.4628L243.415 38.0735L193.717 52.3821Z" fill="#341F3A"/>
<path d="M195.13 55.5439V217.554L241.713 219.407V42.4629L195.13 55.5439Z" fill="#862F9F"/>
<path d="M243.415 256.334V358.874L193.717 344.386V251.047L243.415 256.334Z" fill="#D79CE8"/>
<path d="M243.415 256.334L241.713 260.052L195.131 341.23L193.717 344.386V251.047L243.415 256.334Z" fill="#341F3A"/>
<path d="M195.13 254.765V341.23L241.713 354.479V260.052L195.13 254.765Z" fill="#862F9F"/>
<path d="M266 0H258.17V397H266V0Z" fill="#341F3A"/>
<path d="M247.01 217.039C247.01 217.039 249.301 217.039 250.842 217.039C252.376 217.039 253.623 213.246 253.623 208.567H247.016V217.039H247.01Z" fill="#2B3C4D"/>
<path d="M250.836 200.095C250.357 200.095 247.004 200.095 247.004 200.095V208.567H253.611C253.617 203.888 252.376 200.095 250.836 200.095Z" fill="#6B8FB3"/>
<path d="M247.01 217.039C248.546 217.039 249.791 213.246 249.791 208.567C249.791 203.888 248.546 200.095 247.01 200.095C245.474 200.095 244.229 203.888 244.229 208.567C244.229 213.246 245.474 217.039 247.01 217.039Z" fill="#405F80"/>
<path d="M247.01 205.672H235.626V211.462H247.01V205.672Z" fill="#32475B"/>
<path d="M239.521 211.462H226.249C224.657 211.462 223.364 210.165 223.364 208.567C223.364 206.969 224.657 205.672 226.249 205.672H239.521C241.113 205.672 242.406 206.969 242.406 208.567C242.406 210.165 241.113 211.462 239.521 211.462Z" fill="#405F80"/>
<path d="M264.477 203.715H260.559V213.408H264.477V203.715Z" fill="#2B3C4D"/>
</svg>
