<svg width="27" height="27" viewBox="0 0 27 27" fill="none" xmlns="http://www.w3.org/2000/svg">
<path fill-rule="evenodd" clip-rule="evenodd" d="M13.5 0C6.04416 0 0 6.04416 0 13.5C0 20.9558 6.04416 27 13.5 27C20.9558 27 27 20.9558 27 13.5C27 6.04416 20.9558 0 13.5 0ZM10.5319 6.34349C11.2999 6.30854 11.5453 6.29999 13.5007 6.29999H13.4985C15.4545 6.29999 15.699 6.30854 16.467 6.34349C17.2335 6.37859 17.757 6.49994 18.216 6.67799C18.69 6.86174 19.0905 7.10775 19.491 7.50825C19.8915 7.90845 20.1375 8.31016 20.322 8.78371C20.499 9.24152 20.6205 9.76472 20.6565 10.5312C20.691 11.2992 20.7 11.5446 20.7 13.5001C20.7 15.4555 20.691 15.7003 20.6565 16.4683C20.6205 17.2345 20.499 17.7579 20.322 18.2158C20.1375 18.6892 19.8915 19.0909 19.491 19.4911C19.091 19.8916 18.6899 20.1382 18.2165 20.3221C17.7584 20.5002 17.2346 20.6215 16.468 20.6566C15.7 20.6916 15.4554 20.7001 13.4998 20.7001C11.5445 20.7001 11.2993 20.6916 10.5313 20.6566C9.76493 20.6215 9.24158 20.5002 8.78347 20.3221C8.31022 20.1382 7.90851 19.8916 7.50846 19.4911C7.1081 19.0909 6.8621 18.6892 6.67805 18.2157C6.50015 17.7579 6.3788 17.2347 6.34355 16.4681C6.30874 15.7001 6.30005 15.4555 6.30005 13.5001C6.30005 11.5446 6.30905 11.2991 6.3434 10.5311C6.3779 9.76487 6.4994 9.24152 6.6779 8.78356C6.8624 8.31016 7.1084 7.90845 7.50891 7.50825C7.90911 7.1079 8.31082 6.86189 8.78437 6.67799C9.24218 6.49994 9.76538 6.37859 10.5319 6.34349Z" fill="#FF6D59"/>
<path fill-rule="evenodd" clip-rule="evenodd" d="M12.8548 7.5975C12.9802 7.59731 13.1151 7.59737 13.2607 7.59743L13.5007 7.5975C15.4231 7.5975 15.651 7.6044 16.4101 7.6389C17.1121 7.671 17.4931 7.78831 17.7469 7.88686C18.083 8.01736 18.3225 8.17336 18.5744 8.42536C18.8264 8.67736 18.9824 8.91737 19.1132 9.25337C19.2117 9.50687 19.3292 9.88788 19.3611 10.5899C19.3956 11.3489 19.4031 11.5769 19.4031 13.4984C19.4031 15.4199 19.3956 15.6479 19.3611 16.4069C19.329 17.1089 19.2117 17.49 19.1132 17.7435C18.9827 18.0795 18.8264 18.3187 18.5744 18.5706C18.3224 18.8226 18.0831 18.9786 17.7469 19.1091C17.4934 19.2081 17.1121 19.3251 16.4101 19.3572C15.6511 19.3917 15.4231 19.3992 13.5007 19.3992C11.5781 19.3992 11.3503 19.3917 10.5913 19.3572C9.88927 19.3248 9.50826 19.2075 9.25431 19.1089C8.91831 18.9784 8.67831 18.8224 8.4263 18.5704C8.1743 18.3184 8.0183 18.079 7.8875 17.7429C7.78895 17.4894 7.6715 17.1084 7.63954 16.4063C7.60504 15.6473 7.59814 15.4193 7.59814 13.4966C7.59814 11.5739 7.60504 11.3471 7.63954 10.5881C7.67165 9.88608 7.78895 9.50507 7.8875 9.25127C8.018 8.91527 8.1743 8.67526 8.4263 8.42326C8.67831 8.17126 8.91831 8.01526 9.25431 7.88446C9.50811 7.78546 9.88927 7.66845 10.5913 7.6362C11.2555 7.6062 11.5129 7.5972 12.8548 7.5957V7.5975ZM17.344 8.79301C16.867 8.79301 16.48 9.17957 16.48 9.65672C16.48 10.1337 16.867 10.5207 17.344 10.5207C17.821 10.5207 18.208 10.1337 18.208 9.65672C18.208 9.17972 17.821 8.79271 17.344 8.79271V8.79301ZM9.80313 13.5C9.80313 11.4581 11.4586 9.80258 13.5005 9.8025C15.5425 9.8025 17.1976 11.4581 17.1976 13.5C17.1976 15.542 15.5426 17.1968 13.5007 17.1968C11.4587 17.1968 9.80313 15.542 9.80313 13.5Z" fill="#FF6D59"/>
<path d="M13.5007 11.1001C14.8261 11.1001 15.9008 12.1746 15.9008 13.5001C15.9008 14.8255 14.8261 15.9001 13.5007 15.9001C12.1752 15.9001 11.1007 14.8255 11.1007 13.5001C11.1007 12.1746 12.1752 11.1001 13.5007 11.1001Z" fill="#FF6D59"/>
</svg>
