<svg width="27" height="27" viewBox="0 0 27 27" fill="none" xmlns="http://www.w3.org/2000/svg">
<path fill-rule="evenodd" clip-rule="evenodd" d="M0 13.5C0 20.9558 6.04416 27 13.5 27C20.9558 27 27 20.9558 27 13.5C27 6.04416 20.9558 0 13.5 0C6.04416 0 0 6.04416 0 13.5ZM21.9725 12.9835C21.9707 17.4085 18.371 21.0091 13.945 21.0109H13.9417C12.5982 21.0105 11.2781 20.6734 10.1056 20.0338L5.85006 21.1501L6.98891 16.9904C6.28641 15.7729 5.91676 14.392 5.91737 12.9771C5.91913 8.55108 9.52027 4.95012 13.945 4.95012C16.0924 4.95105 18.108 5.78705 19.6236 7.30442C21.1391 8.82171 21.9734 10.8386 21.9725 12.9835Z" fill="#D5D5D5"/>
<path fill-rule="evenodd" clip-rule="evenodd" d="M7.77744 19.2427L10.3027 18.5802L10.5464 18.7248C11.5708 19.3327 12.7451 19.6544 13.9423 19.6549H13.945C17.6225 19.6549 20.6156 16.6617 20.6171 12.9827C20.6178 11.1998 19.9244 9.52353 18.6647 8.26235C17.405 7.00117 15.7298 6.30628 13.9476 6.30566C10.2673 6.30566 7.27417 9.29854 7.27271 12.9773C7.27219 14.238 7.62494 15.4658 8.29283 16.5281L8.45147 16.7805L7.77744 19.2427ZM17.7145 14.7113C17.8544 14.779 17.9489 14.8246 17.9892 14.8919C18.0393 14.9756 18.0393 15.3772 17.8723 15.8458C17.705 16.3143 16.9037 16.7419 16.5183 16.7995C16.1728 16.8512 15.7355 16.8727 15.255 16.72C14.9637 16.6276 14.5901 16.5042 14.1115 16.2975C12.2311 15.4855 10.9603 13.663 10.7202 13.3186C10.7033 13.2944 10.6916 13.2776 10.685 13.2688L10.6834 13.2666C10.5772 13.125 9.86599 12.176 9.86599 11.1939C9.86599 10.2699 10.3198 9.78567 10.5287 9.56276C10.5431 9.54748 10.5562 9.53344 10.568 9.52056C10.7519 9.31975 10.9692 9.26955 11.1029 9.26955C11.2366 9.26955 11.3705 9.27078 11.4873 9.27665C11.5017 9.27738 11.5167 9.27729 11.5322 9.2772C11.6491 9.27651 11.7949 9.27566 11.9386 9.62097C11.9939 9.75387 12.0749 9.9509 12.1602 10.1587C12.3328 10.5789 12.5235 11.0431 12.557 11.1103C12.6072 11.2107 12.6406 11.3278 12.5738 11.4617C12.5637 11.4818 12.5544 11.5008 12.5456 11.5189C12.4954 11.6214 12.4584 11.6968 12.3732 11.7963C12.3397 11.8354 12.305 11.8776 12.2704 11.9198C12.2014 12.0038 12.1324 12.0879 12.0723 12.1477C11.9719 12.2477 11.8674 12.3563 11.9844 12.5571C12.1014 12.7579 12.5039 13.4147 13.1002 13.9466C13.7412 14.5183 14.2983 14.76 14.5807 14.8824C14.6358 14.9064 14.6805 14.9257 14.7133 14.9421C14.9138 15.0426 15.0308 15.0258 15.1478 14.8919C15.2648 14.7581 15.6492 14.3062 15.7829 14.1055C15.9166 13.9047 16.0504 13.9382 16.2342 14.0051C16.4181 14.0721 17.4042 14.5573 17.6048 14.6576C17.6439 14.6773 17.6806 14.6949 17.7145 14.7113Z" fill="#D5D5D5"/>
</svg>