<svg width="24" height="24" viewBox="0 0 24 24" fill="none" xmlns="http://www.w3.org/2000/svg">
<path d="M19.6353 15.5625V5.20312C19.6353 4.16931 18.7943 3.32812 17.7603 3.32812H11.8594V10.0312C11.8594 11.5822 10.5978 12.8438 9.04688 12.8438C7.49597 12.8438 6.23438 11.5822 6.23438 10.0312V6C6.23438 5.48218 6.65405 5.0625 7.17188 5.0625C7.6897 5.0625 8.10938 5.48218 8.10938 6V10.0312C8.10938 10.5482 8.52997 10.9688 9.04688 10.9688C9.56378 10.9688 9.98438 10.5482 9.98438 10.0312V2.8125C9.98438 2.29559 9.56378 1.875 9.04688 1.875C8.6142 1.875 8.22986 2.18024 8.13318 2.60065C8.02808 3.05823 7.60419 3.35889 7.1499 3.32446C7.12628 3.32629 7.10248 3.32812 7.07812 3.32812H6.23438C5.20056 3.32812 4.35938 4.16931 4.35938 5.20312V20.25C4.35938 21.2838 5.20056 22.125 6.23438 22.125H17.7605C18.7943 22.125 19.6355 21.2838 19.6355 20.25C19.6355 19.7322 20.0552 19.3125 20.573 19.3125C21.0906 19.3125 21.5105 19.7322 21.5105 20.25C21.5105 22.3178 19.8281 24 17.7605 24H6.23438C4.16656 24 2.48438 22.3178 2.48438 20.25V5.20312C2.48438 3.13531 4.16656 1.45312 6.23438 1.45312H6.58264C7.06567 0.57074 7.99512 0 9.04688 0C10.1049 0 11.0279 0.587402 11.508 1.45312H17.7603C19.8281 1.45312 21.5103 3.13531 21.5103 5.20312V15.5625C21.5103 16.0803 21.0906 16.5 20.5728 16.5C20.0552 16.5 19.6353 16.0803 19.6353 15.5625ZM7.17188 18.375C6.65405 18.375 6.23438 18.7947 6.23438 19.3125C6.23438 19.8303 6.65405 20.25 7.17188 20.25H13.9688C14.4866 20.25 14.9062 19.8303 14.9062 19.3125C14.9062 18.7947 14.4866 18.375 13.9688 18.375H7.17188ZM17.7188 15.6094C17.7188 15.0916 17.2991 14.6719 16.7812 14.6719H7.17188C6.65405 14.6719 6.23438 15.0916 6.23438 15.6094C6.23438 16.1272 6.65405 16.5469 7.17188 16.5469H16.7812C17.2991 16.5469 17.7188 16.1272 17.7188 15.6094ZM16.7812 11.0156H14.625C14.1072 11.0156 13.6875 11.4353 13.6875 11.9531C13.6875 12.4709 14.1072 12.8906 14.625 12.8906H16.7812C17.2991 12.8906 17.7188 12.4709 17.7188 11.9531C17.7188 11.4353 17.2991 11.0156 16.7812 11.0156ZM16.7812 7.3125H14.625C14.1072 7.3125 13.6875 7.73218 13.6875 8.25C13.6875 8.76782 14.1072 9.1875 14.625 9.1875H16.7812C17.2991 9.1875 17.7188 8.76782 17.7188 8.25C17.7188 7.73218 17.2991 7.3125 16.7812 7.3125Z" fill="white"/>
</svg>