<svg width="62" height="64" viewBox="0 0 62 64" fill="none" xmlns="http://www.w3.org/2000/svg">
<path d="M56.3164 25.3852C55.8625 24.8032 55.023 24.6997 54.4409 25.1533C53.8591 25.6072 53.7553 26.4468 54.2091 27.0287C54.6551 27.6008 54.6551 28.3995 54.2091 28.9716C50.9405 33.1623 46.7114 36.3113 41.9503 38.2152C44.4527 35.5358 45.985 31.943 45.985 28.0001C45.985 24.0728 44.4655 20.4928 41.9844 17.8192C44.7356 18.9254 47.3217 20.4457 49.637 22.344C49.9243 22.5795 50.2108 22.8237 50.489 23.07C51.0416 23.5593 51.8859 23.5079 52.3752 22.9554C52.8644 22.403 52.813 21.5584 52.2606 21.0692C51.9573 20.8005 51.6446 20.5342 51.3313 20.2775C45.6197 15.5946 38.3991 13.0156 31 13.0156C21.0422 13.0156 11.8148 17.5242 5.68376 25.3853C4.48294 26.925 4.48294 29.0756 5.68376 30.6154C11.8148 38.4765 21.0422 42.985 31 42.985C40.9576 42.985 50.1852 38.4765 56.3164 30.6154C57.5172 29.0754 57.5172 26.9248 56.3164 25.3852ZM7.79109 28.9716C7.34506 28.3995 7.34506 27.6008 7.79109 27.0287C11.0589 22.8388 15.2871 19.6902 20.0473 17.7861C17.5476 20.4642 16.0151 24.0556 16.0151 28.0001C16.0151 31.9432 17.5475 35.536 20.0472 38.2142C15.2871 36.3101 11.0588 33.1615 7.79109 28.9716ZM31.0163 40.3121C31.011 40.3121 31.0056 40.3122 31.0001 40.3122C30.9947 40.3122 30.9894 40.3121 30.9839 40.3121C24.2019 40.3034 18.6876 34.7841 18.6876 28.0001C18.6876 21.2161 24.2018 15.6968 30.9839 15.6881C30.9893 15.6881 30.9947 15.688 31.0001 15.688C31.0043 15.688 31.0084 15.6881 31.0126 15.6881C37.7963 15.6948 43.3126 21.2148 43.3126 28.0001C43.3126 34.7841 37.7983 40.3034 31.0163 40.3121Z" fill="#341F3A"/>
<path d="M31 22.3301C27.8733 22.3301 25.33 24.8734 25.33 28.0001C25.33 31.1268 27.8733 33.6701 31 33.6701C34.1267 33.6701 36.67 31.1268 36.67 28.0001C36.67 24.8734 34.1267 22.3301 31 22.3301ZM31 30.9976C29.3475 30.9976 28.0024 29.6525 28.0024 28.0001C28.0024 26.3476 29.3475 25.0025 31 25.0025C32.6524 25.0025 33.9975 26.3476 33.9975 28.0001C33.9975 29.6525 32.6524 30.9976 31 30.9976Z" fill="#341F3A"/>
<path d="M31.0001 0C30.262 0 29.6638 0.598172 29.6638 1.33623V6.34703C29.6638 7.08509 30.262 7.68327 31.0001 7.68327C31.7381 7.68327 32.3363 7.08509 32.3363 6.34703V1.33623C32.3363 0.598172 31.738 0 31.0001 0Z" fill="#341F3A"/>
<path d="M31.0001 48.3169C30.262 48.3169 29.6638 48.9151 29.6638 49.6531V54.6639C29.6638 55.402 30.262 56.0002 31.0001 56.0002C31.7381 56.0002 32.3363 55.402 32.3363 54.6639V49.6531C32.3363 48.9151 31.7379 48.3169 31.0001 48.3169Z" fill="#341F3A"/>
<path d="M50.7993 8.20086C50.2774 7.67914 49.4315 7.67914 48.9094 8.20086L46.4162 10.6941C45.8943 11.2159 45.8943 12.0619 46.4162 12.584C46.6771 12.8448 47.0189 12.9753 47.361 12.9753C47.703 12.9753 48.0449 12.8448 48.3059 12.584L50.7994 10.0908C51.3211 9.56892 51.3211 8.72291 50.7993 8.20086Z" fill="#341F3A"/>
<path d="M15.5842 43.4159C15.0624 42.8943 14.2164 42.8942 13.6945 43.4159L11.2011 45.9091C10.6792 46.4309 10.6792 47.277 11.2011 47.799C11.462 48.0599 11.804 48.1903 12.146 48.1903C12.4879 48.1903 12.8298 48.0599 13.0908 47.799L15.5843 45.3058C16.106 44.7839 16.106 43.938 15.5842 43.4159Z" fill="#341F3A"/>
<path d="M15.5841 10.6942L13.0906 8.20086C12.5688 7.67914 11.7228 7.67914 11.201 8.20086C10.6791 8.72291 10.6792 9.56881 11.201 10.0908L13.6944 12.584C13.9552 12.8448 14.2974 12.9753 14.6393 12.9753C14.9812 12.9753 15.3233 12.8448 15.5842 12.584C16.1059 12.0619 16.1058 11.216 15.5841 10.6942Z" fill="#341F3A"/>
<path d="M50.7989 45.9091L48.3057 43.4159C47.7836 42.8942 46.9378 42.8942 46.4158 43.4159C45.894 43.938 45.894 44.7839 46.4158 45.3058L48.9092 47.799C49.1702 48.0599 49.5122 48.1904 49.8541 48.1904C50.196 48.1904 50.5379 48.0599 50.799 47.799C51.3208 47.277 51.3208 46.431 50.7989 45.9091Z" fill="#341F3A"/>
</svg>