<?xml version="1.0" encoding="utf-8"?>
<!-- Generator: Adobe Illustrator 23.0.0, SVG Export Plug-In . SVG Version: 6.00 Build 0)  -->
<svg version="1.1" id="Слой_1" xmlns="http://www.w3.org/2000/svg" xmlns:xlink="http://www.w3.org/1999/xlink" x="0px" y="0px"
	 viewBox="0 0 1000 1000" style="enable-background:new 0 0 1000 1000;" xml:space="preserve">
<style type="text/css">
	.st0{fill:#FFFFFF;}
	.st1{fill:#FF553E;}
</style>
<g>
	<path d="M108.5,558.51c-3.52,0-6.96,1.72-9.03,4.89L27.75,673.42c-3.25,4.98-1.84,11.65,3.14,14.9c4.98,3.25,11.65,1.84,14.9-3.14
		l71.72-110.02c3.25-4.98,1.84-11.65-3.14-14.9C112.55,559.07,110.51,558.51,108.5,558.51z"/>
</g>
<g>
	<path d="M196.54,612.34c-3.72,0-7.34,1.93-9.33,5.38l-65.67,113.74c-2.97,5.15-1.21,11.73,3.94,14.7
		c5.15,2.97,11.73,1.21,14.7-3.94l65.67-113.74c2.97-5.15,1.21-11.73-3.94-14.7C200.21,612.8,198.36,612.34,196.54,612.34z"/>
</g>
<g>
	<path d="M286.93,648.27c-4.42,0-8.57,2.74-10.14,7.15L232.62,779.1c-2,5.6,0.92,11.76,6.52,13.76c5.6,2,11.76-0.92,13.76-6.52
		l44.17-123.68c2-5.6-0.92-11.76-6.52-13.76C289.35,648.47,288.13,648.27,286.93,648.27z"/>
</g>
<g>
	<path d="M390.64,681.23c-4.96,0-9.43,3.45-10.51,8.5l-27.61,128.4c-1.25,5.81,2.45,11.54,8.26,12.79
		c5.81,1.25,11.54-2.45,12.79-8.26l27.61-128.4c1.25-5.81-2.45-11.54-8.26-12.79C392.15,681.31,391.39,681.23,390.64,681.23z"/>
</g>
<g>
	<path d="M891.5,558.51c-2.02,0-4.05,0.56-5.87,1.75c-4.98,3.25-6.39,9.92-3.14,14.9l71.72,110.02c3.24,4.98,9.91,6.39,14.9,3.14
		c4.98-3.25,6.39-9.92,3.14-14.9l-71.72-110.02C898.47,560.23,895.02,558.51,891.5,558.51z"/>
</g>
<g>
	<path d="M803.46,612.34c-1.83,0-3.68,0.47-5.37,1.44c-5.15,2.97-6.91,9.56-3.94,14.7l65.67,113.74c2.97,5.15,9.55,6.91,14.7,3.94
		c5.15-2.97,6.91-9.56,3.94-14.7l-65.67-113.74C810.8,614.27,807.18,612.34,803.46,612.34z"/>
</g>
<g>
	<path d="M713.07,648.27c-1.2,0-2.42,0.2-3.62,0.63c-5.6,2-8.52,8.16-6.52,13.76l44.17,123.68c2,5.6,8.16,8.51,13.76,6.52
		c5.6-2,8.52-8.16,6.52-13.76l-44.17-123.68C721.64,651.01,717.49,648.27,713.07,648.27z"/>
</g>
<g>
	<path d="M609.36,681.23c-0.75,0-1.51,0.08-2.27,0.24c-5.81,1.25-9.51,6.97-8.26,12.79l27.61,128.4c1.25,5.81,6.98,9.51,12.79,8.26
		c5.81-1.25,9.51-6.97,8.26-12.79l-27.61-128.4C618.79,684.68,614.33,681.23,609.36,681.23z"/>
</g>
<g>
	<path d="M500,693.84c-5.94,0-10.76,4.82-10.76,10.76v131.34c0,5.94,4.82,10.76,10.76,10.76c5.94,0,10.76-4.82,10.76-10.76V704.6
		C510.76,698.66,505.94,693.84,500,693.84z"/>
</g>
<circle class="st0" cx="500" cy="596.77" r="16.86"/>
<g>
	<path class="st0" d="M809.23,603.97c-72.28,37.55-184.6,82.31-309.23,82.31c-124.79,0-237.24-44.87-309.6-82.51
		c-52.59-27.36-92.08-54.87-112.57-70.18h844.34C901.6,548.95,861.94,576.58,809.23,603.97z"/>
	<path class="st0" d="M69.84,527.51c0.05-0.04,0.1-0.07,0.14-0.11l7.83,6.17C74.71,531.27,72.04,529.23,69.84,527.51z"/>
	<path class="st0" d="M922.18,533.58l7.77-6.24c0.07,0.05,0.15,0.11,0.22,0.17C927.96,529.22,925.28,531.27,922.18,533.58z"/>
	<path d="M955.65,527.51l-7.35,6.18c-2.05,1.73-51.2,42.76-131.26,84.4c-47.02,24.46-94.89,43.95-142.29,57.93
		c-59.37,17.52-118.17,26.4-174.76,26.4s-115.39-8.88-174.76-26.4c-47.4-13.98-95.27-33.48-142.29-57.93
		c-80.06-41.64-129.2-82.68-131.26-84.4l-7.35-6.18l7.35-6.18c0.36-0.3,2.13-1.78,5.22-4.23l6.53,5.15
		c-4.3,3.37-6.55,5.26-6.55,5.26S255.28,694.35,500,694.35s443.11-166.84,443.11-166.84s-2.3-1.93-6.69-5.37l6.47-5.2
		c3.21,2.54,5.05,4.08,5.41,4.39L955.65,527.51z"/>
	<path d="M69.84,527.51c2.21,1.71,4.88,3.75,7.97,6.06l0.02,0.02h0c20.49,15.31,59.98,42.82,112.57,70.18
		c72.36,37.64,184.82,82.51,309.6,82.51c124.63,0,236.95-44.76,309.23-82.31c52.71-27.39,92.38-55.02,112.94-70.37h0l0.01-0.01
		c3.1-2.32,5.78-4.36,7.99-6.07c-0.07-0.05-0.15-0.11-0.22-0.17l6.48-5.2c4.39,3.44,6.69,5.37,6.69,5.37S744.72,694.35,500,694.35
		S56.89,527.51,56.89,527.51s2.25-1.89,6.55-5.26l6.54,5.16C69.93,527.44,69.88,527.48,69.84,527.51z"/>
	<path d="M922.17,533.59L922.17,533.59c0,0,0.01-0.01,0.01-0.01L922.17,533.59z"/>
	<path d="M77.83,533.59l-0.02-0.02C77.81,533.58,77.82,533.59,77.83,533.59L77.83,533.59z"/>
</g>
</svg>
