<svg width="138" height="271" viewBox="0 0 138 271" fill="none" xmlns="http://www.w3.org/2000/svg">
<g clip-path="url(#clip0)">
<path fill-rule="evenodd" clip-rule="evenodd" d="M107.427 267.753L69.7591 270.962C69.1054 271.019 68.9708 271.019 68.3555 270.981L30.6492 267.772C29.4378 267.676 29.2648 267.676 28.7072 266.619L0.826439 212.718C-0.28879 210.585 -0.269562 211.027 0.672614 208.99L40.3786 122.173C40.5325 121.75 40.8978 121.424 41.3593 121.328L67.6441 115.582V-51H70.336V115.582L96.6208 121.328C97.0823 121.424 97.4476 121.77 97.6014 122.173L137.827 210.124C138.173 210.758 137.923 211.219 137.654 211.758L109.407 266.369C108.773 267.58 108.754 267.656 107.427 267.753ZM75.7968 148.403C74.3162 148.134 72.4319 147.942 70.3552 147.884V149.575C72.4319 149.517 74.3162 149.344 75.7775 149.056C76.3928 148.864 76.2775 148.518 75.8352 148.403H75.7968ZM61.3565 148.557C61.0873 148.614 61.0104 148.845 61.2411 148.864H61.2603C61.4334 148.883 61.6064 148.922 61.818 148.96C63.337 149.268 65.3751 149.498 67.6633 149.556V147.865C65.3751 147.922 63.337 148.134 61.818 148.461L61.4334 148.537L61.3565 148.557ZM70.336 118.33V122.135C72.7972 122.192 75.0276 122.442 76.7197 122.788C79.2963 123.326 80.873 124.325 80.873 125.651V130.532L91.16 129.437L94.2942 123.576L70.336 118.33ZM70.336 124.806V145.194C72.7972 145.251 75.0276 145.501 76.7197 145.847C77.2581 145.962 77.7388 146.097 78.1811 146.251V128.053C78.1811 125.44 78.5464 125.882 76.1813 125.402C74.6623 125.094 72.6241 124.883 70.336 124.806ZM70.336 152.265V201.785C71.9512 200.612 73.7394 200.055 75.5084 199.517C79.777 198.191 83.7957 196.923 82.5074 183.357C81.4883 172.461 77.585 155.859 76.5851 151.65C74.9123 151.977 72.7395 152.188 70.336 152.265ZM70.336 205.474V209.432H114.83L91.0639 132.146L80.8922 133.242V148.749V148.787V148.806V148.845V148.864V148.883V148.922C80.8153 149.69 80.2 150.344 79.1617 150.843C80.1039 154.763 84.1418 171.865 85.1993 183.107C86.6799 198.844 81.6613 200.42 76.3159 202.092C74.1432 202.745 71.9127 203.437 70.336 205.474ZM70.336 215.947V258.087L79.4501 258.779L89.3334 250.17L70.336 215.947ZM70.336 260.796V266.734L76.6044 261.277L70.336 260.796ZM67.6633 268.214V260.796L41.2054 262.814L35.3601 265.466L67.6633 268.214ZM67.6633 256.069V215.043L50.8964 239.006L67.6633 256.069ZM67.6633 209.432V205.474C66.0866 203.437 63.8561 202.745 61.7026 202.073C56.3764 200.42 51.3386 198.844 52.8192 183.087C53.8767 171.846 57.9146 154.744 58.8568 150.824C57.8185 150.324 57.2032 149.671 57.1263 148.902V148.864V148.845V148.826V148.787V148.768V148.73V133.222L46.9546 132.127L23.1695 209.413H67.6633V209.432ZM67.6633 201.765V152.246C65.279 152.188 63.1062 151.958 61.4142 151.612C60.3951 155.82 56.511 172.423 55.4919 183.318C54.2036 196.904 58.2223 198.153 62.4909 199.479C64.2407 200.055 66.0289 200.612 67.6633 201.765ZM67.6633 145.194V124.806C65.3751 124.863 63.337 125.075 61.818 125.402C60.2605 125.728 59.799 125.555 59.799 126.766V146.251C60.2412 146.097 60.7412 145.962 61.2796 145.847C62.9524 145.501 65.1829 145.271 67.6633 145.194ZM67.6633 122.116V118.311L43.6859 123.557L46.82 129.418L57.1071 130.513V125.632C57.1071 124.287 58.703 123.307 61.2603 122.769C62.9524 122.423 65.1829 122.192 67.6633 122.116ZM4.09521 212.123L36.36 253.552L20.4199 212.123H4.09521ZM20.343 209.432L44.5319 130.84L41.763 125.651L3.44146 209.432H20.343ZM66.4327 212.123H24.5154L48.9736 237.046L66.4327 212.123ZM96.2362 125.651L93.4674 130.84L117.656 209.432H134.577L96.2362 125.651ZM117.791 212.123L115.368 227.515L133.058 212.103H117.791V212.123ZM114.714 212.123H71.2782L91.41 248.402L105.485 236.142L114.714 212.123ZM30.2839 263.794L35.3216 256.588L9.20989 223.037L30.2839 263.794ZM102.658 265.466L96.8131 262.814L80.3731 261.546L72.9895 267.983L102.658 265.466ZM132.231 216.408L114.714 231.646L110.503 258.414L132.231 216.408ZM66.0289 258.221L49.3389 241.215L39.7633 254.916L41.763 260.085L66.0289 258.221ZM38.7442 260.989L37.0329 258.798L33.9949 263.141L38.7442 260.989ZM106.85 264.428L111.58 234.375L107.715 237.737L98.832 260.796L106.85 264.428ZM94.7557 259.97L90.6601 252.591L83.1996 259.086L94.7557 259.97ZM38.5904 251.899L47.4161 239.275L24.8808 216.312L38.5904 251.899ZM103.408 241.504L92.7367 250.804L96.9284 258.356L103.408 241.504ZM109.773 232.395L112.215 230.262L113.349 223.095L109.773 232.395Z" fill="black"/>
</g>
<defs>
<clipPath id="clip0">
<rect width="138" height="322" fill="white" transform="translate(0 -51)"/>
</clipPath>
</defs>
</svg>
