<svg width="93" height="214" viewBox="0 0 93 214" fill="none" xmlns="http://www.w3.org/2000/svg">
<g clip-path="url(#clip0)">
<path fill-rule="evenodd" clip-rule="evenodd" d="M47.4465 213.411L47.4313 213.427V213.442V213.457V213.472V213.487L47.4162 213.502L47.4011 213.517L47.3859 213.532L47.3708 213.547L47.3556 213.562L47.3405 213.577L47.3253 213.593L47.3102 213.608L47.295 213.623L47.2799 213.638L47.2648 213.653L47.2496 213.668L47.2345 213.683L47.4465 213.411ZM47.1133 213.804L47.0982 213.819L47.083 213.834L47.0679 213.849H47.0527H47.0376H47.0225H47.0073H46.9922H46.977H46.9619H46.9467H46.9316H46.9164H46.9013H46.8862H46.871H46.8559H46.8407H46.8256H46.8104H46.7953H46.7802H46.765H46.7499H46.7347H46.7196H46.7044H46.6893H46.6741H46.659H46.6439H46.6287H46.6136H46.4924H46.4773H46.4621H46.447H46.4318H46.4167H46.4015H46.3864H46.3713H46.3561H46.341H46.3258H46.3107H46.2955H46.2804H46.2653H46.2501H46.235H46.2198H46.2047H46.1895H46.1744H46.1592H46.1441L46.129 213.834H46.1138H46.0987H46.0835H46.0684H46.0532L46.0381 213.819L46.0229 213.804L46.0078 213.789L45.9927 213.774L45.9775 213.759L45.9624 213.743L45.9472 213.728L45.9321 213.713L45.9169 213.698L45.9018 213.683L45.8866 213.668L45.8715 213.653L45.8564 213.638L47.1133 213.804ZM45.6443 213.562L47.4616 213.411L47.4768 213.381L92.9091 122.228V122.212V122.197V122.182L92.9243 122.167V122.152V122.137V122.122V122.107V122.092V122.077V122.062V122.046V122.031V122.016V122.001V121.986V121.971V121.956V121.941V121.926V121.911V121.895V121.88V121.865V121.85V121.835V121.82V121.805V121.79V121.775V121.76V121.745V121.729V121.714V121.699V121.684V121.669V121.654V121.639V121.624V121.609V121.594V121.579V121.563V121.548V121.533V121.518V121.503V121.488V121.473L92.9091 121.428V121.413V121.397V121.382V121.367V121.352L92.8788 121.292V121.277L92.8334 121.201L92.8183 121.186L92.8031 121.171L92.788 121.156L75.0694 92.8138C74.9633 92.6327 74.7968 92.4969 74.6302 92.4214L60.5764 84.9963L60.5613 84.9812H60.5462H60.531H60.5159H60.5007H60.4856H60.4704H60.4553H60.4401H60.425H60.4099H60.3947H60.3796H60.3644H60.3493H60.3341H60.319H60.3038H60.2887H60.2736H60.2584H60.2433H60.2281H60.213H60.1978H60.1827H60.1675H60.1524H60.1373H60.1221H60.107H60.0918H60.0615H52.6409V82.5666C52.6409 81.646 51.7777 80.9367 50.3844 80.5594C49.6272 80.3481 48.6429 80.1972 47.5828 80.1368C47.5828 79.9708 47.5828 0.754593 47.5828 0.135834C46.8862 0.135834 46.0078 0.135834 45.4626 0.135834C45.4626 0.754593 45.4626 79.8199 45.4778 80.1217C44.4025 80.1821 43.4333 80.333 42.661 80.5443C41.2677 80.9367 40.4045 81.6309 40.4045 82.5515V84.9662H32.9839L32.8627 84.9812L32.787 84.9963L32.7416 85.0114H32.7264H32.7113L32.6355 85.0265H32.6204H32.6053H32.5901H32.575H32.5598L32.5144 85.0416H32.4992H32.4841L18.3849 92.4818C18.2032 92.5724 18.0518 92.6931 17.9458 92.8742L0.181715 121.156L0.16657 121.171L0.151426 121.201C0.0908499 121.292 0.0605617 121.382 0.0302734 121.488V121.518V121.533V121.548V121.563V121.579V121.594V121.639V121.654V121.669V121.714V121.729V121.775V121.79V121.805V121.82V121.835V121.85V121.865V121.88V121.895V121.911V121.926V121.941V121.956V121.971V121.986V122.001V122.016V122.031V122.046V122.062V122.077V122.092V122.107V122.122V122.137V122.152V122.167V122.182V122.197V122.212V122.228V122.243V122.258V122.273L45.4626 213.427L45.4778 213.442V213.457V213.472V213.487V213.502V213.517V213.532V213.547L45.4929 213.562L45.508 213.577L45.6443 213.562ZM62.0757 88.1807L71.4953 93.1609L64.9228 95.3492L62.0757 88.1807ZM65.6952 97.2961L73.7064 94.6399L89.3805 119.647L71.9345 112.976L65.6952 97.2961ZM71.8739 115.195L88.5325 121.563L69.0117 126.725L71.8739 115.195ZM68.4211 129.064L89.956 123.359L49.8393 203.873L68.4211 129.064ZM47.1285 213.789L47.1133 213.804L47.1285 213.789ZM45.6595 213.577L45.6443 213.562L45.6595 213.577ZM46.4924 208.567L26.7899 129.26H36.5882C35.5129 135.146 34.3317 141.696 33.9834 144.337C33.6199 147.114 34.0591 149.936 35.0132 152.184C36.0278 154.599 37.6634 156.38 39.6018 156.893C42.4944 157.648 42.767 157.784 42.767 157.784C42.8427 157.859 42.9184 157.919 43.0093 157.965L45.8564 159.927L45.8715 159.942L45.8866 159.957H45.9018L45.9169 159.972H45.9321H45.9472L45.9624 159.987H45.9775L45.9927 160.002L46.0078 160.017L46.0229 160.032L46.0381 160.047L46.0532 160.062L46.0684 160.077L46.0835 160.093L46.0987 160.108L46.1138 160.123H46.1441L46.1744 160.138H46.2047H46.235H46.2653H46.2955H46.3258H46.3561H46.3864H46.4015H46.4318H46.4621H46.4773H46.4924H46.5227H46.553H46.5681H46.5833H46.6136H46.6439H46.6741H46.7044H46.7347H46.765H46.7953L46.8256 160.123H46.8559L46.871 160.108L46.8862 160.093L46.9013 160.077L46.9164 160.062L46.9316 160.047L46.9467 160.032L46.9619 160.017H46.977L46.9922 160.002L47.0073 159.987H47.0225L47.0376 159.972H47.0527H47.0679H47.0982H47.1133L47.1285 159.957L47.1436 159.942L49.9907 157.98C50.0816 157.934 50.1573 157.874 50.233 157.799C50.233 157.799 50.5056 157.663 53.3981 156.908C55.3214 156.41 56.957 154.614 57.9868 152.2C58.9409 149.951 59.3801 147.129 59.0166 144.352C58.6683 141.711 57.5022 135.161 56.4118 129.275H66.2101L46.4924 208.567ZM67.4822 124.129L64.8168 114.848H69.7841L67.4822 124.129ZM69.572 112.735H64.211L60.3038 99.092L63.6961 97.9601L69.572 112.735ZM62.9238 95.9982L59.0923 97.2659L55.8818 95.7416V93.0704C55.8818 91.9083 54.6854 90.9877 52.7621 90.4444L59.4861 87.3355L62.9238 95.9982ZM52.6106 86.9734H55.2457L52.6106 88.1807V86.9734ZM50.4905 86.9734V89.1616L49.0821 89.8106C48.2643 89.7351 47.3859 89.6898 46.4924 89.6898C45.0537 89.6898 43.7059 89.7955 42.4944 89.9615V86.9583H46.4621H46.4924H46.5227H50.4905V86.9734ZM46.5227 84.8605H46.4924H46.4621H42.4944V83.1401C42.4944 82.7779 42.4338 82.6571 43.2061 82.4458C44.0239 82.2195 45.19 82.0686 46.4924 82.0686C47.7948 82.0686 48.9609 82.2044 49.7787 82.4458C50.2179 82.5666 50.4905 82.959 50.4905 83.1099V84.8605H46.5227ZM55.8666 99.4693H58.214L62.0151 112.735H55.8666V99.4693ZM66.1495 127.147H56.0029C55.5183 124.521 55.0791 122.152 54.7611 120.522C55.4123 120.145 55.7909 119.692 55.8515 119.164V119.134V119.119V119.104V119.073V119.058V119.028V114.848H62.6058L66.1495 127.147ZM52.7621 121.247C53.0952 123.027 53.5799 125.563 54.0796 128.325V128.355V128.385L54.0948 128.46V128.491C55.2306 134.633 56.533 141.862 56.8964 144.639C57.2144 147.038 56.8358 149.468 56.0181 151.4C55.2457 153.226 54.1099 154.554 52.8529 154.886C50.2784 155.55 49.2335 156.033 48.8852 156.229L48.87 156.214L46.4924 157.859L44.1148 156.214L44.0996 156.229C43.7362 156.033 42.7064 155.565 40.1319 154.886C38.8749 154.554 37.7391 153.226 36.9668 151.4C36.149 149.468 35.7704 147.038 36.0884 144.639C36.4519 141.877 37.7543 134.633 38.8901 128.491V128.46L38.9052 128.355V128.325C39.4201 125.563 39.8896 123.042 40.2227 121.247L40.3893 121.277C41.9643 121.609 44.1299 121.805 46.4773 121.805C48.8398 121.805 50.9902 121.609 52.5652 121.277L52.7621 121.247ZM52.3683 119.179L52.1563 119.224C50.7328 119.526 48.7186 119.707 46.4924 119.707C44.2662 119.707 42.2521 119.526 40.8285 119.224L40.6165 119.179L40.6771 118.862L40.8285 118.832C42.2521 118.53 44.2662 118.349 46.4924 118.349C48.7186 118.349 50.7176 118.53 52.1563 118.832L52.3078 118.862L52.3683 119.179ZM38.2237 120.522C37.9208 122.152 37.4665 124.521 36.9819 127.147H26.8354L30.3639 114.833H37.1182V119.013V119.043V119.058V119.088V119.104V119.119V119.149C37.1939 119.692 37.5725 120.145 38.2237 120.522ZM53.7464 117.081C53.3981 116.961 53.0044 116.855 52.5803 116.779C51.0054 116.447 48.8398 116.251 46.4924 116.251C44.1299 116.251 41.9795 116.447 40.4045 116.779C39.9804 116.87 39.6018 116.976 39.2384 117.081V114.848H53.7464V117.081ZM53.7464 112.735H39.2384V98.4279V98.3978V98.3676V93.0553C39.2384 92.9497 39.8744 92.7082 40.9042 92.4214C41.1163 92.3611 41.3434 92.3007 41.5857 92.2554C41.6463 92.2554 41.6917 92.2403 41.7523 92.2253H41.7674C43.0698 91.9536 44.7206 91.7876 46.5076 91.7876C48.7186 91.7876 50.6873 92.0291 52.0957 92.4214C53.1255 92.7082 53.7616 92.9497 53.7616 93.0553V98.3676V98.3978V98.4279V112.735H53.7464ZM40.3893 90.3992L40.3439 90.4143C38.9961 90.7915 37.9966 91.3499 37.4968 92.0291L31.636 92.1196L33.6956 86.9583H40.4045V90.3992H40.3893ZM37.1334 94.1419V97.3564H34.15L30.0762 96.0133L30.7728 94.2475L37.1334 94.1419ZM37.1334 99.4693V112.735H30.9848L34.786 99.4693H37.1334ZM4.4675 121.563L21.126 115.195L23.9883 126.74L4.4675 121.563ZM24.5789 129.064L43.1607 203.873L3.04395 123.374L24.5789 129.064ZM32.6961 99.092L28.7889 112.735H23.4279L29.3038 97.9601L32.6961 99.092ZM28.1832 114.848L25.5178 124.129L23.2159 114.848H28.1832ZM3.61943 119.647L19.2936 94.6399L27.3048 97.2961L21.0503 112.976L3.61943 119.647ZM25.0332 94.323L28.5012 94.2626L28.0772 95.3341L25.0332 94.323ZM23.2008 92.2554L30.9243 88.1807L29.3341 92.1649L23.2008 92.2554Z" fill="black" fill-opacity="0.124"/>
<path d="M12 51V-24" stroke="#C9C2CC"/>
</g>
<defs>
<clipPath id="clip0">
<rect width="93" height="214" fill="white"/>
</clipPath>
</defs>
</svg>
