<svg width="100" height="233" viewBox="0 0 100 233" fill="none" xmlns="http://www.w3.org/2000/svg">
<g clip-path="url(#clip0)">
<path fill-rule="evenodd" clip-rule="evenodd" d="M77.8457 230.65L50.5502 232.972C50.0764 233.014 49.9789 233.014 49.533 232.986L22.2096 230.664C21.3318 230.594 21.2064 230.594 20.8024 229.83L0.598931 190.827C-0.209207 189.284 -0.195273 189.604 0.487463 188.13L29.2599 125.309C29.3714 125.003 29.6361 124.766 29.9705 124.697L49.0175 120.539V0H50.9682V120.539L70.0151 124.697C70.3495 124.766 70.6143 125.017 70.7257 125.309L99.8744 188.95C100.125 189.409 99.9441 189.743 99.749 190.132L79.2808 229.649C78.821 230.525 78.8071 230.581 77.8457 230.65ZM54.9253 144.288C53.8524 144.094 52.4869 143.955 50.9821 143.913V145.137C52.4869 145.095 53.8524 144.97 54.9113 144.761C55.3572 144.622 55.2736 144.372 54.9531 144.288H54.9253ZM44.4613 144.4C44.2662 144.441 44.2105 144.608 44.3777 144.622H44.3916C44.517 144.636 44.6424 144.664 44.7957 144.692C45.8964 144.914 47.3733 145.081 49.0314 145.123V143.899C47.3733 143.941 45.8964 144.094 44.7957 144.33L44.517 144.386L44.4613 144.4ZM50.9682 122.528V125.281C52.7516 125.322 54.3679 125.503 55.5941 125.754C57.4611 126.143 58.6037 126.866 58.6037 127.825V131.357L66.058 130.565L68.3292 126.324L50.9682 122.528ZM50.9682 127.214V141.966C52.7516 142.008 54.3679 142.189 55.5941 142.439C55.9842 142.523 56.3325 142.62 56.653 142.731V129.563C56.653 127.672 56.9177 127.992 55.2039 127.645C54.1032 127.422 52.6262 127.269 50.9682 127.214ZM50.9682 147.083V182.915C52.1386 182.067 53.4344 181.664 54.7163 181.275C57.8095 180.315 60.7215 179.398 59.788 169.581C59.0495 161.697 56.2211 149.683 55.4965 146.638C54.2843 146.875 52.7098 147.028 50.9682 147.083ZM50.9682 185.585V188.45H83.2101L65.9884 132.525L58.6176 133.318V144.539V144.566V144.58V144.608V144.622V144.636V144.664C58.5619 145.22 58.116 145.693 57.3636 146.054C58.0463 148.891 60.9724 161.266 61.7387 169.4C62.8116 180.788 59.1749 181.928 55.3015 183.138C53.727 183.611 52.1107 184.111 50.9682 185.585ZM50.9682 193.163V223.656L57.5726 224.157L64.7344 217.927L50.9682 193.163ZM50.9682 225.617V229.913L55.5105 225.964L50.9682 225.617ZM49.0314 230.984V225.617L29.8591 227.077L25.6233 228.995L49.0314 230.984ZM49.0314 222.196V192.51L36.8815 209.849L49.0314 222.196ZM49.0314 188.45V185.585C47.8889 184.111 46.2726 183.611 44.7121 183.124C40.8525 181.928 37.202 180.788 38.2748 169.386C39.0412 161.252 41.9672 148.877 42.6499 146.04C41.8975 145.679 41.4517 145.206 41.3959 144.65V144.622V144.608V144.594V144.566V144.553V144.525V133.304L34.0252 132.511L16.7895 188.436H49.0314V188.45ZM49.0314 182.902V147.069C47.3037 147.028 45.7292 146.861 44.5031 146.61C43.7646 149.656 40.9501 161.669 40.2116 169.553C39.278 179.384 42.1901 180.288 45.2833 181.247C46.5513 181.664 47.8471 182.067 49.0314 182.902ZM49.0314 141.966V127.214C47.3733 127.255 45.8964 127.408 44.7957 127.645C43.6671 127.881 43.3327 127.756 43.3327 128.632V142.731C43.6531 142.62 44.0154 142.523 44.4055 142.439C45.6177 142.189 47.234 142.022 49.0314 141.966ZM49.0314 125.267V122.514L31.6565 126.31L33.9276 130.551L41.382 131.343V127.811C41.382 126.838 42.5385 126.129 44.3916 125.74C45.6177 125.489 47.234 125.322 49.0314 125.267ZM2.96761 190.396L26.3479 220.375L14.7971 190.396H2.96761ZM14.7413 188.45L32.2695 131.58L30.2631 127.825L2.49387 188.45H14.7413ZM48.1397 190.396H17.7649L35.4882 208.43L48.1397 190.396ZM69.7365 127.825L67.73 131.58L85.2583 188.45H97.5197L69.7365 127.825ZM85.3558 190.396L83.6002 201.534L96.4189 190.382H85.3558V190.396ZM83.1264 190.396H51.6509L66.2392 216.648L76.4384 207.777L83.1264 190.396ZM21.9449 227.786L25.5954 222.572L6.67389 198.294L21.9449 227.786ZM74.3902 228.995L70.1545 227.077L58.2414 226.159L52.891 230.817L74.3902 228.995ZM95.8198 193.497L83.1264 204.523L80.075 223.892L95.8198 193.497ZM47.8471 223.753L35.7529 211.448L28.8141 221.362L30.2631 225.102L47.8471 223.753ZM28.0756 225.756L26.8355 224.171L24.634 227.313L28.0756 225.756ZM77.4277 228.245L80.8553 206.498L78.0547 208.931L71.6175 225.617L77.4277 228.245ZM68.6636 225.019L65.6958 219.679L60.2896 224.379L68.6636 225.019ZM27.9641 219.179L34.3596 210.043L18.0296 193.427L27.9641 219.179ZM74.9336 211.656L67.2006 218.386L70.2381 223.851L74.9336 211.656ZM79.5456 205.066L81.3151 203.522L82.1372 198.336L79.5456 205.066Z" fill="#862F9F" fill-opacity="0.324"/>
</g>
<defs>
<clipPath id="clip0">
<rect width="100" height="233" fill="white"/>
</clipPath>
</defs>
</svg>
