<svg width="224" height="50" viewBox="0 0 224 50" fill="none" xmlns="http://www.w3.org/2000/svg">
<path fill-rule="evenodd" clip-rule="evenodd" d="M3.76594 40.3122C4.16781 38.5426 3.95329 37.2932 3.25244 34.8835C0.304437 24.7495 3.40678 14.6311 11.0151 8.84206C19.4233 2.44479 32.0452 1.97698 40.434 8.63867C43.4995 11.0736 45.7796 13.9947 47.2318 17.1609C51.9756 27.505 47.326 39.5645 37.4452 44.8837C34.638 46.3956 31.4687 47.3477 28.0858 47.6712C22.2334 48.2301 16.5733 46.8392 11.5344 43.7428C7.98362 41.5606 5.586 38.5117 4.14354 33.7735C4.41534 36.3392 4.68519 37.7688 5.39283 39.2245C7.76133 44.0934 12.1731 46.9777 16.948 48.5381C25.5047 51.3333 35.1379 49.3362 41.6901 44.7704C51.9892 37.5935 54.5188 23.1756 48.12 12.6029C40.7505 0.426333 24.5786 -3.72778 12.3964 3.69906C6.49069 7.29916 2.06819 13.2848 0.538376 20.6119C-0.75071 26.7883 0.255903 34.6045 3.76594 40.3122Z" fill="white"/>
<path fill-rule="evenodd" clip-rule="evenodd" d="M20.691 10.9783C20.2533 9.6463 20.015 8.73503 19.8921 7.3187C18.6051 9.16546 17.26 11.3719 15.9681 13.7644H15.9672C15.8548 13.9729 15.7425 14.1823 15.6311 14.3936V14.3936C12.6485 20.0289 10.0029 26.5852 9.08968 31.8627C8.59871 34.6973 8.27817 39.2071 9.5487 40.7408C9.9651 34.1457 11.6181 28.968 13.9006 23.0487C14.0665 23.4321 14.2351 23.8254 14.4071 24.2267C14.7954 25.1322 15.201 26.078 15.6302 27.0415V27.0417C17.291 30.7663 19.311 34.7565 22.0835 37.72C22.345 37.9992 22.6345 38.2861 22.9454 38.5731H34.8246C35.3495 36.1641 34.9854 31.9005 34.1865 29.9733C33.7255 28.8604 33.0215 27.8115 31.9475 26.4882C33.9569 26.0326 35.5896 25.2076 36.7227 24.0016C37.3221 23.3637 37.7821 22.6182 38.0842 21.7642V13.7635H38.0861V21.7642C38.1336 21.6304 38.1781 21.4937 38.2178 21.3541C38.7679 19.4211 38.7543 16.0358 38.4018 14.0029C38.2072 12.8842 37.7056 11.8847 36.9028 11.2439C34.567 9.37972 30.5598 9.7927 27.857 10.6788C25.7634 11.3651 23.7056 12.4528 21.8405 13.7635H21.8395V13.7644C20.6174 14.6233 19.4776 15.5773 18.4656 16.5767C17.6899 17.3426 16.645 17.7013 17.4788 16.3635C18.0221 15.492 18.5557 14.6321 19.0786 13.7644L19.0796 13.7644C19.6296 12.8512 20.1671 11.9303 20.691 10.9783ZM15.6312 22.7283C17.7478 27.9307 23.1411 37.247 29.8558 37.9469C35.8685 38.5741 35.3727 30.7789 29.3261 28.5482C27.7873 27.9811 25.9484 27.7727 23.8857 27.7552C23.9138 27.0203 23.9421 26.2855 23.9704 25.5508L23.9707 25.5425C23.9989 24.8099 24.0272 24.0772 24.0552 23.3443C25.7208 23.2736 27.5753 23.1912 29.39 22.91C32.3252 22.4563 38.0852 20.658 37.325 16.6785C37.019 15.0751 35.5306 13.7732 33.4137 13.7683C31.535 13.7635 29.2922 14.6156 27.3031 15.553C23.1488 17.5122 18.6128 20.2315 15.6312 22.7268V22.7268V22.7283ZM26.7027 41.1984C29.4801 42.5556 33.3788 42.6777 34.6261 39.2818C34.7036 39.0714 34.7694 38.8329 34.8256 38.5751H22.9464C23.999 39.5455 25.3092 40.5168 26.7027 41.1984Z" fill="white"/>
<path d="M29.8284 37.9582C35.7703 38.5886 35.2804 30.7431 29.3049 28.4978C27.7843 27.9269 25.9669 27.7171 23.9286 27.6995C23.9841 26.2192 24.0405 24.7399 24.096 23.2596C25.7411 23.1874 27.5747 23.1045 29.3681 22.8224C32.2687 22.3658 37.9609 20.5547 37.2097 16.5499C36.9072 14.9369 35.4364 13.6254 33.3444 13.6206C31.4878 13.6167 29.2714 14.4734 27.3058 15.417C23.2003 17.3891 18.7178 20.1253 15.7712 22.638C17.8612 27.8732 23.1917 37.2537 29.8284 37.9582Z" fill="#D24A43"/>
<path fill-rule="evenodd" clip-rule="evenodd" d="M142.243 22.3407C142.209 22.7942 142.299 22.6976 142.984 22.1461C144.996 20.5281 147.18 19.985 149.71 21.2321C151.988 22.3547 153.297 21.186 155.039 20.0424C155.217 19.9262 155.34 19.8255 155.423 19.7261C155.657 19.4503 155.681 16.9379 155.461 16.9309C155.369 16.9281 155.222 16.9911 154.996 17.1339C153.592 18.0143 152.473 18.8737 150.726 18.5545C149.518 18.3334 148.895 17.7847 147.097 17.6574C145.703 17.5594 144.704 17.8939 143.164 18.7323C142.597 19.0416 142.385 19.2852 142.317 19.6155C142.218 20.0956 142.296 21.6087 142.243 22.3407ZM74.1848 30.4925C72.623 33.8965 71.8177 36.5601 68.1027 36.143C69.3317 33.2093 70.4922 30.2363 71.6443 27.2634C72.8174 24.2359 73.8199 21.9082 75.0852 19.7317C76.0053 18.1486 79.1302 13.3407 80.9241 12.946C81.8203 12.7487 82.6788 13.2539 83.7624 14.2729C81.4288 17.2934 78.8967 20.279 77.0175 23.599C75.8361 25.6859 75.4208 27.171 78.1165 25.5012C81.9098 23.1525 85.5884 20.6737 89.4656 18.4258C93.3623 16.1667 97.6953 13.6123 101.24 12.1734C104.404 15.3409 100.332 17.7371 97.6072 18.8989C91.2692 21.6045 82.9836 25.0561 77.4356 28.8296C84.3846 28.6785 89.7578 29.5449 95.9965 31.2441C95.8497 29.9438 96.0888 28.8408 96.525 27.7813C97.0535 26.5006 97.8994 25.0519 98.7327 23.6732C99.3689 22.6192 100.029 21.5905 100.701 20.5729C102.883 17.2794 104.879 14.606 107.287 11.7031C108.309 10.47 110.143 8.83514 111.972 8.30605C114.996 7.43125 116.982 10.0067 115.609 12.9362C114.852 14.55 113.594 15.9287 112.357 17.2626C111.114 18.6035 109.855 19.8954 108.582 21.1846C106.546 23.2449 104.407 25.1345 102.244 27.0324C101.191 27.9562 100.322 28.7694 99.4192 29.717C99.0138 30.1411 98.6964 30.6422 98.53 31.1027C98.0238 32.4954 99.2347 33.0791 100.233 32.1399C100.665 31.734 101.017 31.1405 101.248 30.7318C102.009 29.3811 102.312 28.6729 102.996 27.6721C104.005 26.1954 104.678 26.0779 105.808 26.6321C107.249 27.3404 106.412 28.7555 105.739 29.7366C106.354 29.7478 107.301 29.6988 107.915 29.71C109.223 26.9471 112.761 23.5584 116.121 26.7539C116.968 25.9225 117.426 25.7797 117.966 26.0667C118.225 26.2038 118.527 26.4138 118.883 26.7427C119.652 27.4523 119.824 27.8485 119.601 28.281C119.408 28.6533 118.741 29.3755 118.19 29.9816C116.933 31.3631 117.112 32.4856 118.278 31.7382C119.136 31.1867 120.525 29.7576 121.294 29.0088C123.227 27.129 123.685 26.8337 125.205 24.6068C125.797 23.739 126.399 22.9104 127.075 22.0482C127.524 21.4771 127.998 21.5625 128.559 21.855C129.542 22.3687 130.941 22.9958 130.095 24.0959C128.938 25.6034 127.837 27.101 126.73 28.6435C128.921 26.7231 131.398 23.7656 134.455 26.9107C133.276 27.987 132.497 28.8814 131.555 29.9018C130.086 31.4946 130.534 32.8397 132.952 30.9698C134.712 29.6918 136.221 28.3999 137.714 27.0688C139.381 25.5838 140.765 23.788 142.844 25.8511C142.239 26.6041 141.765 27.2396 141.296 27.9324C139.632 30.3917 140.515 30.0754 142.104 28.4517C143.184 27.3502 144.263 26.2514 145.334 25.1415C146.903 23.515 147.905 24.6376 149.031 26.0037C148.686 26.4348 148.342 26.8645 147.996 27.2956C146.591 29.0508 146.791 29.6988 148.468 27.8359C149.301 26.9093 150.137 25.9911 150.983 25.0729C152.361 23.5766 152.409 23.5724 153.946 24.6474C155.299 25.595 155.52 25.8665 154.352 27.1136C153.597 27.9198 152.865 28.7177 152.168 29.6023C150.556 31.65 151.727 31.524 153.221 30.1957C154.094 29.4203 154.977 28.6407 155.805 27.8359C156.841 26.8295 157.6 25.9925 159.089 26.257C157.564 28.5581 154.615 33.0035 151.813 33.2918C149.898 33.4892 148.048 32.3876 148.77 29.5281C147.75 30.4211 146.219 32.1861 144.955 32.5038C144.034 32.7362 143.094 32.5346 142.94 31.7578C142.771 30.9068 143.891 29.1726 144.33 28.4265C142.13 30.2713 136.605 36.5713 136.605 29.9312C134.065 33.8671 127.222 36.5881 127.324 29.6163C122.549 36.1892 119.156 41.8047 115.638 48.9123C115.473 49.1993 115.308 49.4848 115.143 49.7717C115.075 50.3568 111.14 49.8487 111.979 47.8822C114.244 43.4759 116.924 39.6282 119.296 35.3914C119.842 34.4144 120.309 33.3562 120.666 31.9425C119.367 33.562 116.073 35.5341 115.195 32.1707C112.796 36.0786 108.314 34.9631 107.941 30.9992C107.078 31.0285 106.007 30.988 105.145 31.0173C103.919 32.7614 102.695 34.5739 100.334 34.7181C98.7187 34.8175 97.2003 33.9665 96.1615 32.7488C89.9605 31.3057 81.8217 30.6478 74.1848 30.4925ZM101.669 25.1079C102.441 23.7012 103.775 22.1307 104.914 20.6709C106.504 18.6357 108.094 16.6034 109.7 14.5794C110.641 13.3953 111.641 12.1454 112.629 11.2258C114.064 9.8933 115.006 11.048 113.9 12.5975C113.373 13.3351 112.811 14.028 112.187 14.739C110.728 16.4018 109.324 18.0661 107.808 19.6981C105.94 21.7122 103.817 24.0455 101.669 25.1079ZM111.086 32.9699C111.729 33.611 113.179 31.9355 113.601 31.4093C114.406 30.4057 114.813 29.8654 115.3 28.9766C116.178 27.3712 115.14 26.3942 113.649 27.9744C112.954 28.7107 112.428 29.3657 111.779 30.2573C111.354 30.841 110.475 32.3624 111.086 32.9699Z" fill="white"/>
<path fill-rule="evenodd" clip-rule="evenodd" d="M161.553 32.6717C161.301 32.7123 161.078 32.8411 160.812 33.1644C158.379 36.1206 158.332 39.6996 160.183 41.7417C166.471 48.6785 185.719 35.2598 189.844 30.0683C191.186 32.6787 193.805 31.6864 195.472 29.1753C196.615 30.7542 197.747 31.2623 199.448 30.1327C200.729 29.2831 201.552 28.2431 202.602 27.2158C203.176 33.1854 209.802 31.8571 210.817 27.3207C212.955 27.9044 213.185 26.8127 215.029 25.0295C214.725 25.8189 214.314 26.7147 214.247 27.5573C214.065 29.829 216.642 31.0257 218.704 29.8808C220.069 29.1221 222.39 26.1562 223.209 24.8447C223.512 24.5242 223.108 23.0797 222.124 24.0315C221.63 24.5088 220.958 25.3346 220.302 26.0764C219.638 26.828 218.314 28.1857 217.288 28.3201C216.458 28.4279 216.265 27.6147 217.483 26.3116C217.978 25.7825 218.452 25.2422 218.865 24.6277C220.148 22.7186 218.224 21.2377 216.703 21.4435C216.081 21.5274 215.526 21.9347 214.992 22.426C214.361 23.0069 213.774 23.7445 213.229 24.3968C212.337 25.4634 211.267 26.7833 210.916 24.5956C210.611 22.6878 208.905 20.9914 206.608 21.505C205.375 21.7808 204.177 22.6682 203.237 23.6885C202.689 24.2834 202.173 24.8797 201.636 25.5963C200.871 26.6139 200.133 27.4943 199.022 28.3887C197.603 29.5294 197.534 28.9486 198.292 27.5825C198.755 26.7455 199.258 26.0834 199.64 25.2212C200.463 23.361 197.038 21.2363 195.816 24.6697C195.375 25.9085 194.848 27.0926 194.011 28.1424C192.354 30.2181 190.912 30.6828 190.986 26.5593C190.998 25.9518 191.01 25.3934 191.016 24.8265C191.032 22.8613 190.911 21.3679 188.832 20.4063C187.252 19.6757 185.086 19.8632 182.667 20.5267C180.782 21.0445 179.172 21.7822 176.957 22.6598C177.466 19.7582 179.886 16.7475 180.015 14.1567C179.344 14.1245 178.677 14.1049 178.004 14.0867C179.988 12.5079 185.617 10.3761 189.906 9.21161C191.22 8.85469 195.228 7.76713 196.151 9.07164C197.05 10.344 193.411 12.764 192.382 13.4485C191.527 14.0167 190.698 14.585 190.298 14.9713C189.528 15.7159 189.666 16.6061 190.914 17.8827C191.669 18.6553 191.853 18.4971 192.524 17.8827C194.891 16.0505 201.664 11.6667 198.736 7.95469C196.6 5.2463 191.052 5.95454 186.351 7.19046C182.053 8.32001 177.235 10.1452 173.284 12.1593C170.345 13.657 167.607 15.1533 164.698 17.11C162.953 18.283 161.311 19.5343 160.365 20.7184C158.972 22.461 159.147 23.5948 160.876 26.3522C163.383 22.517 167.342 19.4713 171.331 17.278C173.081 16.3164 174.682 15.5298 176.606 14.5948C175.56 17.3774 174.217 20.0032 172.807 22.622C172.226 23.7025 171.577 24.6081 170.316 25.5123C169.73 25.9323 169.143 26.334 168.501 26.7245C168.203 26.905 168.014 26.9764 167.902 27.059C167.613 27.2759 167.809 29.6204 168.67 29.3503C169.078 29.2215 169.878 28.5469 170.595 28.2431C169.787 31.6472 169.969 36.1038 172.725 29.9815C173.652 27.9226 174.552 26.5089 177.03 25.3724C178.289 24.7943 179.539 24.2372 180.847 23.7137C182.119 23.2043 183.521 22.6374 184.583 22.3896C186.228 22.0047 187.685 22.1937 188.446 22.9453C190.105 24.5843 187.647 27.9212 186.43 29.2467C181.888 34.1918 171.166 40.6751 166.883 41.1622C164.259 41.7487 160.689 41.5443 162.005 37.3663C162.419 36.0506 163.348 34.6551 164.085 33.317C164.345 32.8439 164.271 32.7081 163.989 32.6829C163.723 32.6577 161.741 32.6409 161.553 32.6717ZM206.19 25.2324C205.485 25.991 204.956 27.1038 204.965 27.9744C204.982 29.4413 206.798 29.752 207.404 28.6056C207.674 28.0934 207.683 27.3767 207.344 26.7399C207.047 26.1884 206.582 25.6775 206.19 25.2324Z" fill="white"/>
</svg>
