<svg width="328" height="322" viewBox="0 0 328 322" fill="none" xmlns="http://www.w3.org/2000/svg">
<rect width="328" height="322" rx="6" fill="#FF553E"/>
<g clip-path="url(#clip0)">
<path d="M225.875 42C225.875 30.4008 216.474 21 204.875 21C193.276 21 183.875 30.4008 183.875 42C183.875 52.4836 191.553 61.1707 201.594 62.7457V48.0703H196.262V42H201.594V37.3734C201.594 32.1111 204.727 29.2031 209.526 29.2031C211.823 29.2031 214.227 29.6133 214.227 29.6133V34.7812H211.577C208.968 34.7812 208.156 36.4014 208.156 38.0625V42H213.98L213.049 48.0703H208.156V62.7457C218.197 61.1707 225.875 52.4836 225.875 42Z" fill="#FF6D59"/>
</g>
<path fill-rule="evenodd" clip-rule="evenodd" d="M204.875 105C193.277 105 183.875 114.402 183.875 126C183.875 137.598 193.277 147 204.875 147C216.473 147 225.875 137.598 225.875 126C225.875 114.402 216.473 105 204.875 105ZM200.258 114.868C201.453 114.813 201.834 114.8 204.876 114.8H204.873C207.915 114.8 208.296 114.813 209.49 114.868C210.683 114.922 211.497 115.111 212.211 115.388C212.948 115.674 213.571 116.057 214.194 116.68C214.817 117.302 215.2 117.927 215.487 118.664C215.762 119.376 215.951 120.19 216.007 121.382C216.061 122.577 216.075 122.958 216.075 126C216.075 129.042 216.061 129.423 216.007 130.617C215.951 131.809 215.762 132.623 215.487 133.336C215.2 134.072 214.817 134.697 214.194 135.32C213.572 135.943 212.948 136.326 212.212 136.612C211.499 136.889 210.684 137.078 209.492 137.133C208.297 137.187 207.917 137.2 204.875 137.2C201.833 137.2 201.452 137.187 200.257 137.133C199.065 137.078 198.251 136.889 197.538 136.612C196.802 136.326 196.177 135.943 195.555 135.32C194.932 134.697 194.549 134.072 194.263 133.335C193.986 132.623 193.797 131.809 193.743 130.617C193.689 129.422 193.675 129.042 193.675 126C193.675 122.958 193.689 122.576 193.742 121.382C193.796 120.19 193.985 119.376 194.263 118.663C194.55 117.927 194.932 117.302 195.555 116.68C196.178 116.057 196.803 115.674 197.539 115.388C198.252 115.111 199.065 114.922 200.258 114.868Z" fill="#FF6D59"/>
<path fill-rule="evenodd" clip-rule="evenodd" d="M203.871 116.818C204.066 116.818 204.276 116.818 204.503 116.818L204.876 116.818C207.867 116.818 208.221 116.829 209.402 116.883C210.494 116.933 211.087 117.115 211.481 117.269C212.004 117.472 212.377 117.714 212.768 118.106C213.16 118.498 213.403 118.872 213.607 119.394C213.76 119.789 213.943 120.381 213.992 121.473C214.046 122.654 214.058 123.009 214.058 125.998C214.058 128.987 214.046 129.341 213.992 130.522C213.942 131.614 213.76 132.207 213.607 132.601C213.404 133.124 213.16 133.496 212.768 133.888C212.376 134.28 212.004 134.522 211.481 134.725C211.087 134.879 210.494 135.061 209.402 135.111C208.221 135.165 207.867 135.177 204.876 135.177C201.885 135.177 201.531 135.165 200.35 135.111C199.258 135.061 198.666 134.878 198.271 134.725C197.748 134.522 197.375 134.279 196.983 133.887C196.591 133.495 196.348 133.123 196.144 132.6C195.991 132.206 195.808 131.613 195.759 130.521C195.705 129.34 195.694 128.986 195.694 125.995C195.694 123.004 195.705 122.651 195.759 121.47C195.809 120.378 195.991 119.786 196.144 119.391C196.347 118.868 196.591 118.495 196.983 118.103C197.375 117.711 197.748 117.468 198.271 117.265C198.665 117.111 199.258 116.929 200.35 116.879C201.384 116.832 201.784 116.818 203.871 116.816V116.818ZM210.855 118.678C210.113 118.678 209.511 119.279 209.511 120.022C209.511 120.764 210.113 121.366 210.855 121.366C211.597 121.366 212.199 120.764 212.199 120.022C212.199 119.28 211.597 118.678 210.855 118.678V118.678ZM199.124 126C199.124 122.824 201.7 120.249 204.876 120.248C208.052 120.248 210.627 122.824 210.627 126C210.627 129.177 208.053 131.751 204.876 131.751C201.7 131.751 199.124 129.177 199.124 126Z" fill="#FF6D59"/>
<path d="M204.876 122.267C206.938 122.267 208.609 123.938 208.609 126C208.609 128.062 206.938 129.734 204.876 129.734C202.814 129.734 201.143 128.062 201.143 126C201.143 123.938 202.814 122.267 204.876 122.267V122.267Z" fill="#FF6D59"/>
<path fill-rule="evenodd" clip-rule="evenodd" d="M106 42C106 30.402 115.402 21 127 21C138.598 21 148 30.402 148 42C148 53.598 138.598 63 127 63C115.402 63 106 53.598 106 42ZM126.986 42.3371C130.082 42.3371 132.6 39.907 132.6 36.9194C132.6 33.9308 130.082 31.5 126.986 31.5C123.89 31.5 121.372 33.9308 121.372 36.9194C121.372 39.907 123.89 42.3371 126.986 42.3371ZM132.531 45.4571C131.516 46.0725 130.414 46.509 129.271 46.7603L132.41 49.79C133.053 50.4093 133.053 51.4151 132.41 52.035C131.768 52.655 130.727 52.655 130.085 52.035L126.999 49.0578L123.917 52.035C123.595 52.3447 123.174 52.4997 122.753 52.4997C122.332 52.4997 121.912 52.3447 121.59 52.035C120.948 51.4151 120.948 50.4099 121.589 49.79L124.728 46.7603C123.585 46.509 122.483 46.0719 121.468 45.4571C120.7 44.9896 120.469 44.01 120.953 43.2679C121.436 42.5247 122.451 42.301 123.221 42.7685C125.519 44.1641 128.479 44.1644 130.779 42.7685C131.549 42.301 132.563 42.5247 133.047 43.2679C133.531 44.0094 133.3 44.9896 132.531 45.4571Z" fill="#FF6D59"/>
<path d="M126.986 34.676C128.268 34.676 129.31 35.6821 129.31 36.9195C129.31 38.1558 128.268 39.1626 126.986 39.1626C125.705 39.1626 124.661 38.1558 124.661 36.9195C124.661 35.6821 125.705 34.676 126.986 34.676V34.676Z" fill="#FF6D59"/>
<path fill-rule="evenodd" clip-rule="evenodd" d="M261.75 42C261.75 53.598 271.152 63 282.75 63C294.348 63 303.75 53.598 303.75 42C303.75 30.402 294.348 21 282.75 21C271.152 21 261.75 30.402 261.75 42ZM278.9 51.625L279.257 46.272L279.257 46.2718L288.995 37.4841C289.422 37.1048 288.901 36.9199 288.334 37.2639L276.316 44.8458L271.125 43.2256C270.004 42.8823 269.996 42.112 271.377 41.5582L291.605 33.7583C292.529 33.3388 293.421 33.9802 293.068 35.3942L289.623 51.6277C289.383 52.7813 288.686 53.0572 287.72 52.5243L282.472 48.6473L279.95 51.1C279.942 51.1077 279.934 51.1154 279.926 51.1231C279.644 51.3978 279.411 51.625 278.9 51.625Z" fill="#FF6D59"/>
<path fill-rule="evenodd" clip-rule="evenodd" d="M282.75 105C271.152 105 261.75 114.402 261.75 126C261.75 137.598 271.152 147 282.75 147C294.348 147 303.75 137.598 303.75 126C303.75 114.402 294.348 105 282.75 105ZM282.165 122.796L282.121 122.069C281.989 120.186 283.149 118.465 284.985 117.798C285.661 117.561 286.807 117.531 287.556 117.739C287.85 117.828 288.408 118.124 288.805 118.391L289.524 118.881L290.318 118.629C290.758 118.495 291.346 118.273 291.61 118.124C291.86 117.991 292.08 117.917 292.08 117.961C292.08 118.213 291.537 119.074 291.081 119.548C290.464 120.215 290.641 120.275 291.889 119.83C292.638 119.578 292.653 119.578 292.506 119.859C292.418 120.008 291.963 120.527 291.478 121.001C290.655 121.817 290.611 121.906 290.611 122.588C290.611 123.641 290.112 125.836 289.612 127.037C288.687 129.291 286.704 131.619 284.721 132.791C281.93 134.437 278.214 134.852 275.085 133.888C274.042 133.562 272.25 132.732 272.25 132.583C272.25 132.539 272.793 132.479 273.455 132.465C274.835 132.435 276.216 132.049 277.391 131.367L278.184 130.893L277.274 130.581C275.981 130.136 274.821 129.113 274.527 128.149C274.439 127.838 274.468 127.823 275.291 127.823L276.143 127.808L275.423 127.467C274.571 127.037 273.792 126.31 273.41 125.569C273.131 125.035 272.779 123.685 272.882 123.582C272.911 123.537 273.219 123.626 273.572 123.745C274.586 124.116 274.718 124.027 274.13 123.404C273.029 122.277 272.691 120.601 273.219 119.014L273.469 118.302L274.439 119.266C276.422 121.209 278.757 122.366 281.431 122.707L282.165 122.796Z" fill="#FF6D59"/>
<path fill-rule="evenodd" clip-rule="evenodd" d="M49 108C37.402 108 28 117.402 28 129C28 140.598 37.402 150 49 150C60.598 150 70 140.598 70 129C70 117.402 60.598 108 49 108ZM50.7098 135.629C50.5028 135.847 50.0985 135.892 50.0985 135.892H48.7597C48.7597 135.892 45.806 136.066 43.204 133.407C40.3664 130.507 37.8608 124.752 37.8608 124.752C37.8608 124.752 37.7162 124.375 37.8729 124.193C38.0493 123.988 38.5302 123.975 38.5302 123.975L41.7304 123.954C41.7304 123.954 42.0317 124.003 42.2475 124.159C42.4261 124.288 42.5258 124.528 42.5258 124.528C42.5258 124.528 43.0429 125.812 43.7277 126.973C45.0654 129.241 45.6877 129.737 46.1413 129.494C46.803 129.14 46.6047 126.288 46.6047 126.288C46.6047 126.288 46.6167 125.253 46.2716 124.792C46.0043 124.435 45.5003 124.331 45.2779 124.302C45.0972 124.278 45.393 123.867 45.7764 123.683C46.3527 123.407 47.3694 123.391 48.5713 123.403C49.508 123.412 49.7775 123.469 50.1434 123.556C50.9927 123.758 50.9662 124.402 50.909 125.794C50.8918 126.21 50.872 126.693 50.872 127.251C50.872 127.376 50.8683 127.51 50.8644 127.647C50.8446 128.36 50.8218 129.176 51.3004 129.48C51.5458 129.635 52.1451 129.502 53.6449 127.003C54.3559 125.818 54.8884 124.425 54.8884 124.425C54.8884 124.425 55.0056 124.177 55.1864 124.071C55.3716 123.962 55.6213 123.995 55.6213 123.995L58.9892 123.975C58.9892 123.975 60.0015 123.855 60.1647 124.305C60.3367 124.775 59.7868 125.874 58.4107 127.674C57.1054 129.382 56.4702 130.011 56.5285 130.568C56.5711 130.974 56.984 131.342 57.7764 132.063C59.4305 133.571 59.8738 134.364 59.9803 134.554C59.9892 134.57 59.9957 134.582 60.0004 134.589C60.7421 135.797 59.1776 135.892 59.1776 135.892L56.1856 135.932C56.1856 135.932 55.5436 136.057 54.6978 135.487C54.2547 135.189 53.8218 134.702 53.4094 134.238C52.7797 133.529 52.1979 132.874 51.7013 133.029C50.8676 133.289 50.8928 135.052 50.8928 135.052C50.8928 135.052 50.8994 135.429 50.7098 135.629Z" fill="#FF6D59"/>
<path fill-rule="evenodd" clip-rule="evenodd" d="M127 107C115.402 107 106 116.402 106 128C106 139.598 115.402 149 127 149C138.598 149 148 139.598 148 128C148 116.402 138.598 107 127 107ZM135.751 120.781C136.715 121.045 137.474 121.824 137.732 122.814C138.2 124.608 138.2 128.35 138.2 128.35C138.2 128.35 138.2 132.092 137.732 133.886C137.474 134.876 136.715 135.655 135.751 135.919C134.005 136.4 127 136.4 127 136.4C127 136.4 119.995 136.4 118.248 135.919C117.285 135.655 116.526 134.876 116.268 133.886C115.8 132.092 115.8 128.35 115.8 128.35C115.8 128.35 115.8 124.608 116.268 122.814C116.526 121.824 117.285 121.045 118.248 120.781C119.995 120.3 127 120.3 127 120.3C127 120.3 134.005 120.3 135.751 120.781Z" fill="#FF6D59"/>
<path d="M124.9 132.2V125.2L130.5 128.7L124.9 132.2Z" fill="#FF6D59"/>
<defs>
<clipPath id="clip0">
<rect width="42" height="42" fill="white" transform="translate(183.875 21)"/>
</clipPath>
</defs>
</svg>
