<svg width="25" height="25" viewBox="0 0 25 25" fill="none" xmlns="http://www.w3.org/2000/svg">
<g clip-path="url(#clip0)">
<path d="M17.1218 9.42009L17.1225 9.42019L22.761 10.2395L18.6817 14.2162L18.6809 14.2169C18.0262 14.8559 17.7223 15.7782 17.8783 16.6873L18.8409 22.3011L13.7993 19.6505L13.7928 19.6471C12.9923 19.23 12.0153 19.2236 11.203 19.6495L11.2009 19.6505L6.15928 22.3014L7.12143 16.6879C7.12148 16.6876 7.12154 16.6873 7.12159 16.687C7.27744 15.7785 6.97353 14.8558 6.3189 14.2169L6.31807 14.2161L2.23887 10.24L7.87735 9.42069L7.87798 9.42059C8.78372 9.28869 9.57168 8.72037 9.97949 7.8935C9.97958 7.89332 9.97967 7.89314 9.97975 7.89296C9.97989 7.89268 9.98004 7.89239 9.98018 7.89211L12.5004 2.78502L15.0201 7.8916C15.0202 7.89173 15.0203 7.89185 15.0203 7.89197C15.0205 7.89229 15.0206 7.89261 15.0208 7.89294C15.4278 8.71827 16.2143 9.28794 17.1218 9.42009Z" fill="#FF553E" stroke="#FF553E" stroke-width="4"/>
</g>
<defs>
<clipPath id="clip0">
<rect width="25" height="25" fill="white"/>
</clipPath>
</defs>
</svg>
