<svg width="952" height="952" viewBox="0 0 952 952" fill="none" xmlns="http://www.w3.org/2000/svg">
<path d="M951.175 23.2529V12.2289L917.342 3.86579L916.582 0.824677L905.558 0.824677L908.599 12.609L951.175 23.2529Z" fill="#FF553E"/>
<path d="M920.764 62.7874L933.309 112.586L951.175 117.147V106.123L941.672 103.842L929.507 54.0442L879.709 41.4996L869.445 0.824615L858.421 0.824615L870.585 50.2428L920.764 62.7874Z" fill="#FF553E"/>
<path d="M939.391 43.7805L951.175 91.2979V47.5819L948.134 35.0372L898.336 22.4926L892.633 0.824677L881.99 0.824677L889.592 31.2358L939.391 43.7805Z" fill="#FF553E"/>
<path d="M820.784 38.0784L832.948 87.8767L883.126 100.421L895.291 150.22L945.469 162.764L951.171 186.333V153.261L904.034 141.476L891.87 91.6781L841.691 79.1335L829.527 29.3352L779.348 16.7906L775.547 0.824707L764.523 0.824707L770.605 25.5338L820.784 38.0784Z" fill="#FF553E"/>
<path d="M839.41 19.0714L851.575 68.8697L901.753 81.4143L913.918 131.213L951.171 140.336V129.692L922.661 122.469L910.497 72.6711L860.698 60.1265L848.154 10.3282L810.14 0.824677L788.092 0.824677L789.612 6.52677L839.41 19.0714Z" fill="#FF553E"/>
<path d="M720.428 13.3693L732.973 63.1676L783.151 75.7122L795.315 125.51L845.114 138.055L857.658 187.853L907.457 200.398L920.001 250.196L951.173 258.179V247.155L928.744 241.453L916.2 191.655L866.402 179.11L853.857 129.312L804.059 116.767L791.514 66.969L741.716 54.4244L729.551 4.62607L713.966 0.824677L670.63 0.824677L720.428 13.3693Z" fill="#FF553E"/>
<path d="M801.777 56.7052L813.941 106.503L864.12 119.048L876.284 168.846L926.082 181.391L938.627 231.189L951.172 234.23V223.586L947.37 222.446L934.826 172.648L885.027 160.103L872.483 110.305L822.684 97.7602L810.52 47.9619L760.341 35.4173L751.598 0.824615L740.954 0.824615L751.598 44.1605L801.777 56.7052Z" fill="#FF553E"/>
<path d="M682.794 51.0031L695.339 101.182L745.137 113.346L757.682 163.524L807.48 175.689L820.025 225.487L869.823 238.032L882.368 287.83L932.166 300.375L944.711 350.173L951.173 352.074V332.687L940.909 291.632L891.111 279.087L878.566 229.289L828.768 216.744L816.223 166.946L766.425 154.781L753.88 104.603L704.082 92.4383L691.537 42.2599L641.739 30.0954L634.517 0.824677L623.492 0.824677L632.996 38.8386L682.794 51.0031Z" fill="#FF553E"/>
<path d="M701.421 31.9961L713.966 82.1745L763.764 94.339L776.309 144.137L826.107 156.682L838.651 206.48L888.45 219.025L900.994 268.823L950.793 281.368L951.173 282.508V270.724L909.738 260.08L897.193 210.282L847.395 197.737L834.85 147.939L785.052 135.394L772.507 85.5958L722.709 73.0512L710.544 23.2529L660.366 11.0884L658.085 0.824615L647.061 0.824615L651.623 19.8316L701.421 31.9961Z" fill="#FF553E"/>
<path d="M582.819 26.6742L595.363 76.4725L645.162 88.637L657.706 138.815L707.505 150.98L720.049 201.158L769.847 213.323L782.392 263.501L832.19 275.666L844.735 325.464L894.533 338.009L907.078 387.807L951.174 398.831V388.187L915.821 379.444L903.276 329.265L853.478 316.721L840.934 266.922L791.135 254.758L778.591 204.58L728.792 192.415L716.248 142.237L666.449 130.072L653.905 79.8938L604.107 67.7293L591.562 17.931L541.764 5.38638L540.623 0.824707L529.599 0.824707L533.02 14.1296L582.819 26.6742Z" fill="#FF553E"/>
<path d="M613.988 57.4655L663.786 69.63L676.331 119.808L726.129 131.973L738.674 182.151L788.472 194.316L801.017 244.114L850.815 256.659L863.36 306.457L913.158 319.002L925.702 368.8L951.172 375.262V364.238L934.446 360.057L921.901 310.258L872.103 297.714L859.558 247.915L809.76 235.371L797.215 185.573L747.417 173.408L734.872 123.23L685.074 111.065L672.529 60.8867L622.731 48.7223L610.947 0.824677L574.834 0.824677L601.443 7.28705L613.988 57.4655Z" fill="#FF553E"/>
<path d="M495.383 51.7634L545.182 64.308L557.726 114.106L607.524 126.651L620.069 176.449L669.867 188.994L682.412 238.792L732.21 250.957L744.755 301.135L794.553 313.3L807.098 363.478L856.896 375.642L869.441 425.821L919.239 437.985L931.403 488.164L951.171 492.725V482.082L940.527 479.421L927.982 429.242L878.184 417.078L865.639 366.899L815.841 354.735L803.296 304.936L753.498 292.392L740.953 242.213L691.155 230.049L678.611 180.251L628.812 167.706L616.268 117.908L566.469 105.363L553.925 55.5648L504.126 43.0202L493.483 0.824677L478.657 0.824677L482.839 1.9651L495.383 51.7634Z" fill="#FF553E"/>
<path d="M563.812 45.301L576.357 95.0993L626.155 107.644L638.699 157.442L688.498 169.987L701.042 219.785L750.841 231.95L763.385 282.128L813.184 294.292L825.728 344.471L875.526 356.635L888.071 406.814L937.869 418.978L950.414 468.777L951.174 469.157V428.862L946.613 410.235L896.814 398.071L884.27 347.892L834.471 335.728L821.927 285.549L772.128 273.385L759.584 223.206L709.786 211.042L697.241 161.244L647.443 148.699L634.898 98.9007L585.1 86.3561L572.555 36.5578L522.757 24.0132L517.055 0.824677L506.031 0.824677L514.014 32.7564L563.812 45.301Z" fill="#FF553E"/>
<path d="M445.205 39.5989L457.75 89.3972L507.548 101.942L520.093 151.74L569.891 164.285L582.436 214.083L632.234 226.628L644.779 276.426L694.577 288.971L707.122 338.769L756.92 351.313L769.084 401.112L819.263 413.656L831.427 463.455L881.606 475.999L894.15 525.798L943.949 537.962L951.171 567.613V528.839L902.513 517.054L890.349 466.876L840.171 454.711L828.006 404.913L778.208 392.369L765.663 342.57L715.865 330.026L703.32 280.227L653.522 267.683L640.977 217.884L591.179 205.34L578.634 155.542L528.836 142.997L516.292 93.1986L466.493 80.654L453.949 30.8557L404.15 18.3111L399.589 0.824646L388.945 0.824646L395.407 27.0543L445.205 39.5989Z" fill="#FF553E"/>
<path d="M463.832 20.5919L476.376 70.3902L526.175 82.9348L538.719 132.733L588.518 145.278L601.062 195.076L650.86 207.621L663.405 257.419L713.203 269.964L725.748 319.762L775.546 332.306L788.091 382.105L837.889 394.269L850.434 444.448L900.232 456.612L912.396 506.791L951.171 516.294V505.27L921.14 498.047L908.975 447.869L859.177 435.704L846.632 385.526L796.834 373.362L784.289 323.563L734.491 311.019L721.946 261.22L672.148 248.676L659.604 198.877L609.805 186.333L597.261 136.534L547.462 123.99L534.918 74.1916L485.12 61.647L472.575 11.8487L428.859 0.824615L412.133 0.824615L414.033 8.04727L463.832 20.5919Z" fill="#FF553E"/>
<path d="M345.23 14.8898L357.774 64.6881L407.573 77.2327L420.117 127.031L469.916 139.576L482.46 189.374L532.258 201.919L544.423 251.717L594.601 264.261L607.146 314.06L656.944 326.604L669.109 376.403L719.287 388.947L731.452 438.746L781.63 451.29L793.795 501.088L843.593 513.253L856.137 563.431L906.316 575.976L918.48 625.774L951.172 633.757V622.733L927.224 617.031L914.679 566.853L864.881 554.688L852.716 504.89L802.538 492.345L790.373 442.547L740.195 430.002L728.03 380.204L677.852 367.659L665.687 317.861L615.509 305.317L603.345 255.518L553.546 242.974L541.002 193.175L491.203 180.631L478.659 130.832L428.86 118.288L416.316 68.4895L366.518 55.9449L353.973 6.1466L332.305 0.824646L295.051 0.824646L295.431 2.3452L345.23 14.8898Z" fill="#FF553E"/>
<path d="M426.198 58.2258L438.743 108.024L488.541 120.569L501.086 170.367L550.884 182.912L563.429 232.71L613.227 245.255L625.772 295.053L675.57 307.597L688.114 357.396L737.913 369.94L750.077 419.739L800.256 432.283L812.42 482.082L862.598 494.626L874.763 544.424L924.941 556.589L937.106 606.767L951.171 610.189V599.165L945.849 598.024L933.304 547.846L883.506 535.681L871.342 485.883L821.163 473.338L808.999 423.54L759.201 410.995L746.656 361.197L696.477 348.653L684.313 298.854L634.515 286.31L621.97 236.511L572.172 223.967L559.627 174.168L509.829 161.624L497.284 111.826L447.486 99.2809L434.941 49.4826L385.143 36.938L376.02 0.824707L364.996 0.824707L376.4 45.6812L426.198 58.2258Z" fill="#FF553E"/>
<path d="M307.596 52.5237L320.141 102.322L369.939 114.867L382.484 164.665L432.282 177.21L444.447 227.008L494.625 239.552L506.79 289.351L556.968 301.895L569.132 351.694L619.311 364.238L631.475 414.037L681.654 426.581L693.818 476.379L743.617 488.924L756.161 538.722L805.959 551.267L818.504 601.065L868.302 613.61L880.847 663.408L930.645 675.953L943.19 725.751L951.173 727.652V713.967L939.388 667.21L889.59 654.665L877.046 604.867L827.247 592.322L814.703 542.524L764.904 529.979L752.36 480.181L702.561 467.636L690.017 417.838L640.219 405.293L628.054 355.495L577.876 342.95L565.711 293.152L515.533 280.607L503.368 230.809L453.19 218.265L441.025 168.466L391.227 155.922L378.682 106.123L328.884 93.5788L316.34 43.7805L266.541 31.2359L258.938 0.824707L247.914 0.824707L257.798 39.9791L307.596 52.5237Z" fill="#FF553E"/>
<path d="M326.223 33.5167L338.767 83.315L388.565 95.8596L401.11 145.658L450.908 158.203L463.453 208.001L513.251 220.545L525.796 270.344L575.594 282.888L587.759 332.687L637.937 345.231L650.102 395.03L700.28 407.574L712.444 457.372L762.623 469.917L774.787 519.715L824.966 532.26L837.13 582.058L886.929 594.603L899.473 644.401L949.272 656.566L951.172 663.788V646.302L908.216 635.658L895.672 585.86L845.874 573.315L833.709 523.517L783.531 510.972L770.986 461.174L721.188 448.629L709.023 398.831L658.845 386.286L646.68 336.488L596.502 323.943L584.337 274.145L534.159 261.601L521.995 211.802L472.196 199.258L459.652 149.459L409.853 136.915L397.309 87.1164L347.51 74.5718L334.966 24.7735L285.167 12.2289L282.126 0.824677L271.102 0.824677L276.424 20.9721L326.223 33.5167Z" fill="#FF553E"/>
<path d="M207.621 27.8146L220.165 77.993L269.964 90.1575L282.128 140.336L332.307 152.5L344.471 202.299L394.649 214.843L406.814 264.642L456.992 277.186L469.157 326.984L519.335 339.529L531.5 389.327L581.298 401.872L593.843 451.67L643.641 464.215L656.186 514.013L705.984 526.558L718.528 576.356L768.327 588.901L780.871 638.699L830.67 651.244L843.214 701.042L893.013 713.587L905.557 763.385L951.174 774.789V763.765L914.3 754.642L901.756 704.843L851.957 692.299L839.413 642.5L789.615 629.956L777.07 580.158L727.272 567.613L714.727 517.815L664.929 505.27L652.384 455.472L602.586 442.927L590.041 393.129L540.243 380.584L527.698 330.786L477.9 318.241L465.736 268.443L415.557 255.898L403.393 206.1L353.214 193.936L341.05 143.757L290.871 131.593L278.707 81.4143L228.528 69.2498L216.364 19.0714L166.566 6.90691L165.045 0.824677L154.021 0.824677L157.822 15.6501L207.621 27.8146Z" fill="#FF553E"/>
<path d="M238.789 58.9861L288.587 71.1506L301.132 121.329L350.93 133.493L363.475 183.292L413.273 195.836L425.438 245.635L475.616 258.179L487.781 307.978L537.959 320.522L550.123 370.32L599.922 382.865L612.466 432.663L662.265 445.208L674.809 495.006L724.608 507.551L737.152 557.349L786.95 569.894L799.495 619.692L849.293 632.237L861.838 682.035L911.636 694.58L924.181 744.378L951.171 751.22V740.196L932.924 735.635L920.379 685.836L870.581 673.292L858.037 623.493L808.238 610.949L795.694 561.151L745.895 548.606L733.351 498.808L683.552 486.263L671.008 436.465L621.21 423.92L608.665 374.122L558.867 361.577L546.702 311.779L496.524 299.234L484.359 249.436L434.181 236.891L422.016 187.093L372.218 174.929L359.673 124.75L309.875 112.586L297.331 62.4073L247.532 50.2429L234.988 0.824707L193.552 0.824707L226.244 8.80764L238.789 58.9861Z" fill="#FF553E"/>
<path d="M119.809 53.2839L169.987 65.8285L182.152 115.627L232.33 128.171L244.494 177.97L294.673 190.134L306.837 240.313L357.016 252.477L369.18 302.656L418.979 314.82L431.523 364.998L481.322 377.163L493.866 426.961L543.664 439.506L556.209 489.304L606.007 501.849L618.552 551.647L668.35 564.192L680.895 613.99L730.693 626.535L743.238 676.333L793.036 688.878L805.581 738.676L855.379 751.22L867.924 801.019L917.722 813.563L930.266 863.362L951.174 868.684V857.66L939.01 854.618L926.465 804.82L876.667 792.275L864.122 742.477L814.324 729.933L801.779 680.134L751.981 667.59L739.436 617.791L689.638 605.247L677.094 555.448L627.295 542.904L614.751 493.106L564.952 480.561L552.408 430.763L502.609 418.598L490.065 368.42L440.266 356.255L427.722 306.077L377.924 293.912L365.759 243.734L315.581 231.569L303.416 181.391L253.238 169.227L241.073 119.428L190.895 106.884L178.73 57.0853L128.552 44.5407L117.908 0.824646L97.3804 0.824646L107.644 3.48562L119.809 53.2839Z" fill="#FF553E"/>
<path d="M188.614 46.8216L201.158 96.6199L250.957 108.784L263.121 158.963L313.3 171.127L325.464 221.306L375.643 233.47L387.807 283.649L437.986 295.813L450.15 345.611L499.948 358.156L512.493 407.954L562.291 420.499L574.836 470.297L624.634 482.842L637.179 532.64L686.977 545.185L699.522 594.983L749.32 607.528L761.865 657.326L811.663 669.871L824.207 719.669L874.006 732.213L886.55 782.012L936.349 794.556L948.893 844.355L951.174 845.115V810.142L945.092 785.813L895.294 773.269L882.749 723.47L832.951 710.926L820.406 661.127L770.608 648.583L758.063 598.784L708.265 586.24L695.72 536.442L645.922 523.897L633.377 474.099L583.579 461.554L571.034 411.756L521.236 399.211L508.691 349.413L458.893 337.248L446.729 287.07L396.55 274.905L384.386 224.727L334.207 212.563L322.043 162.384L271.864 150.22L259.7 100.041L209.522 87.8767L197.357 38.0784L147.559 25.5338L141.096 0.824707L130.453 0.824707L138.816 34.277L188.614 46.8216Z" fill="#FF553E"/>
<path d="M70.0069 41.1194L82.1714 90.9177L132.35 103.462L144.514 153.261L194.313 165.805L206.857 215.604L256.655 228.148L269.2 277.946L318.998 290.111L331.543 340.289L381.341 352.454L393.886 402.632L443.684 414.797L456.229 464.975L506.027 477.14L518.572 527.318L568.37 539.483L580.915 589.281L630.713 601.825L643.258 651.624L693.056 664.168L705.6 713.967L755.399 726.511L767.943 776.309L817.742 788.854L830.286 838.652L880.084 851.197L892.629 900.995L942.427 913.54L951.171 949.273V905.177V904.797L901.372 892.252L888.828 842.454L839.029 829.909L826.485 780.111L776.687 767.566L764.142 717.768L714.344 705.223L701.799 655.425L652.001 642.88L639.456 593.082L589.658 580.538L577.113 530.739L527.315 518.575L514.77 468.396L464.972 456.232L452.427 406.053L402.629 393.889L390.085 343.711L340.286 331.546L327.742 281.748L277.943 269.203L265.399 219.405L215.6 206.86L203.056 157.062L153.258 144.517L141.093 94.7191L90.9146 82.1745L78.7501 32.3762L28.5717 19.8316L24.01 0.824615L12.986 0.824615L19.8285 28.5748L70.0069 41.1194Z" fill="#FF553E"/>
<path d="M88.6337 22.1125L100.798 71.9108L150.977 84.4554L163.141 134.254L213.32 146.798L225.484 196.597L275.662 209.141L287.827 258.94L337.625 271.104L350.17 321.282L399.968 333.447L412.513 383.625L462.311 395.79L474.856 445.968L524.654 458.133L537.198 507.931L586.997 520.476L599.541 570.274L649.34 582.819L661.884 632.617L711.683 645.162L724.227 694.96L774.025 707.504L786.57 757.303L836.368 769.847L848.913 819.646L898.711 832.19L911.256 881.989L951.171 891.872V881.228L919.999 873.245L907.455 823.447L857.656 810.902L845.112 761.104L795.313 748.559L782.769 698.761L732.97 686.217L720.426 636.418L670.628 623.874L658.083 574.075L608.285 561.911L595.74 511.732L545.942 499.188L533.397 449.39L483.599 437.225L471.054 387.047L421.256 374.882L408.711 324.704L358.913 312.539L346.368 262.361L296.57 250.196L284.025 200.398L234.227 187.853L221.683 138.055L171.884 125.511L159.72 75.7122L109.541 63.1676L97.3769 13.3693L47.1985 0.824707L36.5546 0.824707L38.4553 9.56792L88.6337 22.1125Z" fill="#FF553E"/>
<path d="M863.36 929.886L851.196 880.088L801.017 867.543L788.853 817.745L738.675 805.2L726.51 755.402L676.712 743.238L664.167 693.059L614.369 680.895L601.824 630.716L552.026 618.552L539.481 568.373L489.683 556.209L477.139 506.03L427.34 493.866L414.796 444.068L364.997 431.523L352.453 381.725L302.654 369.18L290.11 319.382L240.312 306.837L227.767 257.039L177.969 244.494L165.424 194.696L115.626 182.151L103.081 132.353L53.2828 119.808L40.7382 70.0101L0.823547 60.1265L0.823547 70.7704L31.995 78.7533L44.5396 128.552L94.3379 141.096L106.883 190.895L156.681 203.439L169.225 253.237L219.024 265.782L231.568 315.58L281.367 328.125L293.911 377.923L343.71 390.468L356.254 440.266L406.052 452.811L418.597 502.609L468.395 514.774L480.94 564.952L530.738 577.116L543.283 627.295L593.081 639.459L605.626 689.638L655.424 701.802L667.969 751.601L717.767 764.145L729.931 813.944L780.11 826.488L792.274 876.286L842.453 888.831L854.617 938.629L904.796 951.174H915.44L913.539 942.431L863.36 929.886Z" fill="#FF553E"/>
<path d="M881.987 910.879L869.823 861.081L819.645 848.536L807.48 798.738L757.682 786.193L745.137 736.395L695.339 723.85L682.794 674.052L632.996 661.507L620.451 611.709L570.653 599.545L558.108 549.366L508.31 536.822L495.766 487.023L445.967 474.859L433.423 424.68L383.624 412.516L371.08 362.718L321.281 350.173L308.737 300.375L258.938 287.83L246.394 238.032L196.596 225.487L184.051 175.689L134.253 163.144L122.088 113.346L71.9097 100.801L59.7453 51.0031L9.56682 38.4585L0.823608 2.72537L0.823608 46.8216V47.2017L51.0021 59.7463L63.1665 109.545L113.345 122.089L125.509 171.888L175.308 184.432L187.852 234.23L237.651 246.775L250.195 296.573L299.994 309.118L312.538 358.916L362.336 371.461L374.881 421.259L424.679 433.424L437.224 483.602L487.022 495.767L499.567 545.945L549.365 558.109L561.91 608.288L611.708 620.452L624.253 670.631L674.051 682.795L686.596 732.594L736.394 745.138L748.939 794.936L798.737 807.481L810.901 857.279L861.08 869.824L873.624 919.622L923.423 932.167L927.984 951.174H939.008L932.166 923.424L881.987 910.879Z" fill="#FF553E"/>
<path d="M763.384 905.177L751.219 855.379L701.041 843.214L688.876 793.036L638.698 780.871L626.533 730.693L576.355 718.528L564.19 668.73L514.392 656.185L501.848 606.387L452.049 593.843L439.505 544.044L389.706 531.5L377.162 481.701L327.363 469.157L314.819 419.358L265.021 406.814L252.476 357.016L202.678 344.471L190.133 294.673L140.335 282.128L127.79 232.33L77.9918 219.785L65.4472 169.987L15.6489 157.442L3.10432 107.644L0.823486 106.884L0.823486 141.856L6.90572 166.185L56.704 178.73L69.2486 228.528L119.047 241.073L131.592 290.871L181.39 303.416L193.934 353.214L243.733 365.759L256.277 415.557L306.076 428.102L318.62 477.9L368.419 490.445L380.963 540.243L430.761 552.407L443.306 602.586L493.104 615.13L505.269 664.929L555.447 677.093L567.992 727.272L617.79 739.436L629.955 789.614L680.133 801.779L692.298 851.577L742.476 864.122L754.64 914.3L804.439 926.465L810.901 951.174H821.545L813.182 917.722L763.384 905.177Z" fill="#FF553E"/>
<path d="M832.189 898.715L782.011 886.17L769.846 836.372L719.668 824.207L707.503 774.029L657.325 761.864L645.16 712.066L594.982 699.521L582.817 649.343L533.019 637.178L520.475 587L470.676 574.836L458.132 525.037L408.333 512.493L395.789 462.694L345.99 450.15L333.446 400.351L283.647 387.807L271.103 338.008L221.305 325.464L208.76 275.666L158.962 263.121L146.417 213.323L96.6187 200.778L84.0741 150.98L34.2758 138.435L21.7312 88.6368L0.823547 83.3149L0.823547 94.3389L12.988 97.38L25.5326 147.178L75.3309 159.723L87.8755 209.521L137.674 222.066L150.218 271.864L200.017 284.409L212.561 334.207L262.36 346.752L274.904 396.55L324.703 409.095L337.247 458.893L387.045 471.438L399.59 521.236L449.388 533.4L461.933 583.579L511.731 595.743L524.276 645.922L574.074 658.086L586.619 708.265L636.417 720.429L648.582 770.607L698.76 782.772L710.925 832.95L761.103 845.115L773.267 895.293L823.446 907.458L834.09 951.174H854.237L844.354 948.893L832.189 898.715Z" fill="#FF553E"/>
<path d="M713.205 893.013L663.407 880.848L650.862 830.67L601.064 818.505L588.52 768.707L538.721 756.162L526.557 706.364L476.378 693.819L464.214 644.021L414.416 631.476L401.871 581.678L352.073 569.134L339.528 519.335L289.73 506.791L277.185 456.992L227.387 444.448L214.842 394.649L165.044 382.105L152.499 332.307L102.701 319.762L90.1564 269.964L40.3581 257.419L27.8135 207.621L0.823547 200.778L0.823547 211.802L19.0703 216.364L31.6149 266.162L81.4132 278.707L93.9578 328.505L143.756 341.05L156.301 390.848L206.099 403.393L218.644 453.191L268.442 465.736L280.986 515.534L330.785 528.078L343.329 577.877L393.128 590.421L405.292 640.22L455.471 652.764L467.635 702.563L517.814 715.107L529.978 764.906L579.776 777.45L592.321 827.248L642.119 839.793L654.664 889.591L704.462 901.756L717.007 951.174H758.442L725.75 943.191L713.205 893.013Z" fill="#FF553E"/>
<path d="M744.377 923.804L732.212 874.005L682.034 861.841L669.869 811.663L619.691 799.498L607.527 749.7L557.348 737.155L545.184 686.977L495.385 674.812L482.841 625.014L433.042 612.469L420.498 562.671L370.699 550.126L358.155 500.328L308.357 487.784L295.812 437.985L246.014 425.441L233.469 375.642L183.671 363.098L171.126 313.299L121.328 300.755L108.783 250.957L58.985 238.412L46.4404 188.614L0.823608 177.209L0.823608 188.234L37.6972 197.357L50.2418 247.155L100.04 259.7L112.585 309.498L162.383 322.043L174.928 371.841L224.726 384.386L237.27 434.184L287.069 446.728L299.613 496.527L349.412 509.071L361.956 558.87L411.755 571.414L423.919 621.213L474.097 633.757L486.642 683.555L536.44 696.1L548.605 745.898L598.783 758.443L610.948 808.241L661.126 820.406L673.291 870.584L723.089 883.129L735.634 932.927L785.432 945.092L786.952 951.174H797.976L794.555 936.348L744.377 923.804Z" fill="#FF553E"/>
<path d="M625.773 918.482L613.229 868.684L563.43 856.139L550.886 806.341L501.087 793.796L488.543 743.998L438.745 731.453L426.2 681.655L376.402 669.11L364.237 619.312L314.059 606.767L301.894 556.969L251.716 544.424L239.551 494.626L189.373 482.082L177.208 432.283L127.41 419.739L114.866 369.94L65.0672 357.776L52.5226 307.597L2.72431 295.433L0.823608 288.21L0.823608 305.697L43.7794 316.341L56.324 366.139L106.122 378.684L118.667 428.482L168.465 441.026L181.01 490.825L230.808 503.369L243.353 553.168L293.151 565.712L305.696 615.511L355.494 628.055L367.658 677.854L417.837 690.398L430.001 740.196L480.18 752.741L492.344 802.539L542.143 815.084L554.687 864.882L604.485 877.427L617.03 927.225L666.828 939.39L669.869 951.174H680.513L675.572 931.027L625.773 918.482Z" fill="#FF553E"/>
<path d="M644.4 899.475L631.855 849.677L582.057 837.132L569.512 787.334L519.714 774.789L507.17 724.991L457.371 712.446L445.207 662.648L395.028 650.103L382.864 600.305L332.685 587.76L320.521 537.962L270.343 525.417L258.178 475.619L208.38 463.075L195.835 413.276L146.037 400.732L133.492 350.933L83.694 338.389L71.1494 288.59L21.3511 276.046L8.80648 226.248L0.823547 224.347L0.823547 238.032L12.6079 284.789L62.4062 297.334L74.9508 347.132L124.749 359.677L137.294 409.475L187.092 422.019L199.637 471.818L249.435 484.362L261.979 534.161L311.778 546.705L323.942 596.504L374.121 609.048L386.285 658.846L436.464 671.391L448.628 721.189L498.426 733.734L510.971 783.532L561.149 796.077L573.314 845.875L623.112 858.42L635.657 908.218L685.455 920.763L693.058 951.174H704.082L694.198 912.019L644.4 899.475Z" fill="#FF553E"/>
<path d="M525.796 893.773L513.252 843.974L463.453 831.43L450.909 781.632L401.111 769.087L388.566 719.289L338.768 706.744L326.223 656.946L276.425 644.401L264.26 594.603L214.082 582.058L201.917 532.26L151.739 519.715L139.574 469.917L89.396 457.372L77.2316 407.574L27.4333 395.41L14.8887 345.231L0.823486 341.81L0.823486 352.834L6.14544 353.974L18.3099 404.153L68.4883 416.317L80.6528 466.496L130.831 478.66L142.996 528.459L193.174 541.003L205.339 590.801L255.137 603.346L267.682 653.144L317.48 665.689L330.024 715.487L379.823 728.032L392.367 777.83L442.166 790.375L454.71 840.173L504.509 852.718L517.053 902.516L566.851 915.061L575.975 951.174H586.999L575.595 906.317L525.796 893.773Z" fill="#FF553E"/>
<path d="M606.766 937.109L594.222 887.31L544.423 874.766L531.879 824.967L482.08 812.423L469.536 762.625L419.738 750.08L407.193 700.282L357.395 687.737L345.23 637.939L295.052 625.394L282.887 575.596L232.709 563.051L220.544 513.253L170.366 500.708L158.201 450.91L108.403 438.365L95.8585 388.567L46.0602 376.403L33.5156 326.224L0.823547 318.241L0.823547 329.265L24.7724 334.967L37.317 384.766L87.1153 397.31L99.6599 447.109L149.458 459.653L162.003 509.451L211.801 521.996L223.966 571.794L274.144 584.339L286.308 634.137L336.487 646.682L348.651 696.48L398.83 709.025L410.994 758.823L460.793 771.368L473.337 821.166L523.136 833.711L535.68 883.509L585.478 896.054L598.023 945.852L619.691 951.174H656.945L656.565 949.653L606.766 937.109Z" fill="#FF553E"/>
<path d="M488.163 931.406L475.618 881.608L425.82 869.064L413.275 819.265L363.477 806.721L350.932 756.922L301.134 744.378L288.589 694.579L238.791 682.035L226.246 632.237L176.448 620.072L163.903 569.894L114.105 557.729L101.561 507.551L51.7623 495.386L39.5978 445.208L0.823547 435.704L0.823547 446.728L30.8546 453.951L43.019 504.129L93.1975 516.294L105.362 566.472L155.16 578.637L167.705 628.435L217.503 640.98L230.048 690.778L279.846 703.323L292.391 753.121L342.189 765.666L354.734 815.464L404.532 828.009L417.076 877.807L466.875 890.351L479.419 940.15L523.135 951.174H539.862L537.961 943.951L488.163 931.406Z" fill="#FF553E"/>
<path d="M506.79 912.4L494.245 862.601L444.447 850.057L431.902 800.259L382.104 787.714L369.559 737.916L319.761 725.371L307.216 675.573L257.418 663.028L244.873 613.23L195.075 600.685L182.911 550.887L132.732 538.342L120.568 488.544L70.3892 476.379L58.2247 426.201L8.04626 414.037L0.823608 384.386L0.823608 423.16L49.4815 434.944L61.646 485.123L111.824 497.287L123.989 547.466L174.167 559.63L186.332 609.428L236.13 621.973L248.675 671.771L298.473 684.316L311.018 734.114L360.816 746.659L373.36 796.457L423.159 809.002L435.703 858.8L485.502 871.345L498.046 921.143L547.845 933.688L552.406 951.174H563.05L556.588 924.944L506.79 912.4Z" fill="#FF553E"/>
<path d="M388.186 906.698L375.641 856.899L325.843 844.355L313.298 794.556L263.5 782.392L250.956 732.213L201.157 720.049L188.613 669.871L138.814 657.706L126.27 607.528L76.4714 595.363L63.9268 545.565L14.1285 533.02L1.58389 483.222L0.823608 482.842L0.823608 523.137L5.38528 541.763L55.1836 553.928L67.7282 604.106L117.526 616.271L130.071 666.449L179.869 678.614L192.414 728.792L242.212 740.957L254.757 791.135L304.555 803.3L317.1 853.098L366.898 865.642L379.443 915.441L429.241 927.985L434.943 951.174H445.967L437.984 919.242L388.186 906.698Z" fill="#FF553E"/>
<path d="M456.611 900.235L406.813 887.691L394.268 837.892L344.47 825.728L331.925 775.549L282.127 763.005L269.582 713.206L219.784 701.042L207.239 650.864L157.441 638.699L144.896 588.521L95.0982 576.356L82.5536 526.178L32.7553 514.013L20.5908 463.835L0.823547 459.273L0.823547 469.917L11.8476 472.578L24.0121 522.757L73.8104 534.921L86.355 585.099L136.153 597.264L148.698 647.442L198.496 659.607L211.041 709.785L260.839 721.95L273.384 771.748L323.182 784.293L335.727 834.091L385.525 846.635L398.07 896.434L447.868 908.978L458.512 951.174H473.337L469.156 950.033L456.611 900.235Z" fill="#FF553E"/>
<path d="M338.007 894.533L288.209 882.369L275.665 832.57L225.866 820.026L213.322 769.847L163.523 757.683L150.979 707.504L101.18 695.34L88.6358 645.542L38.8375 632.997L26.2929 583.199L0.823547 576.736L0.823547 587.76L17.5497 591.562L30.0943 641.74L79.8926 653.905L92.4372 704.083L142.236 716.628L154.78 766.426L204.578 778.59L217.123 828.769L266.921 840.933L279.466 891.112L329.264 903.276L341.049 951.174H377.162L350.552 944.331L338.007 894.533Z" fill="#FF553E"/>
<path d="M369.179 925.324L356.634 875.526L306.836 863.362L294.291 813.183L244.493 800.639L231.949 750.84L182.15 738.676L169.606 688.497L119.807 676.333L107.263 626.535L57.4644 613.99L44.9198 564.192L0.823608 553.168L0.823608 563.812L36.1766 572.555L48.7212 622.733L98.5195 635.278L111.064 685.076L160.862 697.621L173.407 747.419L223.205 759.583L235.75 809.762L285.548 821.926L298.093 872.105L347.891 884.269L360.436 934.448L410.234 946.612L411.374 951.174H422.399L418.977 937.869L369.179 925.324Z" fill="#FF553E"/>
<path d="M250.195 920.002L238.031 870.204L188.232 857.66L175.688 807.861L125.89 795.317L113.345 745.518L63.5466 732.974L51.002 683.175L1.20369 670.631L0.823547 669.49L0.823547 681.655L42.2588 691.919L54.8034 741.717L104.602 754.261L117.146 804.06L166.945 816.604L179.489 866.403L229.288 878.567L241.452 928.746L291.63 940.91L293.911 951.174H304.935L300.374 932.167L250.195 920.002Z" fill="#FF553E"/>
<path d="M269.202 900.996L256.658 851.197L206.859 838.653L194.315 788.854L144.516 776.31L131.972 726.511L82.1735 713.967L69.6289 664.169L19.8306 651.624L7.28598 601.826L0.823608 599.925L0.823608 619.312L11.0874 660.367L60.8857 672.912L73.4303 722.71L123.229 735.255L135.773 785.053L185.572 797.597L198.116 847.396L247.914 859.56L260.459 909.739L310.257 921.903L317.48 951.174H328.504L319.001 913.16L269.202 900.996Z" fill="#FF553E"/>
<path d="M150.599 895.293L138.054 845.495L88.2557 832.95L75.7111 783.152L25.9128 770.608L13.3682 720.809L0.823608 717.768L0.823608 728.412L4.62501 729.552L17.1696 779.351L66.9679 791.895L79.5125 841.694L129.311 854.238L141.855 904.037L191.654 916.581L200.397 951.174H211.041L200.397 907.838L150.599 895.293Z" fill="#FF553E"/>
<path d="M231.568 938.629L219.024 888.831L169.225 876.286L156.681 826.488L106.883 813.943L94.3379 764.145L44.5396 751.601L31.995 701.802L0.823547 693.819L0.823547 704.843L23.2518 710.546L35.7964 760.344L85.5947 772.888L98.1393 822.687L147.938 835.231L160.482 885.03L210.281 897.574L222.825 947.372L238.411 951.174H281.367V950.794L231.568 938.629Z" fill="#FF553E"/>
<path d="M112.585 932.927L100.42 883.129L50.2416 870.584L38.0772 820.786L0.823486 811.663L0.823486 822.306L29.334 829.529L41.4984 879.327L91.6769 891.872L103.841 941.67L141.855 951.174H163.903L162.763 945.472L112.585 932.927Z" fill="#FF553E"/>
<path d="M131.211 913.92L119.047 864.122L68.8685 851.577L56.704 801.779L6.90572 789.234L0.823486 765.666L0.823486 798.738L47.9608 810.522L60.1253 860.32L110.304 872.865L122.468 922.663L172.647 935.208L176.448 951.174H187.472L181.39 926.465L131.211 913.92Z" fill="#FF553E"/>
<path d="M12.6079 908.218L0.823608 860.701L0.823608 904.417L3.86473 916.962L54.0432 929.506L59.3651 951.174H70.009L62.4062 920.763L12.6079 908.218Z" fill="#FF553E"/>
<path d="M31.2348 889.211L19.0703 839.413L0.823608 834.851L0.823608 845.875L10.3271 848.156L22.4916 897.954L72.67 910.499L82.5536 951.174H93.5777L81.0331 901.756L31.2348 889.211Z" fill="#FF553E"/>
<path d="M0.823608 928.746L0.823608 939.77L34.656 948.133L35.4163 951.174H46.4404L43.3993 939.39L0.823608 928.746Z" fill="#FF553E"/>
</svg>
