<svg width="111" height="57" viewBox="0 0 111 57" fill="none" xmlns="http://www.w3.org/2000/svg">
<g clip-path="url(#clip0)">
<path d="M7.76703 34.7998C8.73068 35.9209 10.4218 35.6685 11.4207 34.7998C14.0981 32.4735 16.6199 29.9888 19.1607 27.5195C21.7594 29.8603 24.197 32.3667 26.7179 34.7998C27.221 35.2848 27.7774 35.4965 28.3239 35.5237C28.3819 35.5291 28.4407 35.5264 28.5004 35.5273C28.5583 35.5255 28.618 35.5291 28.6768 35.5237C29.2224 35.4956 29.7807 35.2839 30.2829 34.7998C32.8038 32.3676 35.2405 29.8612 37.841 27.5195C40.3818 29.9888 42.9044 32.4735 45.58 34.7998C46.579 35.6685 48.2701 35.9209 49.2347 34.7998C51.5718 32.0835 53.8801 29.3464 56.2987 26.7025C58.5427 24.2486 54.898 20.5831 52.6432 23.0478C50.7747 25.0901 48.9723 27.1884 47.1725 29.2894C44.6535 26.9712 42.2321 24.5553 39.7583 22.1855C38.6707 21.1432 37.2049 21.2698 36.1037 22.1855C33.4245 24.4087 30.9751 26.868 28.5013 29.3093C26.0293 26.868 23.579 24.4087 20.8989 22.1855C19.7986 21.2698 18.3328 21.1432 17.2452 22.1855C14.7723 24.5544 12.3509 26.9712 9.83095 29.2894C8.03214 27.1884 6.22972 25.0891 4.36123 23.0478C2.1082 20.5831 -1.53828 24.2476 0.705705 26.7025C3.12342 29.3464 5.42984 32.0835 7.76703 34.7998Z" fill="#F4442C"/>
</g>
<g clip-path="url(#clip1)">
<path d="M61.767 34.7998C62.7307 35.9209 64.4218 35.6685 65.4207 34.7998C68.0981 32.4735 70.6199 29.9888 73.1607 27.5195C75.7594 29.8603 78.197 32.3667 80.7179 34.7998C81.221 35.2848 81.7774 35.4965 82.3239 35.5237C82.3819 35.5291 82.4407 35.5264 82.5004 35.5273C82.5583 35.5255 82.618 35.5291 82.6768 35.5237C83.2224 35.4956 83.7807 35.2839 84.2829 34.7998C86.8038 32.3676 89.2405 29.8612 91.841 27.5195C94.3818 29.9888 96.9044 32.4735 99.58 34.7998C100.579 35.6685 102.27 35.9209 103.235 34.7998C105.572 32.0835 107.88 29.3464 110.299 26.7025C112.543 24.2486 108.898 20.5831 106.643 23.0478C104.775 25.0901 102.972 27.1884 101.173 29.2894C98.6535 26.9712 96.2321 24.5553 93.7583 22.1855C92.6707 21.1432 91.2049 21.2698 90.1037 22.1855C87.4245 24.4087 84.9751 26.868 82.5013 29.3093C80.0293 26.868 77.579 24.4087 74.8989 22.1855C73.7986 21.2698 72.3328 21.1432 71.2452 22.1855C68.7723 24.5544 66.3509 26.9712 63.831 29.2894C62.0321 27.1884 60.2297 25.0891 58.3612 23.0478C56.1082 20.5831 52.4617 24.2476 54.7057 26.7025C57.1234 29.3464 59.4298 32.0835 61.767 34.7998Z" fill="#F4442C"/>
</g>
<defs>
<clipPath id="clip0">
<rect width="57" height="57" fill="white" transform="translate(57 57) rotate(-180)"/>
</clipPath>
<clipPath id="clip1">
<rect width="57" height="57" fill="white" transform="translate(111 57) rotate(-180)"/>
</clipPath>
</defs>
</svg>
