<svg width="132" height="221" viewBox="0 0 132 221" fill="none" xmlns="http://www.w3.org/2000/svg">
<g clip-path="url(#clip0)">
<path d="M80.5893 202.741C83.1855 200.475 82.6009 196.5 80.5893 194.151C75.202 187.857 69.448 181.929 63.7297 175.956C69.1505 169.846 74.9547 164.116 80.5893 158.19C81.7124 157.007 82.2027 155.699 82.2656 154.414C82.2782 154.278 82.2719 154.14 82.274 153.999C82.2698 153.863 82.2782 153.723 82.2656 153.584C82.2006 152.302 81.7103 150.989 80.5893 149.809C74.9568 143.882 69.1526 138.154 63.7297 132.041C69.448 126.067 75.202 120.137 80.5893 113.847C82.6009 111.499 83.1855 107.523 80.5893 105.255C74.2989 99.761 67.9603 94.3346 61.8375 88.6487C56.1548 83.3734 47.6663 91.9416 53.3742 97.2424C58.1035 101.635 62.9627 105.872 67.8283 110.103C62.4598 116.025 56.8651 121.717 51.3773 127.533C48.9634 130.09 49.2567 133.536 51.3773 136.125C56.5257 142.423 62.221 148.181 67.8744 153.997C62.221 159.808 56.5257 165.569 51.3773 171.869C49.2567 174.456 48.9634 177.902 51.3773 180.459C56.863 186.272 62.4598 191.965 67.8283 197.889C62.9627 202.117 58.1014 206.355 53.3742 210.747C47.6663 216.044 56.1527 224.616 61.8375 219.341C67.9603 213.657 74.2989 208.235 80.5893 202.741Z" fill="#341F3A"/>
</g>
<g clip-path="url(#clip1)">
<path d="M80.5893 115.741C83.1855 113.475 82.6009 109.5 80.5893 107.151C75.202 100.857 69.448 94.9287 63.7297 88.9556C69.1505 82.8464 74.9547 77.1159 80.5893 71.1896C81.7124 70.0069 82.2027 68.6987 82.2656 67.4139C82.2782 67.2778 82.2719 67.1395 82.274 66.9991C82.2698 66.863 82.2782 66.7226 82.2656 66.5844C82.2006 65.3017 81.7103 63.9892 80.5893 62.8087C74.9568 56.8824 69.1526 51.154 63.7297 45.0405C69.448 39.0675 75.202 33.137 80.5893 26.847C82.6009 24.4986 83.1855 20.523 80.5893 18.2554C74.2989 12.761 67.9603 7.33461 61.8375 1.64873C56.1548 -3.62661 47.6663 4.94156 53.3742 10.2424C58.1035 14.635 62.9627 18.8723 67.8283 23.1032C62.4598 29.0252 56.8651 34.7175 51.3773 40.5331C48.9634 43.0899 49.2567 46.5359 51.3773 49.1247C56.5257 55.4232 62.221 61.1814 67.8744 66.997C62.221 72.8084 56.5257 78.5687 51.3773 84.8694C49.2567 87.456 48.9634 90.902 51.3773 93.4588C56.863 99.2723 62.4598 104.965 67.8283 110.889C62.9627 115.117 58.1014 119.355 53.3742 123.747C47.6663 129.044 56.1527 137.616 61.8375 132.341C67.9603 126.657 74.2989 121.235 80.5893 115.741Z" fill="#341F3A"/>
</g>
<defs>
<clipPath id="clip0">
<rect width="134" height="132" fill="white" transform="translate(132 87) rotate(90)"/>
</clipPath>
<clipPath id="clip1">
<rect width="134" height="132" fill="white" transform="translate(132) rotate(90)"/>
</clipPath>
</defs>
</svg>
