<svg width="57" height="57" viewBox="0 0 57 57" fill="none" xmlns="http://www.w3.org/2000/svg">
<g clip-path="url(#clip0)">
<path d="M7.76703 34.7998C8.73068 35.9209 10.4218 35.6685 11.4207 34.7998C14.0981 32.4735 16.6199 29.9888 19.1607 27.5195C21.7594 29.8603 24.197 32.3667 26.7179 34.7998C27.221 35.2848 27.7774 35.4965 28.3239 35.5237C28.3819 35.5291 28.4407 35.5264 28.5004 35.5273C28.5583 35.5255 28.618 35.5291 28.6768 35.5237C29.2224 35.4956 29.7807 35.2839 30.2829 34.7998C32.8038 32.3676 35.2405 29.8612 37.841 27.5195C40.3818 29.9888 42.9044 32.4735 45.58 34.7998C46.579 35.6685 48.2701 35.9209 49.2347 34.7998C51.5718 32.0835 53.8801 29.3464 56.2987 26.7025C58.5427 24.2486 54.898 20.5831 52.6432 23.0479C50.7747 25.0901 48.9723 27.1884 47.1725 29.2894C44.6535 26.9712 42.2321 24.5553 39.7583 22.1855C38.6707 21.1432 37.2049 21.2698 36.1037 22.1855C33.4245 24.4087 30.9751 26.8681 28.5013 29.3093C26.0293 26.8681 23.579 24.4087 20.8989 22.1855C19.7986 21.2698 18.3328 21.1432 17.2452 22.1855C14.7723 24.5544 12.3509 26.9712 9.83095 29.2894C8.03214 27.1884 6.22972 25.0892 4.36123 23.0478C2.1082 20.5831 -1.53828 24.2477 0.705705 26.7025C3.12342 29.3464 5.42984 32.0835 7.76703 34.7998Z" fill="#F4442C"/>
</g>
<defs>
<clipPath id="clip0">
<rect width="57" height="57" fill="white" transform="translate(57 57) rotate(-180)"/>
</clipPath>
</defs>
</svg>
