<svg width="67" height="67" viewBox="0 0 67 67" fill="none" xmlns="http://www.w3.org/2000/svg">
<path d="M57.8703 26.0948C56.7376 24.7771 54.7498 25.0738 53.5756 26.0948C50.4285 28.8293 47.4643 31.7499 44.4777 34.6524C41.4231 31.9009 38.5579 28.9548 35.5947 26.0948C35.0034 25.5248 34.3493 25.2759 33.7069 25.244C33.6388 25.2376 33.5697 25.2408 33.4995 25.2397C33.4314 25.2419 33.3612 25.2376 33.2921 25.244C32.6508 25.277 31.9945 25.5258 31.4043 26.0948C28.4411 28.9537 25.5769 31.8998 22.5202 34.6524C19.5337 31.7499 16.5684 28.8293 13.4234 26.0948C12.2492 25.0738 10.2614 24.7771 9.12764 26.0948C6.38043 29.2877 3.66724 32.505 0.824302 35.6128C-1.81337 38.4972 2.47072 42.8058 5.12115 39.9086C7.31744 37.5081 9.43608 35.0417 11.5515 32.572C14.5125 35.2969 17.3587 38.1367 20.2665 40.9222C21.5449 42.1474 23.2679 41.9985 24.5623 40.9222C27.7115 38.309 30.5906 35.4182 33.4984 32.5486C36.4041 35.4182 39.2843 38.309 42.4346 40.9222C43.7279 41.9985 45.4509 42.1474 46.7293 40.9222C49.6361 38.1377 52.4822 35.2969 55.4443 32.572C57.5587 35.0417 59.6773 37.5091 61.8736 39.9086C64.5219 42.8058 68.8081 38.4983 66.1704 35.6128C63.3286 32.505 60.6175 29.2877 57.8703 26.0948Z" fill="#341F3A"/>
</svg>