<svg width="49" height="50" viewBox="0 0 49 50" fill="none" xmlns="http://www.w3.org/2000/svg">
<path d="M24.3929 45.1164L24.3934 45.118C24.3944 45.1198 24.3954 45.1216 24.3969 45.1237C24.4518 45.2631 24.5387 45.3893 24.6386 45.5061C24.6689 45.5424 24.7001 45.572 24.7332 45.6039C24.8152 45.6836 24.9064 45.7538 25.0083 45.814C25.0452 45.8369 25.0787 45.8619 25.1187 45.8812C25.139 45.8916 25.1547 45.9062 25.175 45.9153C25.2997 45.9705 25.4291 46.006 25.5581 46.0245C25.5712 46.0274 25.5845 46.0239 25.5982 46.0258C25.7418 46.0428 25.8815 46.0333 26.018 46.0071C26.0371 46.0034 26.0571 46.0091 26.0764 46.0049L34.8711 43.8638C35.5443 43.7002 35.8847 43.0379 35.63 42.3831C35.3753 41.7296 34.6228 41.3326 33.948 41.4968L29.2064 42.6504C31.8289 38.7489 33.0043 34.1918 33.0581 33.9758C37.0971 20.1179 30.0195 5.19764 17.2813 0.715458C16.6505 0.493642 16.0085 0.725133 15.755 1.23549C15.7279 1.29007 15.7054 1.34701 15.6869 1.40733C15.5043 2.03502 15.9208 2.7421 16.6178 2.98828C27.9642 6.98043 34.2067 20.4829 30.5233 33.1238C30.5091 33.1831 29.2969 37.8925 26.6922 41.5736L26.3039 35.8278C26.2578 35.1542 25.6374 34.5808 24.9186 34.5451C24.1991 34.5085 23.6564 35.0258 23.6982 35.6991L24.3101 44.7563C24.3196 44.8795 24.3481 45.0003 24.3929 45.1164Z" fill="white"/>
</svg>
