<svg width="141" height="145" viewBox="0 0 141 145" fill="none" xmlns="http://www.w3.org/2000/svg">
<path d="M76.0031 122.961C77.9207 121.068 80.244 119.681 82.1648 117.746C84.0627 115.831 85.9941 114.036 87.6968 111.941C90.9649 107.929 94.1022 103.463 96.1891 98.7088C100.375 89.1806 102.203 79.6378 101.669 69.2764C100.67 49.7589 87.4873 31.3691 71.0419 21.7412C66.3842 19.0146 61.51 16.9323 56.4641 15.0578C54.7805 14.4311 52.4821 13.7775 53.0417 11.4151C53.5379 9.31623 55.6482 9.21692 57.4108 9.6562C66.8137 11.9902 76.2748 17.8448 83.6246 23.9487C99.0148 36.7246 106.906 55.2222 107.221 75.0511C107.414 86.8897 103.074 99.7039 96.369 109.474C93.2218 114.068 89.6207 117.811 85.8223 121.813C83.7773 123.964 81.6283 125.867 79.1578 127.56C78.3365 128.119 74.6906 129.822 74.546 130.782C74.4783 131.238 81.7074 133.179 82.6531 133.845C84.8701 135.405 84.4901 138.766 81.4146 138.862C78.651 138.948 74.77 136.785 72.1567 135.906C69.3079 134.951 66.0539 134.585 65.1255 131.287C64.553 129.275 65.4062 126.241 65.6955 124.182C66.0154 121.867 65.8997 117.64 67.3084 115.739C69.0113 113.435 72.0195 114.958 72.2575 117.548C72.5174 120.337 70.4082 123.589 71.0424 126.324C72.8077 125.697 74.5566 124.109 76.0031 122.961C77.2462 121.739 75.3115 123.507 76.0031 122.961Z" fill="#341F3A"/>
</svg>