<svg width="52" height="52" viewBox="0 0 52 52" fill="none" xmlns="http://www.w3.org/2000/svg">
<path d="M29.9423 6.1607L29.9422 6.15908C29.9416 6.15709 29.941 6.15511 29.9399 6.15275C29.9162 6.00478 29.8584 5.86289 29.7858 5.72748C29.7639 5.68551 29.7399 5.64993 29.7143 5.61163C29.6513 5.51622 29.5773 5.42811 29.4907 5.3475C29.4595 5.31718 29.4322 5.28564 29.3972 5.25818C29.3796 5.24364 29.3674 5.22608 29.3495 5.2128C29.2395 5.13221 29.1207 5.06976 28.9988 5.02406C28.9865 5.01839 28.9728 5.01902 28.9598 5.01424C28.8232 4.96682 28.6847 4.94624 28.5458 4.94252C28.5263 4.94212 28.508 4.93217 28.4882 4.93222L19.4391 5.13934C18.7464 5.15497 18.2721 5.72889 18.3805 6.42308C18.4893 7.11601 19.1393 7.66502 19.8336 7.64922L24.7122 7.53825C21.3147 10.7873 19.1903 14.9867 19.0914 15.1862C12.1773 27.857 15.894 43.9471 27.3762 51.0543C27.9448 51.4061 28.6215 51.3176 28.9784 50.8734C29.0166 50.8258 29.0508 50.7751 29.0818 50.7201C29.3946 50.1461 29.1392 49.3662 28.5112 48.9764C18.2836 42.6461 15.0788 28.1197 21.3849 16.5615C21.4115 16.5066 23.6045 12.1662 26.9374 9.12864L26.0856 14.8243C25.9864 15.4921 26.4695 16.1851 27.164 16.3739C27.8589 16.5639 28.4999 16.1748 28.6033 15.5082L29.946 6.53017C29.9632 6.4078 29.9612 6.28377 29.9423 6.1607Z" fill="#341F3A"/>
</svg>
