<svg width="89" height="46" viewBox="0 0 89 46" fill="none" xmlns="http://www.w3.org/2000/svg">
<path d="M85.184 29.5769C85.184 29.5769 66.8008 45.0371 44.124 45.0371C21.4471 45.0371 3.06396 29.5769 3.06396 29.5769C3.06396 29.5769 21.4471 14.1167 44.124 14.1167C66.8008 14.1167 85.184 29.5769 85.184 29.5769Z" fill="white"/>
<path d="M44.1238 45.7845C38.8801 45.7845 33.4316 44.9613 27.9297 43.3384C23.5379 42.0421 19.1014 40.2367 14.7443 37.9706C7.32646 34.1115 2.77197 30.3094 2.58199 30.1493L1.90155 29.5768L2.58199 29.0044C2.77197 28.8442 7.32646 25.0422 14.7443 21.1831C19.1014 18.917 23.5367 17.1103 27.9297 15.8153C33.4316 14.1924 38.8801 13.3691 44.1238 13.3691C49.3674 13.3691 54.8159 14.1924 60.3178 15.8153C64.7096 17.1116 69.1462 18.917 73.5032 21.1831C80.921 25.0422 85.4756 28.8442 85.6655 29.0044L86.346 29.5768L85.6655 30.1493C85.4756 30.3094 80.921 34.1115 73.5032 37.9706C69.1462 40.2367 64.7109 42.0433 60.3178 43.3384C54.8159 44.9613 49.3674 45.7845 44.1238 45.7845ZM4.26323 29.5768C5.82527 30.7887 9.84708 33.7402 15.4694 36.6619C22.1671 40.1411 32.5749 44.2895 44.1225 44.2895C55.6851 44.2895 66.1053 40.1324 72.8116 36.6445C78.4228 33.7253 82.426 30.7862 83.983 29.5781C82.421 28.3662 78.3992 25.4147 72.7768 22.493C66.0792 19.0138 55.6714 14.8654 44.1238 14.8654C32.5612 14.8654 22.141 19.0225 15.4347 22.5104C9.8235 25.4296 5.82154 28.3687 4.26323 29.5768Z" fill="black"/>
<path d="M44.124 45.0371C52.6625 45.0371 59.5842 38.1153 59.5842 29.5769C59.5842 21.0385 52.6625 14.1167 44.124 14.1167C35.5856 14.1167 28.6638 21.0385 28.6638 29.5769C28.6638 38.1153 35.5856 45.0371 44.124 45.0371Z" fill="#FF553E"/>
<path d="M48.0748 44.9265H41.0705L42.1669 31.936H46.4793L48.0748 44.9265Z" fill="#FF553E"/>
<path d="M59.9663 29.0974L58.4266 35.9304L45.9949 32.0042L46.9435 27.7986L59.9663 29.0974Z" fill="#FF553E"/>
<path d="M49.3847 14.6045L54.3974 17.2418L46.9436 27.7986L43.303 26.1025L49.3847 14.6045Z" fill="#FF553E"/>
<path d="M33.2579 18.5803L41.3748 14.3611L44.9061 26.6128L40.9948 28.4269L33.2579 18.5803Z" fill="#FF553E"/>
<path d="M30.4901 37.6613L28.532 30.9351L41.3114 28.3586L42.5171 32.4972L30.4901 37.6613Z" fill="#FF553E"/>
<path d="M44.1241 45.7845C35.1864 45.7845 27.9164 38.5132 27.9164 29.5768C27.9164 20.6404 35.1877 13.3691 44.1241 13.3691C53.0605 13.3691 60.3318 20.6404 60.3318 29.5768C60.3318 38.5132 53.0605 45.7845 44.1241 45.7845ZM44.1241 14.8654C36.0122 14.8654 29.4126 21.4649 29.4126 29.5768C29.4126 37.6888 36.0122 44.2883 44.1241 44.2883C52.236 44.2883 58.8355 37.6888 58.8355 29.5768C58.8355 21.4649 52.236 14.8654 44.1241 14.8654Z" fill="black"/>
<path d="M7.84565 26.7051C7.52033 26.7051 7.19996 26.5461 7.00874 26.2519L0.363257 16.0564C0.0627693 15.5945 0.193149 14.9774 0.653814 14.6756C1.11572 14.3751 1.73284 14.5055 2.03457 14.9662L8.68006 25.1617C8.98055 25.6236 8.85016 26.2407 8.38949 26.5424C8.22187 26.6529 8.03315 26.7051 7.84565 26.7051Z" fill="black"/>
<path d="M16.0049 21.7172C15.6597 21.7172 15.3245 21.5384 15.1407 21.218L9.05524 10.6786C8.77958 10.2018 8.94348 9.59212 9.42028 9.31646C9.89709 9.04081 10.5068 9.20471 10.7824 9.68152L16.8679 20.2209C17.1436 20.6977 16.9797 21.3074 16.5029 21.5831C16.3452 21.6737 16.1738 21.7172 16.0049 21.7172Z" fill="black"/>
<path d="M24.38 18.388C23.9703 18.388 23.5866 18.1335 23.4401 17.7262L19.3475 6.26544C19.1624 5.74642 19.4331 5.17649 19.9509 4.99023C20.47 4.80522 21.0399 5.07467 21.2261 5.59369L25.3187 17.0544C25.5037 17.5735 25.2331 18.1434 24.7153 18.3296C24.6048 18.3681 24.4918 18.388 24.38 18.388Z" fill="black"/>
<path d="M33.9904 15.3334C33.531 15.3334 33.1163 15.0131 33.0157 14.545L30.4578 2.64714C30.3423 2.10825 30.685 1.57805 31.2227 1.46257C31.7616 1.34709 32.2918 1.6898 32.4072 2.22745L34.9651 14.1253C35.0806 14.6642 34.7379 15.1944 34.2002 15.3098C34.1295 15.326 34.0587 15.3334 33.9904 15.3334Z" fill="black"/>
<path d="M80.401 26.7049C80.2148 26.7049 80.0261 26.6528 79.8572 26.5435C79.3953 26.243 79.2649 25.6247 79.5666 25.1628L86.2121 14.9673C86.5126 14.5054 87.131 14.375 87.5929 14.6767C88.0548 14.9772 88.1852 15.5956 87.8834 16.0575L81.2379 26.253C81.0467 26.546 80.7276 26.7049 80.401 26.7049Z" fill="black"/>
<path d="M72.243 21.7172C72.0742 21.7172 71.9028 21.6737 71.7451 21.5831C71.2683 21.3074 71.1044 20.6977 71.3801 20.2209L77.4656 9.68152C77.7412 9.20471 78.3509 9.04081 78.8277 9.31646C79.3045 9.59212 79.4684 10.2018 79.1927 10.6786L73.1072 21.218C72.9235 21.5384 72.5882 21.7172 72.243 21.7172Z" fill="black"/>
<path d="M63.8678 18.388C63.756 18.388 63.643 18.3694 63.5325 18.3296C63.0135 18.1446 62.7428 17.5735 62.9291 17.0544L67.0217 5.59369C67.2067 5.07467 67.7779 4.80522 68.2969 4.99023C68.8159 5.17524 69.0866 5.74642 68.9003 6.26544L64.8077 17.7262C64.6612 18.1335 64.2763 18.388 63.8678 18.388Z" fill="black"/>
<path d="M54.2573 15.3336C54.1878 15.3336 54.117 15.3261 54.0462 15.3112C53.5073 15.1958 53.1646 14.6656 53.2814 14.1267L55.8392 2.22885C55.9547 1.68996 56.4861 1.34725 57.0238 1.46397C57.5627 1.57945 57.9054 2.10965 57.7887 2.64854L55.2308 14.5464C55.1315 15.0132 54.718 15.3336 54.2573 15.3336Z" fill="black"/>
<path d="M44.1238 14.1651C43.5725 14.1651 43.1267 13.7181 43.1267 13.1681V0.997072C43.1267 0.445764 43.5737 0 44.1238 0C44.6739 0 45.1209 0.447006 45.1209 0.997072V13.1668C45.1209 13.7181 44.6751 14.1651 44.1238 14.1651Z" fill="black"/>
<path d="M49.0831 34.5383C51.8228 31.7986 51.8228 27.3567 49.0831 24.617C46.3434 21.8773 41.9014 21.8773 39.1617 24.617C36.422 27.3567 36.422 31.7986 39.1617 34.5383C41.9015 37.278 46.3434 37.278 49.0831 34.5383Z" fill="black"/>
<path d="M46.619 23.6913C46.9112 22.3141 46.0317 20.9607 44.6546 20.6685C43.2774 20.3762 41.924 21.2557 41.6317 22.6329C41.3395 24.01 42.219 25.3634 43.5961 25.6557C44.9733 25.9479 46.3267 25.0685 46.619 23.6913Z" fill="black"/>
<path d="M44.388 24.6946C45.2375 24.5445 45.8045 23.7342 45.6544 22.8847C45.5042 22.0352 44.6939 21.4682 43.8444 21.6183C42.9949 21.7685 42.428 22.5788 42.5781 23.4283C42.7282 24.2778 43.5385 24.8447 44.388 24.6946Z" fill="white"/>
</svg>
