<svg width="17" height="18" viewBox="0 0 17 18" fill="none" xmlns="http://www.w3.org/2000/svg">
<path d="M12.9245 11.3491C12.3691 10.8007 11.6757 10.8007 11.1239 11.3491C10.7029 11.7665 10.2819 12.1839 9.86803 12.6084C9.75483 12.7252 9.65931 12.7499 9.52135 12.6721C9.24896 12.5235 8.95888 12.4032 8.6971 12.2405C7.47665 11.4729 6.4543 10.4859 5.54869 9.37511C5.09942 8.82326 4.69968 8.23249 4.42022 7.56743C4.36362 7.433 4.37423 7.34456 4.48389 7.2349C4.90486 6.82808 5.31521 6.41065 5.72911 5.99322C6.30572 5.41307 6.30572 4.73386 5.72557 4.15017C5.39658 3.81764 5.06759 3.49218 4.73859 3.15965C4.39899 2.82005 4.06292 2.47691 3.71978 2.14084C3.16439 1.5996 2.47103 1.5996 1.91918 2.14438C1.49467 2.56181 1.08785 2.98985 0.656274 3.40021C0.256532 3.77872 0.0548925 4.24214 0.012442 4.78339C-0.0547713 5.66423 0.161019 6.49555 0.465247 7.30565C1.08785 8.98244 2.03591 10.4717 3.18561 11.8372C4.73859 13.6838 6.59227 15.1448 8.76078 16.199C9.73714 16.6731 10.7489 17.0374 11.849 17.0976C12.6061 17.14 13.2641 16.949 13.7912 16.3582C14.152 15.9549 14.5588 15.587 14.9409 15.2014C15.5069 14.6284 15.5104 13.935 14.9479 13.369C14.2758 12.6933 13.6001 12.0212 12.9245 11.3491Z" fill="#FF553E"/>
<path d="M12.2489 8.5294L13.5542 8.30654C13.3491 7.10731 12.783 6.02129 11.9234 5.15813C11.0143 4.24898 9.86458 3.6759 8.59814 3.49902L8.41418 4.81145C9.39408 4.94941 10.2855 5.39161 10.9895 6.09558C11.6546 6.76063 12.0897 7.60257 12.2489 8.5294Z" fill="#FF553E"/>
<path d="M14.2902 2.85523C12.7832 1.34824 10.8764 0.396643 8.7716 0.103027L8.58765 1.41545C10.4059 1.67016 12.0544 2.4944 13.3563 3.79268C14.5909 5.02728 15.401 6.58734 15.6946 8.30304L16.9999 8.08018C16.6568 6.09208 15.7193 4.28794 14.2902 2.85523Z" fill="#FF553E"/>
</svg>