<svg width="34" height="25" viewBox="0 0 34 25" fill="none" xmlns="http://www.w3.org/2000/svg">
<path d="M11.4127 11.6287L17.9598 14.4928C18.2566 14.6225 18.6179 14.6197 18.9424 14.5169C19.2749 14.4467 19.5908 14.2717 19.7851 14.0121L24.072 8.29452C24.416 7.83847 24.2439 7.58416 23.6933 7.72919L17.5793 9.33949L11.4653 10.9498C10.9141 11.095 10.8897 11.401 11.4127 11.6287Z" fill="white"/>
<path d="M24.7615 9.32346L20.0256 15.3769C19.8481 15.6015 19.5795 15.7589 19.2897 15.8312C19.0013 15.9111 18.6899 15.906 18.4249 15.7985L11.3205 12.8636C10.7933 12.6462 10.4808 12.9196 10.626 13.4708L12.5682 20.8448C12.7133 21.396 13.2835 21.7285 13.8347 21.5833L20.3514 19.8669L26.8687 18.1504C27.4199 18.0052 27.7524 17.435 27.6072 16.8838L25.665 9.50982C25.5198 8.95862 25.1132 8.87462 24.7615 9.32346Z" fill="white"/>
<path fill-rule="evenodd" clip-rule="evenodd" d="M28.1393 9.04717C28.5424 9.42468 29.1752 9.40392 29.5527 9.00081L32.095 6.28609C32.4725 5.88297 32.4518 5.25014 32.0486 4.87263C31.6455 4.49512 31.0127 4.51587 30.6352 4.91899L28.0929 7.63371C27.7154 8.03683 27.7361 8.66965 28.1393 9.04717Z" fill="white"/>
<path fill-rule="evenodd" clip-rule="evenodd" d="M27.1293 6.40198C27.6324 6.62979 28.2249 6.40663 28.4527 5.90352L29.9869 2.51542C30.2148 2.01231 29.9916 1.41978 29.4885 1.19196C28.9854 0.964144 28.3928 1.18731 28.165 1.69042L26.6308 5.07852C26.403 5.58162 26.6262 6.17416 27.1293 6.40198Z" fill="white"/>
<path fill-rule="evenodd" clip-rule="evenodd" d="M7.71398 14.0608C7.71463 14.6131 7.26744 15.0613 6.71516 15.0619L2.99589 15.0663C2.4436 15.067 1.99536 14.6198 1.99471 14.0675C1.99406 13.5152 2.44125 13.067 2.99354 13.0663L6.71281 13.0619C7.26509 13.0613 7.71333 13.5085 7.71398 14.0608Z" fill="white"/>
<path fill-rule="evenodd" clip-rule="evenodd" d="M6.47027 11.5169C6.29328 12.04 5.72569 12.3206 5.20254 12.1436L1.67944 10.9517C1.15628 10.7747 0.875665 10.2071 1.05266 9.68395C1.22966 9.16079 1.79724 8.88018 2.3204 9.05717L5.8435 10.2491C6.36665 10.4261 6.64727 10.9937 6.47027 11.5169Z" fill="white"/>
</svg>