<svg width="27" height="27" viewBox="0 0 27 27" fill="none" xmlns="http://www.w3.org/2000/svg">
<path fill-rule="evenodd" clip-rule="evenodd" d="M13.5 0C20.9558 0 27 6.04416 27 13.5C27 20.9558 20.9558 27 13.5 27C6.04416 27 0 20.9558 0 13.5C0 6.04416 6.04416 0 13.5 0ZM17.0969 11.7891C17.0312 11.2557 16.8672 10.8368 16.5761 10.4658C16.198 9.98813 15.7148 9.70207 14.9995 9.53237C14.5333 9.41927 14.345 9.43225 14.1764 9.58626C14.0193 9.73055 13.9887 10.0198 14.1087 10.2071C14.1931 10.3431 14.2905 10.3918 14.5613 10.4449C14.9219 10.5113 15.1711 10.5974 15.3978 10.727C15.879 11.0049 16.1031 11.4396 16.1271 12.1435C16.1383 12.474 16.1668 12.5756 16.2823 12.6928C16.4962 12.9071 16.877 12.8654 17.0385 12.609C17.0978 12.5124 17.1068 12.4703 17.1131 12.2459C17.1172 12.107 17.1112 11.9002 17.0969 11.7891ZM17.103 8.51626C18.247 9.44136 18.8862 10.7562 18.9812 12.3905C19.0212 13.0342 18.9681 13.2438 18.741 13.3632C18.5361 13.4739 18.3039 13.4375 18.1446 13.2709C18.0391 13.1625 17.9986 13.0143 18.0001 12.7519C18.0048 12.0264 17.8376 11.2163 17.5659 10.6541C17.2513 9.99977 16.7651 9.44296 16.1535 9.03586C15.6178 8.67831 14.9088 8.43679 14.2213 8.37665C13.7754 8.33764 13.6162 8.26212 13.5306 8.04835C13.4776 7.92048 13.4916 7.69941 13.5537 7.6004C13.6125 7.5091 13.7444 7.40813 13.8376 7.38144C13.9365 7.35262 14.5124 7.40301 14.8253 7.46518C15.6793 7.63901 16.4584 7.99645 17.103 8.51626ZM21.0669 18.6842C21.035 18.5907 20.9604 18.4467 20.9071 18.3639C20.5714 17.857 18.7676 16.4454 17.867 15.9837C17.3528 15.7195 16.9718 15.6315 16.6894 15.7142C16.3856 15.7996 16.2258 15.941 15.7169 16.5734C15.5117 16.8269 15.3012 17.0644 15.2453 17.1018C15.1067 17.1978 14.835 17.2753 14.6431 17.2753C14.1982 17.2725 13.3909 16.9844 12.7701 16.6054C12.2878 16.312 11.6697 15.7863 11.1954 15.2659C10.6359 14.6549 10.2549 14.1158 9.9538 13.5074C9.56482 12.7256 9.46624 12.2479 9.62875 11.8983C9.66872 11.8103 9.72202 11.7169 9.74597 11.6875C9.76996 11.6609 10.0204 11.4554 10.2975 11.2312C10.8411 10.799 10.929 10.7003 11.0302 10.4041C11.1581 10.0278 11.1235 9.64354 10.9263 9.25663C10.7744 8.96309 10.3774 8.32268 10.0897 7.90908C9.70869 7.36474 8.76017 6.20131 8.57097 6.04383C8.22993 5.76634 7.79301 5.71828 7.31071 5.90511C6.80186 6.10258 5.84798 6.87107 5.44032 7.40743C5.07263 7.89307 4.93147 8.23728 4.91013 8.69092C4.89149 9.06448 4.92345 9.21925 5.12062 9.69692C6.6633 13.4434 8.9653 16.4347 12.128 18.8096C13.7799 20.0504 15.4931 20.995 17.2702 21.6408C18.3066 22.017 18.7569 22.0357 19.2871 21.7262C19.5109 21.5927 20.0651 21.0244 20.3742 20.6108C20.8858 19.9223 21.075 19.6048 21.1282 19.3513C21.1655 19.1778 21.1362 18.8763 21.0669 18.6842ZM20.3856 10.2377C20.7101 11.0831 20.8657 11.8414 20.8999 12.7658C20.9053 12.9485 20.9028 13.283 20.891 13.5097C20.8663 13.9442 20.8427 14.0305 20.7176 14.1454C20.5166 14.3341 20.1247 14.2891 19.9761 14.0618C19.8985 13.9398 19.8876 13.8505 19.9026 13.3428C19.9457 11.8413 19.642 10.6656 18.9104 9.48995C18.0362 8.0795 16.7286 7.12936 15.0281 6.66452C14.5945 6.5462 14.229 6.47409 13.6607 6.39758C13.2905 6.34912 13.2094 6.32863 13.118 6.27239C12.842 6.09559 12.8383 5.64791 13.1135 5.46843C13.2555 5.37368 13.3602 5.36945 13.823 5.42872C15.1802 5.59833 16.3913 6.00161 17.3864 6.61102C18.0997 7.04841 18.5494 7.44135 19.1284 8.12952C19.7409 8.86348 20.0651 9.40614 20.3856 10.2377Z" fill="#D5D5D5"/>
</svg>
