<svg width="27" height="27" viewBox="0 0 27 27" fill="none" xmlns="http://www.w3.org/2000/svg">
<path fill-rule="evenodd" clip-rule="evenodd" d="M13.5 0C6.04416 0 0 6.04416 0 13.5C0 20.9558 6.04416 27 13.5 27C20.9558 27 27 20.9558 27 13.5C27 6.04416 20.9558 0 13.5 0ZM14.5992 17.7616C14.4661 17.902 14.2062 17.9303 14.2062 17.9303H13.3456C13.3456 17.9303 11.4468 18.0423 9.77405 16.3333C7.9499 14.4688 6.33916 10.7694 6.33916 10.7694C6.33916 10.7694 6.24619 10.5267 6.34691 10.4099C6.4603 10.2778 6.76949 10.2695 6.76949 10.2695L8.82676 10.2564C8.82676 10.2564 9.02045 10.2875 9.1592 10.3878C9.274 10.4707 9.33809 10.6249 9.33809 10.6249C9.33809 10.6249 9.67052 11.4504 10.1107 12.197C10.9707 13.6551 11.3707 13.9738 11.6623 13.8175C12.0877 13.5901 11.9602 11.7566 11.9602 11.7566C11.9602 11.7566 11.968 11.0916 11.7461 10.795C11.5743 10.5654 11.2503 10.4984 11.1073 10.4797C10.9911 10.4645 11.1813 10.2004 11.4278 10.0822C11.7982 9.90452 12.4518 9.89415 13.2244 9.90175C13.8266 9.90798 13.9999 9.94462 14.2351 10.0006C14.7811 10.1299 14.764 10.5444 14.7272 11.4388C14.7162 11.7064 14.7035 12.0168 14.7035 12.3754C14.7035 12.456 14.7011 12.5419 14.6986 12.6302C14.6859 13.0885 14.6712 13.6132 14.9789 13.8085C15.1366 13.9081 15.5219 13.8231 16.4861 12.2164C16.9432 11.4545 17.2855 10.5592 17.2855 10.5592C17.2855 10.5592 17.3608 10.3995 17.477 10.3311C17.5961 10.2613 17.7566 10.2827 17.7566 10.2827L19.9217 10.2695C19.9217 10.2695 20.5724 10.1928 20.6774 10.4818C20.788 10.7839 20.4344 11.4905 19.5498 12.6478C18.7107 13.7459 18.3023 14.1502 18.3398 14.5077C18.3672 14.769 18.6326 15.0053 19.142 15.4691C20.2054 16.4382 20.4904 16.9481 20.5589 17.0706C20.5645 17.0807 20.5687 17.0882 20.5717 17.0931C21.0486 17.8695 20.0428 17.9303 20.0428 17.9303L18.1194 17.9566C18.1194 17.9566 17.7066 18.0368 17.1629 17.6704C16.8781 17.4786 16.5998 17.1654 16.3347 16.867C15.9298 16.4114 15.5558 15.9905 15.2366 16.09C14.7007 16.2573 14.7169 17.3904 14.7169 17.3904C14.7169 17.3904 14.7211 17.633 14.5992 17.7616Z" fill="#FF6D59"/>
</svg>