<svg width="162" height="162" viewBox="0 0 162 162" fill="none" xmlns="http://www.w3.org/2000/svg">
<path fill-rule="evenodd" clip-rule="evenodd" d="M161.904 84.9762L159.906 84.8796C159.969 83.5944 160 82.3009 160 81C160 79.6991 159.969 78.4056 159.906 77.1204L161.904 77.0239C161.968 78.3412 162 79.6669 162 81C162 82.3332 161.968 83.6588 161.904 84.9762ZM161.134 69.1104L159.155 69.4014C158.776 66.8235 158.272 64.2863 157.65 61.7961L159.591 61.3116C160.228 63.8653 160.745 66.4671 161.134 69.1104ZM157.285 53.7034L155.402 54.3773C154.528 51.9325 153.535 49.5433 152.433 47.2165L154.24 46.3602C155.371 48.7462 156.388 51.1962 157.285 53.7034ZM150.487 39.3524L148.773 40.3822C147.439 38.1612 145.998 36.0111 144.459 33.9389L146.065 32.7463C147.643 34.8707 149.119 37.0752 150.487 39.3524ZM141.018 26.6037C139.237 24.6396 137.36 22.7634 135.396 20.9822L134.053 22.4637C135.969 24.2012 137.799 26.0314 139.536 27.9472L141.018 26.6037ZM129.254 15.9354L128.061 17.5409C125.989 16.0016 123.839 14.5614 121.618 13.2274L122.648 11.5129C124.925 12.8807 127.129 14.3573 129.254 15.9354ZM115.64 7.75956L114.784 9.56696C112.457 8.46452 110.068 7.47249 107.623 6.59758L108.297 4.71453C110.804 5.61176 113.254 6.62908 115.64 7.75956ZM100.688 2.40948L100.204 4.34989C97.7137 3.72805 95.1765 3.22436 92.5986 2.84515L92.8896 0.866448C95.5329 1.25527 98.1347 1.77176 100.688 2.40948ZM84.9762 0.0958858L84.8796 2.09355C83.5944 2.03143 82.3009 2 81 2C79.6991 2 78.4056 2.03143 77.1204 2.09355L77.0239 0.0958845C78.3412 0.0322067 79.6669 0 81 0C82.3332 0 83.6588 0.0322071 84.9762 0.0958858ZM69.1104 0.866444C66.4671 1.25526 63.8653 1.77176 61.3116 2.40947L61.7961 4.34989C64.2863 3.72804 66.8235 3.22435 69.4014 2.84515L69.1104 0.866444ZM53.7034 4.71453L54.3773 6.59758C51.9325 7.47248 49.5433 8.46452 47.2165 9.56695L46.3602 7.75956C48.7462 6.62907 51.1962 5.61175 53.7034 4.71453ZM39.3523 11.5129L40.3822 13.2274C38.1612 14.5614 36.0111 16.0016 33.9389 17.5409L32.7463 15.9354C34.8707 14.3573 37.0751 12.8807 39.3523 11.5129ZM26.6037 20.9822L27.9472 22.4637C26.0314 24.2012 24.2012 26.0314 22.4637 27.9472L20.9822 26.6037C22.7634 24.6396 24.6396 22.7634 26.6037 20.9822ZM15.9354 32.7463L17.5409 33.9389C16.0016 36.0111 14.5614 38.1612 13.2274 40.3822L11.5129 39.3524C12.8807 37.0752 14.3573 34.8707 15.9354 32.7463ZM7.75956 46.3602L9.56696 47.2165C8.46452 49.5433 7.47249 51.9325 6.59758 54.3773L4.71453 53.7034C5.61176 51.1962 6.62908 48.7462 7.75956 46.3602ZM2.40947 61.3116L4.34989 61.7961C3.72805 64.2863 3.22436 66.8235 2.84515 69.4014L0.866447 69.1104C1.25527 66.4671 1.77176 63.8653 2.40947 61.3116ZM0.0958857 77.0238C0.0322071 78.3412 0 79.6668 0 81C0 82.3331 0.0322067 83.6588 0.0958845 84.9761L2.09355 84.8796C2.03143 83.5944 2 82.3009 2 81C2 79.6991 2.03143 78.4056 2.09355 77.1204L0.0958857 77.0238ZM0.866444 92.8896C1.25526 95.5329 1.77176 98.1347 2.40947 100.688L4.34989 100.204C3.72804 97.7137 3.22435 95.1765 2.84515 92.5986L0.866444 92.8896ZM4.71453 108.297L6.59758 107.623C7.47248 110.068 8.46452 112.457 9.56695 114.784L7.75956 115.64C6.62908 113.254 5.61176 110.804 4.71453 108.297ZM11.5129 122.648L13.2274 121.618C14.5614 123.839 16.0016 125.989 17.5409 128.061L15.9354 129.254C14.3573 127.129 12.8807 124.925 11.5129 122.648ZM20.9822 135.396L22.4637 134.053C24.2012 135.969 26.0314 137.799 27.9472 139.536L26.6037 141.018C24.6396 139.237 22.7634 137.36 20.9822 135.396ZM32.7463 146.065L33.9389 144.459C36.0111 145.998 38.1612 147.439 40.3822 148.773L39.3524 150.487C37.0752 149.119 34.8707 147.643 32.7463 146.065ZM46.3602 154.24L47.2165 152.433C49.5433 153.535 51.9325 154.528 54.3773 155.402L53.7034 157.285C51.1962 156.388 48.7462 155.371 46.3602 154.24ZM61.3116 159.591L61.7961 157.65C64.2863 158.272 66.8235 158.776 69.4014 159.155L69.1104 161.134C66.4671 160.745 63.8653 160.228 61.3116 159.591ZM77.0238 161.904L77.1204 159.906C78.4056 159.969 79.6991 160 81 160C82.3009 160 83.5944 159.969 84.8796 159.906L84.9761 161.904C83.6588 161.968 82.3331 162 81 162C79.6668 162 78.3412 161.968 77.0238 161.904ZM92.8896 161.134L92.5986 159.155C95.1765 158.776 97.7137 158.272 100.204 157.65L100.688 159.591C98.1347 160.228 95.5329 160.745 92.8896 161.134ZM108.297 157.285L107.623 155.402C110.068 154.528 112.457 153.535 114.784 152.433L115.64 154.24C113.254 155.371 110.804 156.388 108.297 157.285ZM122.648 150.487L121.618 148.773C123.839 147.439 125.989 145.998 128.061 144.459L129.254 146.065C127.129 147.643 124.925 149.119 122.648 150.487ZM135.396 141.018L134.053 139.536C135.969 137.799 137.799 135.969 139.536 134.053L141.018 135.396C139.237 137.36 137.36 139.237 135.396 141.018ZM146.065 129.254L144.459 128.061C145.998 125.989 147.439 123.839 148.773 121.618L150.487 122.648C149.119 124.925 147.643 127.129 146.065 129.254ZM154.24 115.64L152.433 114.784C153.535 112.457 154.528 110.068 155.402 107.623L157.285 108.297C156.388 110.804 155.371 113.254 154.24 115.64ZM159.591 100.688L157.65 100.204C158.272 97.7137 158.776 95.1765 159.155 92.5986L161.134 92.8896C160.745 95.5329 160.228 98.1347 159.591 100.688Z" fill="#FF553E"/>
</svg>
