<svg width="27" height="27" viewBox="0 0 27 27" fill="none" xmlns="http://www.w3.org/2000/svg">
<path fill-rule="evenodd" clip-rule="evenodd" d="M0 13.5C0 20.9558 6.04416 27 13.5 27C20.9558 27 27 20.9558 27 13.5C27 6.04416 20.9558 0 13.5 0C6.04416 0 0 6.04416 0 13.5ZM11.025 19.6875L11.2547 16.2463L11.2545 16.2462L17.5145 10.597C17.7893 10.3531 17.4545 10.2342 17.0898 10.4554L9.36412 15.3295L6.02703 14.2879C5.30637 14.0673 5.30119 13.572 6.18883 13.216L19.1927 8.20178C19.7866 7.93214 20.3599 8.34443 20.1331 9.25345L17.9186 19.6893C17.7639 20.4309 17.3159 20.6082 16.695 20.2657L13.3215 17.7733L11.7 19.35C11.6949 19.355 11.6898 19.36 11.6848 19.3649C11.5034 19.5415 11.3534 19.6875 11.025 19.6875Z" fill="#D5D5D5"/>
</svg>