<svg width="169" height="263" viewBox="0 0 169 263" fill="none" xmlns="http://www.w3.org/2000/svg">
<path d="M58.395 173.165C58.395 162.576 61.5237 152.468 67.781 142.841C74.279 133.214 81.2583 125.513 88.719 119.737C96.1797 113.72 103.039 106.741 109.296 98.799C115.794 90.857 119.043 82.915 119.043 74.973C119.043 66.5496 116.155 60.0516 110.379 55.479C104.603 50.9063 96.5407 48.62 86.192 48.62C65.976 48.62 51.6563 59.3297 43.233 80.749L0.635 56.201C7.855 38.3917 19.2867 24.6737 34.93 15.047C50.814 5.17965 68.503 0.245983 87.997 0.245983C109.898 0.245983 128.79 6.62365 144.674 19.379C160.799 31.8937 168.861 49.2217 168.861 71.363C168.861 81.471 166.695 90.857 162.363 99.521C158.272 108.185 153.218 115.646 147.201 121.903C141.425 127.92 135.529 133.696 129.512 139.231C123.736 144.526 118.682 150.061 114.35 155.837C110.259 161.613 108.213 167.389 108.213 173.165H58.395ZM104.964 253.668C98.9473 259.685 91.7273 262.693 83.304 262.693C74.8807 262.693 67.6607 259.685 61.644 253.668C55.6273 247.651 52.619 240.431 52.619 232.008C52.619 223.585 55.6273 216.365 61.644 210.348C67.6607 204.331 74.8807 201.323 83.304 201.323C91.7273 201.323 98.9473 204.331 104.964 210.348C110.981 216.365 113.989 223.585 113.989 232.008C113.989 240.431 110.981 247.651 104.964 253.668Z" fill="#FF553E"/>
</svg>
