<svg width="189" height="44" viewBox="0 0 189 44" fill="none" xmlns="http://www.w3.org/2000/svg">
<path fill-rule="evenodd" clip-rule="evenodd" d="M3.31403 35.4748C3.66768 33.9176 3.47889 32.8181 2.86215 30.6975C0.267905 21.7796 2.99797 12.8754 9.6933 7.78102C17.0925 2.15142 28.1998 1.73975 35.582 7.60204C38.2796 9.74478 40.2861 12.3154 41.564 15.1016C45.7386 24.2045 41.6469 34.8168 32.9518 39.4977C30.4814 40.8282 27.6924 41.666 24.7155 41.9507C19.5654 42.4425 14.5845 41.2186 10.1503 38.4937C7.02559 36.5734 4.91568 33.8903 3.64632 29.7207C3.8855 31.9785 4.12297 33.2366 4.7457 34.5176C6.82998 38.8022 10.7124 41.3405 14.9143 42.7136C22.4441 45.1734 30.9214 43.4159 36.6873 39.398C45.7505 33.0823 47.9766 20.3946 42.3456 11.0906C35.8604 0.375173 21.6292 -3.28045 10.9088 3.25518C5.71181 6.42327 1.82001 11.6906 0.473771 18.1385C-0.660625 23.5737 0.225195 30.452 3.31403 35.4748Z" fill="#272727"/>
<path fill-rule="evenodd" clip-rule="evenodd" d="M18.2081 9.66088C17.8229 8.48872 17.6133 7.68681 17.5051 6.44043C16.3725 8.06557 15.1888 10.0072 14.052 12.1126H14.0511C13.9523 12.296 13.8534 12.4803 13.7555 12.6662V12.6661C11.1307 17.6251 8.80256 23.3946 7.99895 28.0389C7.56689 30.5334 7.28482 34.502 8.40289 35.8516C8.76932 30.048 10.224 25.4916 12.2326 20.2825C12.3785 20.62 12.5269 20.9661 12.6783 21.3192C13.02 22.116 13.3769 22.9483 13.7546 23.7962V23.7967C15.2161 27.0743 16.9937 30.5856 19.4335 33.1935C19.6636 33.4392 19.9184 33.6918 20.192 33.9443H30.6457C31.1076 31.8243 30.7872 28.0724 30.0841 26.3764C29.6785 25.3971 29.0589 24.474 28.1139 23.3095C29.8821 22.9086 31.3189 22.1826 32.316 21.1213C32.8435 20.56 33.2483 19.904 33.5142 19.1524V12.1124H33.5158V19.153C33.5576 19.0353 33.5968 18.915 33.6317 18.7921C34.1158 17.091 34.1038 14.112 33.7936 12.3231C33.6223 11.3386 33.1809 10.459 32.4745 9.89515C30.419 8.25464 26.8927 8.61806 24.5142 9.39779C22.6721 10.0017 20.8615 10.9586 19.2204 12.1118H19.2188V12.1126C18.1433 12.8685 17.1403 13.7079 16.2498 14.5875C15.5672 15.2614 14.6477 15.577 15.3814 14.3998C15.8595 13.6329 16.329 12.8762 16.7892 12.1127H16.7901C17.2741 11.3091 17.7471 10.4986 18.2081 9.66088ZM13.7555 20.0008C15.6181 24.579 20.3642 32.7773 26.2731 33.3932C31.5644 33.9451 31.128 27.0854 25.807 25.1224C24.4529 24.6233 22.8346 24.4399 21.0194 24.4245C21.044 23.7824 21.0687 23.1405 21.0934 22.4986L21.0937 22.491L21.094 22.4827C21.119 21.8362 21.1439 21.1897 21.1686 20.5429C22.6343 20.4807 24.2663 20.4081 25.8632 20.1608C28.4462 19.7615 33.515 18.179 32.846 14.677C32.5767 13.266 31.2669 12.1203 29.4041 12.116C27.7508 12.1118 25.7772 12.8616 24.0268 13.6866C20.3709 15.4107 16.3793 17.8036 13.7555 19.9995V20.0008ZM23.4985 36.2548C25.9425 37.4491 29.3734 37.5566 30.471 34.5682C30.5392 34.3831 30.5971 34.1732 30.6466 33.9463H20.1928C21.1192 34.8003 22.2722 35.6551 23.4985 36.2548Z" fill="#272727"/>
<path d="M26.249 33.4035C31.4779 33.9582 31.0468 27.0542 25.7884 25.0783C24.4502 24.5759 22.8509 24.3913 21.0572 24.3759C21.106 23.0732 21.1557 21.7714 21.2045 20.4687C22.6522 20.4052 24.2658 20.3322 25.844 20.084C28.3965 19.6821 33.4056 18.0884 32.7445 14.5642C32.4784 13.1447 31.184 11.9906 29.3431 11.9863C27.7093 11.9829 25.7589 12.7369 24.0291 13.5672C20.4163 15.3027 16.4716 17.7105 13.8787 19.9217C15.7179 24.5287 20.4087 32.7835 26.249 33.4035Z" fill="#D24A43"/>
<path fill-rule="evenodd" clip-rule="evenodd" d="M117.243 18.2979C117.214 18.697 117.293 18.612 117.895 18.1267C119.666 16.7028 121.588 16.2249 123.815 17.3224C125.819 18.3102 126.971 17.2817 128.504 16.2754C128.66 16.1732 128.768 16.0845 128.842 15.997C129.048 15.7544 129.069 13.5434 128.876 13.5373C128.794 13.5348 128.665 13.5903 128.466 13.7159C127.23 14.4906 126.246 15.2469 124.708 14.9661C123.645 14.7715 123.098 14.2886 121.515 14.1766C120.289 14.0903 119.409 14.3847 118.054 15.1225C117.555 15.3947 117.369 15.609 117.309 15.8997C117.221 16.3222 117.29 17.6537 117.243 18.2979ZM57.3523 25.4715C55.9779 28.467 55.2692 30.811 52 30.4439C53.0815 27.8622 54.1028 25.2461 55.1166 22.6299C56.1489 19.9657 57.0311 17.9173 58.1446 16.002C58.9542 14.6089 61.7042 10.3779 63.2828 10.0306C64.0715 9.85689 64.8269 10.3015 65.7805 11.1982C63.727 13.8563 61.4987 16.4836 59.845 19.4052C58.8054 21.2417 58.4399 22.5486 60.8121 21.0791C64.1502 19.0123 67.3874 16.8309 70.7993 14.8528C74.2284 12.8648 78.0415 10.6169 81.1605 9.35066C83.9449 12.138 80.362 14.2468 77.964 15.2691C72.3865 17.65 65.0952 20.6874 60.2129 24.0082C66.328 23.8751 71.0565 24.6376 76.5465 26.1329C76.4173 24.9886 76.6277 24.018 77.0116 23.0856C77.4767 21.9586 78.2211 20.6837 78.9544 19.4705C79.5143 18.543 80.095 17.6377 80.6868 16.7422C82.6063 13.844 84.3633 11.4914 86.482 8.93679C87.3815 7.85164 88.9957 6.41299 90.6051 5.9474C93.2665 5.17757 95.0136 7.44394 93.8054 10.0219C93.1397 11.4421 92.0324 12.6554 90.9435 13.8292C89.8496 15.0092 88.7423 16.1461 87.6214 17.2805C85.8299 19.0936 83.9474 20.7564 82.044 22.4266C81.1175 23.2396 80.3534 23.9552 79.5586 24.7891C79.2017 25.1623 78.9224 25.6033 78.776 26.0085C78.3306 27.2341 79.3961 27.7477 80.2746 26.9212C80.6548 26.564 80.9649 26.0417 81.1679 25.6821C81.8373 24.4935 82.1043 23.8702 82.7059 22.9895C83.5943 21.6901 84.1861 21.5866 85.1803 22.0744C86.4488 22.6976 85.7118 23.9429 85.12 24.8063C85.6613 24.8162 86.4943 24.7731 87.0345 24.7829C88.1861 22.3515 91.2991 19.3695 94.2557 22.1815C95.0013 21.4499 95.4049 21.3242 95.8798 21.5768C96.1075 21.6975 96.3732 21.8822 96.687 22.1717C97.3637 22.7962 97.515 23.1447 97.3182 23.5253C97.1484 23.853 96.5615 24.4885 96.0767 25.0219C94.9706 26.2376 95.1281 27.2254 96.1542 26.5677C96.9097 26.0824 98.1315 24.8248 98.8082 24.1658C100.51 22.5116 100.912 22.2517 102.25 20.2921C102.771 19.5284 103.3 18.7992 103.896 18.0405C104.291 17.5379 104.708 17.6131 105.201 17.8705C106.066 18.3225 107.298 18.8743 106.554 19.8425C105.535 21.1691 104.566 22.487 103.592 23.8444C105.52 22.1544 107.7 19.5518 110.39 22.3195C109.353 23.2667 108.667 24.0537 107.838 24.9517C106.545 26.3534 106.94 27.5371 109.067 25.8915C110.616 24.7669 111.944 23.63 113.258 22.4587C114.725 21.1518 115.943 19.5715 117.772 21.3871C117.24 22.0497 116.823 22.6089 116.41 23.2186C114.946 25.3828 115.723 25.1044 117.122 23.6756C118.071 22.7062 119.021 21.7393 119.964 20.7626C121.344 19.3313 122.226 20.3192 123.217 21.5213C122.913 21.9007 122.61 22.2788 122.306 22.6582C121.07 24.2028 121.246 24.7731 122.721 23.1336C123.454 22.3182 124.19 21.5102 124.935 20.7022C126.148 19.3855 126.19 19.3818 127.542 20.3278C128.733 21.1617 128.927 21.4006 127.9 22.4981C127.235 23.2076 126.591 23.9096 125.978 24.6881C124.559 26.4901 125.589 26.3792 126.904 25.2103C127.672 24.528 128.45 23.8419 129.178 23.1336C130.09 22.248 130.758 21.5115 132.068 21.7443C130.726 23.7692 128.131 27.6812 125.665 27.9349C123.98 28.1086 122.352 27.1392 122.987 24.6228C122.09 25.4086 120.743 26.9619 119.63 27.2415C118.819 27.4459 117.993 27.2685 117.857 26.5849C117.708 25.8361 118.694 24.3099 119.08 23.6534C117.144 25.2769 112.282 30.8208 112.282 24.9775C110.047 28.4412 104.025 30.8356 104.115 24.7004C99.9131 30.4846 96.9269 35.4263 93.8312 41.681C93.686 41.9335 93.5408 42.1847 93.3957 42.4372C93.3354 42.9521 89.873 42.505 90.6113 40.7744C92.6045 36.8969 94.9632 33.5109 97.05 29.7825C97.531 28.9228 97.942 27.9916 98.2557 26.7475C97.1127 28.1726 94.2139 29.9081 93.4412 26.9483C91.3298 30.3873 87.3864 29.4056 87.0579 25.9173C86.2987 25.9432 85.3562 25.9075 84.597 25.9334C83.518 27.4681 82.4414 29.0632 80.3632 29.19C78.9421 29.2775 77.6059 28.5286 76.6917 27.457C71.2349 26.1871 64.0727 25.6082 57.3523 25.4715ZM81.5383 20.733C82.2175 19.4951 83.3913 18.1131 84.394 16.8285C85.793 15.0375 87.192 13.2491 88.6057 11.468C89.4338 10.426 90.3135 9.32602 91.1834 8.51678C92.4458 7.34418 93.2751 8.36035 92.3018 9.72387C91.838 10.373 91.3433 10.9827 90.7946 11.6084C89.51 13.0717 88.2747 14.5362 86.941 15.9724C85.2972 17.7449 83.4282 19.7981 81.5383 20.733ZM89.825 27.6516C90.391 28.2157 91.6669 26.7414 92.0385 26.2782C92.7472 25.3951 93.1053 24.9197 93.5335 24.1375C94.3062 22.7247 93.3932 21.865 92.0804 23.2556C91.4688 23.9035 91.0062 24.4799 90.4353 25.2645C90.0613 25.7782 89.2873 27.117 89.825 27.6516Z" fill="#272727"/>
<path fill-rule="evenodd" clip-rule="evenodd" d="M134.237 27.389C134.015 27.4247 133.818 27.538 133.584 27.8225C131.444 30.4239 131.402 33.5735 133.031 35.3705C138.564 41.475 155.503 29.6664 159.133 25.098C160.314 27.3951 162.618 26.5218 164.085 24.3121C165.091 25.7015 166.087 26.1486 167.584 25.1546C168.711 24.407 169.436 23.4918 170.36 22.5877C170.864 27.841 176.695 26.6721 177.589 22.6801C179.47 23.1937 179.673 22.233 181.296 20.6638C181.028 21.3584 180.666 22.1468 180.607 22.8882C180.447 24.8873 182.714 25.9405 184.529 24.9329C185.73 24.2653 187.773 21.6553 188.494 20.5012C188.761 20.2191 188.405 18.948 187.539 19.7855C187.104 20.2056 186.513 20.9323 185.936 21.5851C185.351 22.2465 184.186 23.4413 183.283 23.5595C182.553 23.6544 182.383 22.9388 183.455 21.792C183.891 21.3264 184.308 20.851 184.671 20.3103C185.8 18.6302 184.107 17.327 182.769 17.5081C182.221 17.582 181.733 17.9404 181.263 18.3728C180.708 18.8839 180.191 19.533 179.711 20.107C178.926 21.0456 177.985 22.2071 177.676 20.2819C177.408 18.6031 175.907 17.1102 173.885 17.5623C172.8 17.8049 171.745 18.5858 170.919 19.4838C170.436 20.0072 169.982 20.532 169.51 21.1626C168.837 22.0581 168.187 22.8328 167.209 23.6199C165.96 24.6237 165.9 24.1126 166.567 22.9104C166.974 22.1738 167.417 21.5912 167.753 20.8325C168.477 19.1955 165.463 17.3258 164.388 20.3472C164 21.4373 163.536 22.4793 162.799 23.4031C161.341 25.2298 160.073 25.6387 160.138 22.01C160.148 21.4755 160.159 20.984 160.164 20.4852C160.178 18.7558 160.071 17.4416 158.242 16.5954C156.851 15.9524 154.945 16.1175 152.817 16.7013C151.158 17.157 149.741 17.8062 147.792 18.5784C148.24 16.0251 150.37 13.3756 150.483 11.0957C149.892 11.0674 149.305 11.0501 148.713 11.0341C150.459 9.64475 155.413 7.76883 159.187 6.74404C160.343 6.42995 163.871 5.4729 164.683 6.62087C165.474 7.7405 162.271 9.87016 161.366 10.4725C160.614 10.9725 159.884 11.4726 159.532 11.8126C158.854 12.4679 158.976 13.2512 160.074 14.3746C160.738 15.0545 160.901 14.9153 161.491 14.3746C163.574 12.7622 169.534 8.90448 166.958 5.63795C165.078 3.25457 160.196 3.87782 156.059 4.96543C152.277 5.95943 148.037 7.5656 144.56 9.33805C141.973 10.656 139.564 11.9727 137.004 13.6947C135.468 14.7268 134.024 15.828 133.191 16.87C131.965 18.4035 132.119 19.4012 133.641 21.8277C135.847 18.4528 139.33 15.7726 142.841 13.8425C144.381 12.9963 145.79 12.304 147.483 11.4813C146.563 13.9299 145.38 16.2406 144.14 18.5452C143.628 19.4961 143.057 20.293 141.947 21.0887C141.432 21.4582 140.915 21.8117 140.35 22.1554C140.088 22.3143 139.922 22.3771 139.824 22.4498C139.569 22.6407 139.741 24.7038 140.499 24.4661C140.859 24.3528 141.562 23.7591 142.194 23.4918C141.482 26.4873 141.642 30.4092 144.067 25.0216C144.883 23.2097 145.676 21.9657 147.856 20.9655C148.964 20.4568 150.064 19.9666 151.215 19.5059C152.335 19.0576 153.569 18.5587 154.503 18.3407C155.951 18.002 157.233 18.1683 157.902 18.8297C159.363 20.2721 157.2 23.2085 156.128 24.3749C152.132 28.7266 142.696 34.432 138.927 34.8606C136.617 35.3767 133.476 35.1969 134.634 31.5202C134.998 30.3624 135.816 29.1343 136.465 27.9568C136.694 27.5405 136.628 27.421 136.38 27.3988C136.146 27.3767 134.401 27.3619 134.237 27.389ZM173.517 20.8424C172.897 21.51 172.431 22.4892 172.439 23.2553C172.454 24.5461 174.052 24.8196 174.585 23.8108C174.823 23.36 174.831 22.7294 174.532 22.1689C174.271 21.6836 173.862 21.234 173.517 20.8424Z" fill="#272727"/>
</svg>
