<svg width="108" height="25" viewBox="0 0 108 25" fill="none" xmlns="http://www.w3.org/2000/svg">
<path d="M68.1951 0C67.2119 0 66.2287 0 65.2454 0C64.4466 2.01488 63.8167 4.20025 63.0332 6.21513C63.9703 6.21513 64.9228 6.21513 65.86 6.21513C66.7817 4.27774 67.3655 2.01488 68.1951 0Z" fill="#D1D1D1"/>
<path d="M15.6853 3.40967H0V7.8734H4.8239V16.7079V24.3644H10.2162V16.7079V7.8734H15.0555L15.6853 3.40967Z" fill="#D1D1D1"/>
<path d="M59.1773 3.40967H43.5073V7.8734H48.3312V16.7079V24.3644H53.7235V7.8734H58.5475L59.1773 3.40967Z" fill="#D1D1D1"/>
<path d="M77.8584 10.3378C77.8276 9.40783 77.6279 8.80337 77.5357 8.50888L72.7733 9.31484C73.1881 11.1282 73.2496 12.5541 73.2496 14.941V16.7079V24.3644H78.4268V16.7079V13.7476C78.6572 13.2671 79.1796 12.6471 80.2396 12.6471C80.5007 12.6471 81.0692 12.6781 81.7605 13.0656L82.9588 8.84986C82.206 8.49338 81.4993 8.40039 81.0231 8.40039C79.579 8.40039 78.6265 9.22184 77.8584 10.3378Z" fill="#D1D1D1"/>
<path d="M38.7295 16.1346L43.3383 8.85008H37.27L36.5787 10.183C36.2561 10.7875 35.8874 11.9189 35.7952 12.7403C35.5647 11.6244 35.0424 10.6635 34.8734 10.3535L33.7058 8.30762L28.1138 9.39255L32.5229 16.2741L32.2464 16.6926L27.2228 24.3491H33.5676L34.4893 22.7217C34.8888 22.0553 35.1807 21.6368 35.534 20.1954H35.5955C35.6262 20.3814 35.7184 20.7069 36.2868 21.9313L37.3775 24.3336H43.9681L39.1135 16.6771L38.7295 16.1346ZM35.6262 20.3969C35.6415 20.4744 35.6723 20.5674 35.7337 20.6914C35.6723 20.5674 35.6415 20.4744 35.6262 20.3969Z" fill="#D1D1D1"/>
<path d="M69.117 10.5703C68.4257 9.76432 67.0737 8.4624 64.2163 8.4624C62.8951 8.4624 60.5446 8.67939 58.8547 10.6168C57.4106 12.2442 56.9497 14.383 56.9497 16.6924C56.9497 16.8319 56.9497 16.9714 56.9497 17.1109C57.0112 19.2342 57.5949 21.4661 59.3617 23.016C60.9133 24.3799 62.8183 24.6899 64.2931 24.7364C64.3853 24.7364 64.4928 24.7364 64.585 24.7364C65.9215 24.7364 68.3028 24.5659 70.8376 22.5201L68.8251 19.5287C67.6575 20.4742 66.1827 21.0631 64.8922 21.0941C64.8461 21.0941 64.8154 21.0941 64.7693 21.0941C64.247 21.0941 63.2484 20.9701 62.68 19.9782C62.4188 19.4977 62.2959 18.7383 62.2959 18.2578H70.8837V16.9714C70.8837 16.8784 70.8837 16.7854 70.8837 16.7079C70.853 13.2826 70.0541 11.6862 69.117 10.5703ZM62.2959 14.631C62.2959 14.0886 62.4342 13.0966 62.8951 12.5852C63.2177 12.2287 63.6479 12.1047 64.0934 12.1047C64.5696 12.1047 65.1841 12.2287 65.5375 13.0966C65.7218 13.5771 65.7525 14.1196 65.7525 14.724V14.879H62.2959V14.631Z" fill="#D1D1D1"/>
<path d="M92.0689 8.40039C90.6248 8.40039 89.6877 9.20634 88.9042 10.3223C88.8735 9.39233 88.6737 8.78787 88.5816 8.49338L83.8191 9.29934C84.2339 11.1127 84.2953 12.5386 84.2953 14.9255V16.6924V24.3489H89.4726V16.6924V13.7476C89.703 13.2671 90.2254 12.6471 91.2854 12.6471C91.5466 12.6471 92.115 12.6781 92.8063 13.0656L94.0046 8.84986C93.2519 8.49338 92.5452 8.40039 92.0689 8.40039Z" fill="#D1D1D1"/>
<path d="M105.035 25.0002L105.127 24.9072H104.835C104.897 24.9382 104.958 24.9692 105.035 25.0002Z" fill="#D1D1D1"/>
<path d="M25.3331 19.5287C24.1656 20.4742 22.6907 21.0632 21.4003 21.0942C21.3542 21.0942 21.3235 21.0942 21.2774 21.0942C20.7397 21.0942 19.7411 20.9702 19.188 19.9782C18.9269 19.4977 18.804 18.7383 18.804 18.2578H27.3917V16.9714C27.3917 16.8784 27.3917 16.7854 27.3917 16.7079C27.3456 13.2826 26.5621 11.6862 25.625 10.5703C24.9337 9.76432 23.5664 8.4624 20.7243 8.4624C19.4031 8.4624 17.0526 8.67939 15.3627 10.6168C13.9186 12.2442 13.4424 14.3986 13.4424 16.7079C13.4424 16.8474 13.4424 16.9869 13.4424 17.1264C13.5038 19.2498 14.0876 21.4816 15.8543 23.0315C17.406 24.3955 19.2956 24.7054 20.7858 24.7519C20.8779 24.7519 20.9855 24.7519 21.0776 24.7519C22.4142 24.7519 24.7954 24.5814 27.3303 22.5356L25.3331 19.5287ZM18.804 14.631C18.804 14.0886 18.9422 13.0966 19.4031 12.5852C19.7257 12.2287 20.1559 12.1047 20.586 12.1047C21.0776 12.1047 21.6922 12.2287 22.0455 13.0966C22.2299 13.5771 22.2606 14.1196 22.2606 14.724V14.879H18.804V14.631Z" fill="#D1D1D1"/>
<path d="M107.877 21.9931C107.124 21.4506 106.802 20.6602 106.802 19.1878C106.802 19.1413 106.802 19.0793 106.802 19.0328L106.832 16.6924L106.863 13.6856C106.863 13.2361 106.863 12.0582 106.617 11.2832C106.418 10.6168 105.911 9.77982 104.712 9.17536C103.453 8.5554 102.116 8.4624 101.071 8.4624C99.4429 8.4624 98.1832 8.81888 97.2614 9.15986C96.3396 9.48534 95.2335 9.99681 94.1581 10.6633L96.0324 13.9026C96.1553 13.8096 97.3843 12.8796 98.7516 12.4922C99.3507 12.3372 99.9345 12.2752 100.426 12.2752C100.687 12.2752 101.194 12.2752 101.471 12.6317C101.517 12.7246 101.671 12.9571 101.671 13.7166V14.693C101.409 14.6775 101.102 14.662 100.779 14.662C99.4429 14.662 97.6608 14.879 96.2014 15.7935C95.7712 16.0725 95.4179 16.3669 95.1106 16.6924C94.3271 17.5604 93.9891 18.6143 93.9891 19.8697C93.9891 21.3266 94.4961 22.5821 95.3411 23.419C96.0324 24.0855 97.2 24.7364 99.1203 24.7364C100.472 24.7364 101.962 24.442 103.084 23.45C103.468 24.1165 104.036 24.5194 104.789 24.8914H105.081L107.831 22.1946L107.954 22.0861C107.954 22.0551 107.923 22.0241 107.877 21.9931ZM101.686 20.6447C101.548 20.7842 101.394 20.8772 101.21 20.9702C100.979 21.0942 100.733 21.1406 100.472 21.1406C100.073 21.1406 99.5812 21.0167 99.2739 20.5362C99.1049 20.2417 99.0435 19.9162 99.0435 19.6062C99.0435 19.5597 99.0435 19.5132 99.0435 19.4512C99.0588 19.1413 99.1817 18.6298 99.7655 18.2733C100.119 18.0408 100.626 17.9323 101.24 17.9168C101.333 17.9168 101.425 17.9168 101.517 17.9168H101.686V20.6447Z" fill="#D1D1D1"/>
</svg>
