<svg width="1200" height="643" viewBox="0 0 1200 643" fill="none" xmlns="http://www.w3.org/2000/svg">
<path d="M774.138 0.692017L801.024 27.6239L809.177 19.4581V16.1107L793.784 0.692017H774.138Z" fill="#F4442C" fill-opacity="0.64"/>
<path d="M608.818 17.7844L591.754 0.692017H572.108L598.995 27.6239L608.818 17.7844Z" fill="#F4442C" fill-opacity="0.64"/>
<path d="M416.56 27.6239L443.497 0.692017H423.8L406.737 17.7844V27.6239H416.56Z" fill="#F4442C" fill-opacity="0.64"/>
<path d="M801.025 27.624H809.177V19.4582L801.025 27.624Z" fill="#F4442C" fill-opacity="0.64"/>
<path d="M598.995 27.6239H618.641L645.528 0.692017H625.882L608.818 17.7844L598.995 27.6239Z" fill="#F4442C" fill-opacity="0.64"/>
<path d="M709.832 341.068L801.024 432.414L809.176 424.248V420.9L719.655 331.229L709.832 341.068Z" fill="#F4442C" fill-opacity="0.64"/>
<path d="M517.642 128.838L507.796 138.7L598.988 230.044L608.834 220.182L517.642 128.838Z" fill="#F4442C" fill-opacity="0.64"/>
<path d="M507.802 118.969L416.56 27.6239L406.737 37.4634L497.929 128.809L507.802 118.969Z" fill="#F4442C" fill-opacity="0.64"/>
<path d="M618.649 230.037L608.803 239.899L699.994 331.244L709.84 321.381L618.649 230.037Z" fill="#F4442C" fill-opacity="0.64"/>
<path d="M517.633 533.624L507.787 543.487L598.978 634.831L608.824 624.968L517.633 533.624Z" fill="#F4442C" fill-opacity="0.64"/>
<path d="M416.589 432.392L406.744 442.255L497.935 533.599L507.781 523.737L416.589 432.392Z" fill="#F4442C" fill-opacity="0.64"/>
<path d="M610.489 643H626.793L618.641 634.834L610.489 643Z" fill="#F4442C" fill-opacity="0.64"/>
<path d="M618.641 27.6239L608.261 38.0213L699.453 129.367L710.39 118.462L619.705 27.6239H618.641Z" fill="#F4442C" fill-opacity="0.64"/>
<path d="M597.881 27.6239L598.438 28.1823L598.995 27.6239H597.881Z" fill="#F4442C" fill-opacity="0.64"/>
<path d="M709.327 139.206L800.519 230.551L809.177 221.878V217.415L720.213 128.302L709.327 139.206Z" fill="#F4442C" fill-opacity="0.64"/>
<path d="M709.832 543.489L801.024 634.834L809.176 626.668V623.321L719.655 533.649L709.832 543.489Z" fill="#F4442C" fill-opacity="0.64"/>
<path d="M517.62 331.216L507.775 341.079L598.966 432.423L608.812 422.561L517.62 331.216Z" fill="#F4442C" fill-opacity="0.64"/>
<path d="M618.627 432.414L608.781 442.276L699.972 533.621L709.818 523.758L618.627 432.414Z" fill="#F4442C" fill-opacity="0.64"/>
<path d="M416.612 230.014L406.766 239.876L497.957 331.221L507.803 321.358L416.612 230.014Z" fill="#F4442C" fill-opacity="0.64"/>
<path d="M408.408 643H424.762L416.56 634.834L408.408 643Z" fill="#F4442C" fill-opacity="0.64"/>
<path d="M406.737 27.6239V37.4634L416.56 27.6239H406.737Z" fill="#F4442C" fill-opacity="0.64"/>
<path d="M709.832 523.759L700.009 533.649L608.817 624.995L598.994 634.834L590.792 643H610.488L618.64 634.834L709.832 543.489L719.655 533.649L809.176 443.978V424.248L801.024 432.414L709.832 523.759Z" fill="#F4442C" fill-opacity="0.64"/>
<path d="M801.025 27.6239L710.389 118.462L699.453 129.367L608.817 220.205L598.994 230.044L507.802 321.389L497.929 331.229L406.737 422.574V442.304L416.56 432.414L507.802 341.068L517.625 331.229L608.817 239.884L618.64 230.044L709.326 139.206L720.212 128.301L809.177 39.1372V27.6239H801.025Z" fill="#F4442C" fill-opacity="0.64"/>
<path d="M507.802 138.699L517.625 128.809L608.26 38.0213L618.64 27.6239H598.994L598.437 28.1818L507.802 118.969L497.929 128.809L406.737 220.205V239.884L416.56 230.044L507.802 138.699Z" fill="#F4442C" fill-opacity="0.64"/>
<path d="M709.832 321.389L700.009 331.229L608.817 422.574L598.994 432.414L507.802 523.81L497.929 533.649L406.737 624.994V643H408.408L416.56 634.834L507.802 543.489L517.625 533.649L608.817 442.253L618.64 432.414L709.832 341.069L719.655 331.229L809.177 241.557V221.878L800.518 230.551L709.832 321.389Z" fill="#F4442C" fill-opacity="0.64"/>
<path d="M792.873 643H809.177V626.668L801.025 634.834L792.873 643Z" fill="#F4442C" fill-opacity="0.64"/>
<path d="M406.737 17.7844L389.673 0.692017H370.027L396.914 27.6239L406.737 17.7844Z" fill="#F4442C" fill-opacity="0.64"/>
<path d="M2.62561 17.7844L-14.4381 0.692017H-34.0841L-7.1974 27.6239L2.62561 17.7844Z" fill="#F4442C" fill-opacity="0.64"/>
<path d="M204.708 17.7844L187.644 0.692017H167.947L194.885 27.6239L204.708 17.7844Z" fill="#F4442C" fill-opacity="0.64"/>
<path d="M396.914 27.6239H406.737V17.7844L396.914 27.6239Z" fill="#F4442C" fill-opacity="0.64"/>
<path d="M-7.19751 27.6239H12.4485L39.3352 0.692017H19.6892L2.62551 17.7844L-7.19751 27.6239Z" fill="#F4442C" fill-opacity="0.64"/>
<path d="M194.884 27.6239H214.53L241.417 0.692017H221.771L204.707 17.7844L194.884 27.6239Z" fill="#F4442C" fill-opacity="0.64"/>
<path d="M2.62605 422.574L-88.009 331.787L-96.5662 340.308V342.895L-7.19698 432.414L2.62605 422.574Z" fill="#F4442C" fill-opacity="0.64"/>
<path d="M12.479 432.383L2.63306 442.245L93.8243 533.589L103.67 523.727L12.479 432.383Z" fill="#F4442C" fill-opacity="0.64"/>
<path d="M113.522 533.618L103.676 543.481L194.867 634.825L204.713 624.963L113.522 533.618Z" fill="#F4442C" fill-opacity="0.64"/>
<path d="M206.327 643H222.681L214.529 634.834L206.327 643Z" fill="#F4442C" fill-opacity="0.64"/>
<path d="M214.538 230.028L204.692 239.89L295.883 331.235L305.729 321.372L214.538 230.028Z" fill="#F4442C" fill-opacity="0.64"/>
<path d="M114.029 129.349L104.183 139.211L194.837 230.018L204.683 220.155L114.029 129.349Z" fill="#F4442C" fill-opacity="0.64"/>
<path d="M315.546 331.227L305.7 341.09L396.892 432.434L406.737 422.572L315.546 331.227Z" fill="#F4442C" fill-opacity="0.64"/>
<path d="M12.4566 27.6098L2.61072 37.4723L93.2648 128.279L103.111 118.416L12.4566 27.6098Z" fill="#F4442C" fill-opacity="0.64"/>
<path d="M315.569 128.851L305.723 138.713L396.914 230.057L406.76 220.195L315.569 128.851Z" fill="#F4442C" fill-opacity="0.64"/>
<path d="M215.057 28.1718L205.211 38.0343L295.865 128.841L305.711 118.978L215.057 28.1718Z" fill="#F4442C" fill-opacity="0.64"/>
<path d="M2.06906 219.647L-88.566 128.809L-96.5662 136.822V140.525L-7.75395 229.486L2.06906 219.647Z" fill="#F4442C" fill-opacity="0.64"/>
<path d="M13.035 230.562L3.18909 240.424L93.8433 331.231L103.689 321.368L13.035 230.562Z" fill="#F4442C" fill-opacity="0.64"/>
<path d="M113.51 331.205L103.664 341.068L194.855 432.412L204.701 422.55L113.51 331.205Z" fill="#F4442C" fill-opacity="0.64"/>
<path d="M214.516 432.406L204.67 442.269L295.861 533.613L305.707 523.751L214.516 432.406Z" fill="#F4442C" fill-opacity="0.64"/>
<path d="M315.559 533.64L305.713 543.503L396.904 634.847L406.75 624.984L315.559 533.64Z" fill="#F4442C" fill-opacity="0.64"/>
<path d="M4.29669 643H20.6515L12.4488 634.834L4.29669 643Z" fill="#F4442C" fill-opacity="0.64"/>
<path d="M2.62605 624.995L-88.566 533.649L-96.5662 541.663V545.315L-7.19698 634.834L2.62605 624.995Z" fill="#F4442C" fill-opacity="0.64"/>
<path d="M2.62605 442.253L12.4491 432.414L103.641 341.068L113.515 331.229L204.707 239.884L214.53 230.044L305.722 138.699L315.545 128.809L406.737 37.4634V27.6239H396.914L305.722 118.969L295.899 128.809L204.707 220.205L194.884 230.044L103.641 321.389L93.8181 331.229L2.62605 422.574L-7.19698 432.414L-96.5662 521.933V541.663L-88.566 533.649L2.62605 442.253Z" fill="#F4442C" fill-opacity="0.64"/>
<path d="M396.913 432.414L305.721 523.81L295.898 533.649L204.706 624.994L194.883 634.834L186.681 643H206.327L214.529 634.834L305.721 543.489L315.544 533.649L406.736 442.304V422.574L396.913 432.414Z" fill="#F4442C" fill-opacity="0.64"/>
<path d="M2.62604 37.4634L12.4491 27.6239H-7.19698L-96.5662 117.143V136.822L-88.566 128.809L2.62604 37.4634Z" fill="#F4442C" fill-opacity="0.64"/>
<path d="M3.18302 240.442L13.006 230.551L104.198 139.206L114.021 129.367L205.213 38.0213L215.087 28.1818L215.593 27.6239H214.53H194.884H193.77L103.135 118.462L93.3117 128.302L2.06907 219.647L-7.75394 229.486L-96.5662 318.448V340.308L-88.009 331.787L3.18302 240.442Z" fill="#F4442C" fill-opacity="0.64"/>
<path d="M396.914 230.044L305.722 321.39L295.899 331.229L204.707 422.574L194.884 432.414L103.641 523.759L93.8182 533.649L2.62623 624.995L-7.19679 634.834L-15.3489 643H4.29715L12.4492 634.834L103.641 543.489L113.515 533.649L204.707 442.304L214.53 432.414L305.722 341.069L315.545 331.229L406.737 239.884V220.205L396.914 230.044Z" fill="#F4442C" fill-opacity="0.64"/>
<path d="M396.914 634.834L388.762 643H406.737V624.994L396.914 634.834Z" fill="#F4442C" fill-opacity="0.64"/>
<path d="M838.296 0.692017L811.409 27.6239L803.257 19.4581V16.1107L818.65 0.692017H838.296Z" fill="#F4442C" fill-opacity="0.64"/>
<path d="M1003.62 17.7844L1020.68 0.692017H1040.33L1013.44 27.6239L1003.62 17.7844Z" fill="#F4442C" fill-opacity="0.64"/>
<path d="M1195.87 27.6239L1168.94 0.692017H1188.63L1205.7 17.7844V27.6239H1195.87Z" fill="#F4442C" fill-opacity="0.64"/>
<path d="M811.409 27.624H803.257V19.4582L811.409 27.624Z" fill="#F4442C" fill-opacity="0.64"/>
<path d="M1013.44 27.6239H993.793L966.906 0.692017H986.552L1003.62 17.7844L1013.44 27.6239Z" fill="#F4442C" fill-opacity="0.64"/>
<path d="M902.602 341.068L811.41 432.414L803.258 424.248V420.9L892.779 331.229L902.602 341.068Z" fill="#F4442C" fill-opacity="0.64"/>
<path d="M1094.79 128.837L1104.64 138.7L1013.45 230.044L1003.6 220.182L1094.79 128.837Z" fill="#F4442C" fill-opacity="0.64"/>
<path d="M1104.63 118.969L1195.87 27.6239L1205.7 37.4634L1114.5 128.809L1104.63 118.969Z" fill="#F4442C" fill-opacity="0.64"/>
<path d="M993.785 230.037L1003.63 239.899L912.439 331.244L902.594 321.381L993.785 230.037Z" fill="#F4442C" fill-opacity="0.64"/>
<path d="M1094.8 533.624L1104.65 543.487L1013.46 634.831L1003.61 624.968L1094.8 533.624Z" fill="#F4442C" fill-opacity="0.64"/>
<path d="M1195.84 432.392L1205.69 442.255L1114.5 533.599L1104.65 523.737L1195.84 432.392Z" fill="#F4442C" fill-opacity="0.64"/>
<path d="M1001.94 643H985.641L993.793 634.834L1001.94 643Z" fill="#F4442C" fill-opacity="0.64"/>
<path d="M993.793 27.6239L1004.17 38.0213L912.98 129.367L902.044 118.462L992.729 27.6239H993.793Z" fill="#F4442C" fill-opacity="0.64"/>
<path d="M1014.55 27.6239L1014 28.1823L1013.44 27.6239H1014.55Z" fill="#F4442C" fill-opacity="0.64"/>
<path d="M903.107 139.206L811.915 230.551L803.257 221.878V217.415L892.221 128.302L903.107 139.206Z" fill="#F4442C" fill-opacity="0.64"/>
<path d="M902.602 543.489L811.41 634.834L803.258 626.668V623.321L892.779 533.649L902.602 543.489Z" fill="#F4442C" fill-opacity="0.64"/>
<path d="M1094.81 331.216L1104.66 341.079L1013.47 432.423L1003.62 422.561L1094.81 331.216Z" fill="#F4442C" fill-opacity="0.64"/>
<path d="M993.807 432.414L1003.65 442.276L912.462 533.621L902.616 523.758L993.807 432.414Z" fill="#F4442C" fill-opacity="0.64"/>
<path d="M1195.82 230.014L1205.67 239.876L1114.48 331.221L1104.63 321.358L1195.82 230.014Z" fill="#F4442C" fill-opacity="0.64"/>
<path d="M1204.03 643H1187.67L1195.87 634.834L1204.03 643Z" fill="#F4442C" fill-opacity="0.64"/>
<path d="M1205.7 27.6239V37.4634L1195.87 27.6239H1205.7Z" fill="#F4442C" fill-opacity="0.64"/>
<path d="M902.601 523.759L912.424 533.649L1003.62 624.995L1013.44 634.834L1021.64 643H1001.95L993.793 634.834L902.601 543.489L892.778 533.649L803.257 443.978V424.248L811.409 432.414L902.601 523.759Z" fill="#F4442C" fill-opacity="0.64"/>
<path d="M811.409 27.6239L902.044 118.462L912.981 129.367L1003.62 220.205L1013.44 230.044L1104.63 321.389L1114.5 331.229L1205.7 422.574V442.304L1195.87 432.414L1104.63 341.068L1094.81 331.229L1003.62 239.884L993.793 230.044L903.108 139.206L892.221 128.301L803.257 39.1372V27.6239H811.409Z" fill="#F4442C" fill-opacity="0.64"/>
<path d="M1104.63 138.699L1094.81 128.809L1004.17 38.0213L993.793 27.6239H1013.44L1014 28.1818L1104.63 118.969L1114.51 128.809L1205.7 220.205V239.884L1195.87 230.044L1104.63 138.699Z" fill="#F4442C" fill-opacity="0.64"/>
<path d="M902.601 321.389L912.424 331.229L1003.62 422.574L1013.44 432.414L1104.63 523.81L1114.5 533.649L1205.7 624.994V643H1204.03L1195.87 634.834L1104.63 543.489L1094.81 533.649L1003.62 442.253L993.793 432.414L902.601 341.069L892.778 331.229L803.257 241.557V221.878L811.916 230.551L902.601 321.389Z" fill="#F4442C" fill-opacity="0.64"/>
<path d="M819.561 643H803.257V626.668L811.409 634.834L819.561 643Z" fill="#F4442C" fill-opacity="0.64"/>
</svg>