<svg width="50" height="50" viewBox="0 0 50 50" fill="none" xmlns="http://www.w3.org/2000/svg">
<g clip-path="url(#clip0)">
<path d="M47.1112 20.9396L47.1109 20.9399L38.3619 29.4689L38.361 29.4698C37.4031 30.4046 36.9592 31.7532 37.187 33.0815C37.187 33.0816 37.187 33.0816 37.1871 33.0817L39.252 45.1235L39.2526 45.1271C39.3113 45.4663 39.2292 45.7504 39.0255 45.9914L39.023 45.9944C38.8019 46.2569 38.4958 46.393 38.1871 46.393C38.0233 46.393 37.8611 46.3562 37.6859 46.264L37.6844 46.2632L26.8695 40.5772L26.8613 40.5729C25.6919 39.9636 24.2577 39.9548 23.0731 40.5759L23.0706 40.5772L12.257 46.263C11.8237 46.4907 11.2387 46.3766 10.918 45.9955L10.9158 45.9928C10.7107 45.7498 10.6289 45.4663 10.6876 45.1263L10.6881 45.1233L12.7519 33.0825C12.752 33.0821 12.7521 33.0817 12.7521 33.0813C12.9799 31.754 12.536 30.4045 11.5781 29.4698L11.5771 29.4688L2.82807 20.9408L2.82791 20.9406C2.52731 20.6476 2.42435 20.2354 2.55478 19.8323C2.68593 19.4299 3.01175 19.1564 3.42771 19.0961L3.42854 19.096L15.5205 17.339L15.5213 17.3389C16.8462 17.146 17.9981 16.3147 18.5939 15.1063C18.5942 15.1057 18.5945 15.1051 18.5948 15.1046L24.0009 4.14931L24.0013 4.14863C24.1867 3.77252 24.5487 3.547 24.9701 3.547C25.3928 3.547 25.7545 3.77287 25.9398 4.14863L25.9401 4.14923L31.3453 15.1036C31.3455 15.104 31.3458 15.1045 31.346 15.105C31.346 15.105 31.3461 15.1051 31.3461 15.1052C31.941 16.3117 33.0907 17.1446 34.4178 17.3379L34.4186 17.338L46.5099 19.0949C46.9287 19.1559 47.2534 19.4296 47.3843 19.8312C47.5148 20.2343 47.4118 20.6466 47.1112 20.9396Z" stroke="#862F9F" stroke-width="5"/>
</g>
<defs>
<clipPath id="clip0">
<rect width="49.94" height="49.94" fill="white"/>
</clipPath>
</defs>
</svg>
