<svg width="226" height="166" viewBox="0 0 226 166" fill="none" xmlns="http://www.w3.org/2000/svg">
<g clip-path="url(#clip0)">
<path d="M101.057 45.5686C99.0794 43.2674 95.6081 43.7856 93.5577 45.5686C88.0619 50.3437 82.8857 55.4438 77.6704 60.5123C72.3363 55.7075 67.3327 50.5628 62.1583 45.5686C61.1256 44.5731 59.9834 44.1385 58.8616 44.0827C58.7427 44.0716 58.622 44.0772 58.4994 44.0753C58.3806 44.079 58.258 44.0716 58.1373 44.0827C57.0173 44.1403 55.8714 44.5749 54.8406 45.5686C49.6662 50.561 44.6645 55.7057 39.3266 60.5123C34.1114 55.4438 28.9332 50.3437 23.4412 45.5686C21.3908 43.7856 17.9195 43.2674 15.9396 45.5686C11.1422 51.1441 6.4043 56.7624 1.43976 62.1894C-3.16632 67.2264 4.31485 74.7503 8.94322 69.691C12.7785 65.4991 16.4782 61.1921 20.1724 56.8795C25.3431 61.6378 30.3132 66.5968 35.391 71.461C37.6235 73.6006 40.6323 73.3406 42.8926 71.461C48.3921 66.8977 53.4198 61.8496 58.4976 56.8386C63.5717 61.8496 68.6012 66.8977 74.1025 71.461C76.361 73.3406 79.3698 73.6006 81.6023 71.461C86.6782 66.5987 91.6484 61.6378 96.8209 56.8795C100.513 61.1921 104.213 65.501 108.048 69.691C112.673 74.7503 120.158 67.2283 115.552 62.1894C110.589 56.7624 105.855 51.1441 101.057 45.5686Z" fill="#341F3A"/>
</g>
<g clip-path="url(#clip1)">
<path d="M101.057 71.5686C99.0794 69.2674 95.6081 69.7856 93.5577 71.5686C88.0619 76.3437 82.8857 81.4438 77.6704 86.5123C72.3363 81.7075 67.3327 76.5628 62.1583 71.5686C61.1256 70.5731 59.9834 70.1385 58.8616 70.0827C58.7427 70.0716 58.622 70.0772 58.4994 70.0753C58.3806 70.079 58.258 70.0716 58.1373 70.0827C57.0173 70.1403 55.8714 70.5749 54.8406 71.5686C49.6662 76.561 44.6645 81.7057 39.3266 86.5123C34.1114 81.4438 28.9332 76.3437 23.4412 71.5686C21.3908 69.7856 17.9195 69.2674 15.9396 71.5686C11.1422 77.1441 6.4043 82.7624 1.43976 88.1894C-3.16632 93.2264 4.31485 100.75 8.94322 95.691C12.7785 91.4991 16.4782 87.1921 20.1724 82.8795C25.3431 87.6378 30.3132 92.5968 35.391 97.461C37.6235 99.6006 40.6323 99.3406 42.8926 97.461C48.3921 92.8977 53.4198 87.8496 58.4976 82.8386C63.5717 87.8496 68.6012 92.8977 74.1025 97.461C76.361 99.3406 79.3698 99.6006 81.6023 97.461C86.6782 92.5987 91.6484 87.6378 96.8209 82.8795C100.513 87.1921 104.213 91.501 108.048 95.691C112.673 100.75 120.158 93.2283 115.552 88.1894C110.589 82.7624 105.855 77.1441 101.057 71.5686Z" fill="#341F3A"/>
</g>
<g clip-path="url(#clip2)">
<path d="M101.057 98.0936C99.0792 95.8121 95.608 96.3259 93.5575 98.0936C88.0618 102.828 82.8855 107.884 77.6703 112.91C72.3361 108.146 67.3326 103.045 62.1582 98.0936C61.1255 97.1066 59.9833 96.6757 58.8615 96.6205C58.7426 96.6095 58.6219 96.615 58.4993 96.6131C58.3804 96.6168 58.2579 96.6095 58.1371 96.6205C57.0172 96.6776 55.8713 97.1085 54.8405 98.0936C49.666 103.043 44.6644 108.144 39.3265 112.91C34.1112 107.884 28.9331 102.828 23.4411 98.0936C21.3907 96.3259 17.9194 95.8121 15.9395 98.0936C11.1421 103.622 6.40418 109.192 1.43964 114.572C-3.16644 119.566 4.31473 127.026 8.94309 122.01C12.7784 117.854 16.4781 113.584 20.1723 109.308C25.343 114.026 30.3131 118.942 35.3909 123.765C37.6234 125.886 40.6322 125.628 42.8925 123.765C48.3919 119.24 53.4196 114.235 58.4975 109.267C63.5716 114.235 68.6011 119.24 74.1024 123.765C76.3609 125.628 79.3697 125.886 81.6021 123.765C86.6781 118.944 91.6482 114.026 96.8208 109.308C100.513 113.584 104.213 117.856 108.048 122.01C112.673 127.026 120.158 119.568 115.552 114.572C110.589 109.192 105.855 103.622 101.057 98.0936Z" fill="#341F3A"/>
</g>
<g clip-path="url(#clip3)">
<path d="M210.057 45.5686C208.079 43.2674 204.608 43.7856 202.558 45.5686C197.062 50.3437 191.886 55.4438 186.67 60.5123C181.336 55.7075 176.333 50.5628 171.158 45.5686C170.126 44.5731 168.983 44.1385 167.862 44.0827C167.743 44.0716 167.622 44.0772 167.499 44.0753C167.381 44.079 167.258 44.0716 167.137 44.0827C166.017 44.1403 164.871 44.5749 163.841 45.5686C158.666 50.561 153.664 55.7057 148.327 60.5123C143.111 55.4438 137.933 50.3437 132.441 45.5686C130.391 43.7856 126.92 43.2674 124.94 45.5686C120.142 51.1441 115.404 56.7624 110.44 62.1894C105.834 67.2264 113.315 74.7503 117.943 69.691C121.779 65.4991 125.478 61.1921 129.172 56.8795C134.343 61.6378 139.313 66.5968 144.391 71.461C146.623 73.6006 149.632 73.3406 151.893 71.461C157.392 66.8977 162.42 61.8496 167.498 56.8386C172.572 61.8496 177.601 66.8977 183.103 71.461C185.361 73.3406 188.37 73.6006 190.602 71.461C195.678 66.5987 200.648 61.6378 205.821 56.8795C209.513 61.1921 213.213 65.501 217.048 69.691C221.673 74.7503 229.158 67.2283 224.552 62.1894C219.589 56.7624 214.855 51.1441 210.057 45.5686Z" fill="#341F3A"/>
</g>
<g clip-path="url(#clip4)">
<path d="M210.057 71.5686C208.079 69.2674 204.608 69.7856 202.558 71.5686C197.062 76.3437 191.886 81.4438 186.67 86.5123C181.336 81.7075 176.333 76.5628 171.158 71.5686C170.126 70.5731 168.983 70.1385 167.862 70.0827C167.743 70.0716 167.622 70.0772 167.499 70.0753C167.381 70.079 167.258 70.0716 167.137 70.0827C166.017 70.1403 164.871 70.5749 163.841 71.5686C158.666 76.561 153.664 81.7057 148.327 86.5123C143.111 81.4438 137.933 76.3437 132.441 71.5686C130.391 69.7856 126.92 69.2674 124.94 71.5686C120.142 77.1441 115.404 82.7624 110.44 88.1894C105.834 93.2264 113.315 100.75 117.943 95.691C121.779 91.4991 125.478 87.1921 129.172 82.8795C134.343 87.6378 139.313 92.5968 144.391 97.461C146.623 99.6006 149.632 99.3406 151.893 97.461C157.392 92.8977 162.42 87.8496 167.498 82.8386C172.572 87.8496 177.601 92.8977 183.103 97.461C185.361 99.3406 188.37 99.6006 190.602 97.461C195.678 92.5987 200.648 87.6378 205.821 82.8795C209.513 87.1921 213.213 91.501 217.048 95.691C221.673 100.75 229.158 93.2283 224.552 88.1894C219.589 82.7624 214.855 77.1441 210.057 71.5686Z" fill="#341F3A"/>
</g>
<g clip-path="url(#clip5)">
<path d="M210.057 98.0936C208.079 95.8121 204.608 96.3259 202.558 98.0936C197.062 102.828 191.886 107.884 186.67 112.91C181.336 108.146 176.333 103.045 171.158 98.0936C170.126 97.1066 168.983 96.6757 167.861 96.6205C167.743 96.6095 167.622 96.615 167.499 96.6131C167.38 96.6168 167.258 96.6095 167.137 96.6205C166.017 96.6776 164.871 97.1085 163.84 98.0936C158.666 103.043 153.664 108.144 148.327 112.91C143.111 107.884 137.933 102.828 132.441 98.0936C130.391 96.3259 126.919 95.8121 124.94 98.0936C120.142 103.622 115.404 109.192 110.44 114.572C105.834 119.566 113.315 127.026 117.943 122.01C121.778 117.854 125.478 113.584 129.172 109.308C134.343 114.026 139.313 118.942 144.391 123.765C146.623 125.886 149.632 125.628 151.893 123.765C157.392 119.24 162.42 114.235 167.497 109.267C172.572 114.235 177.601 119.24 183.102 123.765C185.361 125.628 188.37 125.886 190.602 123.765C195.678 118.944 200.648 114.026 205.821 109.308C209.513 113.584 213.213 117.856 217.048 122.01C221.673 127.026 229.158 119.568 224.552 114.572C219.589 109.192 214.855 103.622 210.057 98.0936Z" fill="#341F3A"/>
</g>
<defs>
<clipPath id="clip0">
<rect width="117" height="117" fill="white"/>
</clipPath>
<clipPath id="clip1">
<rect width="117" height="117" fill="white" transform="translate(0 26)"/>
</clipPath>
<clipPath id="clip2">
<rect width="117" height="116" fill="white" transform="translate(0 50)"/>
</clipPath>
<clipPath id="clip3">
<rect width="117" height="117" fill="white" transform="translate(109)"/>
</clipPath>
<clipPath id="clip4">
<rect width="117" height="117" fill="white" transform="translate(109 26)"/>
</clipPath>
<clipPath id="clip5">
<rect width="117" height="116" fill="white" transform="translate(109 50)"/>
</clipPath>
</defs>
</svg>
