<svg width="152" height="112" viewBox="0 0 152 112" fill="none" xmlns="http://www.w3.org/2000/svg">
<g clip-path="url(#clip0)">
<path d="M67.9679 30.648C66.6375 29.1003 64.3029 29.4488 62.9238 30.648C59.2276 33.8595 55.7462 37.2897 52.2386 40.6986C48.651 37.4671 45.2858 34.0069 41.8056 30.648C41.1111 29.9784 40.3429 29.6861 39.5884 29.6486C39.5085 29.6411 39.4273 29.6449 39.3448 29.6436C39.2649 29.6461 39.1824 29.6411 39.1012 29.6486C38.348 29.6874 37.5773 29.9797 36.884 30.648C33.4039 34.0057 30.0399 37.4658 26.4498 40.6986C22.9422 37.2897 19.4596 33.8595 15.7658 30.648C14.3868 29.4488 12.0521 29.1003 10.7205 30.648C7.49397 34.3979 4.30738 38.1766 0.968403 41.8266C-2.12949 45.2143 2.90209 50.2746 6.01497 46.8719C8.59447 44.0526 11.0828 41.1558 13.5673 38.2553C17.045 41.4556 20.3877 44.7908 23.8029 48.0624C25.3044 49.5014 27.328 49.3265 28.8482 48.0624C32.5469 44.9932 35.9284 41.598 39.3436 38.2278C42.7563 41.598 46.139 44.9932 49.8389 48.0624C51.3579 49.3265 53.3815 49.5014 54.883 48.0624C58.2969 44.7921 61.6397 41.4556 65.1186 38.2553C67.6019 41.1558 70.0902 44.0538 72.6697 46.8719C75.7801 50.2746 80.8141 45.2156 77.7162 41.8266C74.3785 38.1766 71.1944 34.3979 67.9679 30.648Z" fill="white"/>
</g>
<g clip-path="url(#clip1)">
<path d="M67.9679 48.1348C66.6375 46.5871 64.3029 46.9356 62.9238 48.1348C59.2276 51.3463 55.7462 54.7765 52.2386 58.1854C48.651 54.9539 45.2858 51.4937 41.8056 48.1348C41.1111 47.4652 40.3429 47.1729 39.5884 47.1355C39.5085 47.128 39.4273 47.1317 39.3448 47.1305C39.2649 47.133 39.1824 47.128 39.1012 47.1355C38.348 47.1742 37.5773 47.4665 36.884 48.1348C33.4039 51.4925 30.0399 54.9526 26.4498 58.1854C22.9422 54.7765 19.4596 51.3463 15.7658 48.1348C14.3868 46.9356 12.0521 46.5871 10.7205 48.1348C7.49397 51.8847 4.30738 55.6634 0.968403 59.3134C-2.12949 62.7011 2.90209 67.7614 6.01497 64.3587C8.59447 61.5394 11.0828 58.6426 13.5673 55.7421C17.045 58.9424 20.3877 62.2777 23.8029 65.5492C25.3044 66.9882 27.328 66.8133 28.8482 65.5492C32.5469 62.48 35.9284 59.0848 39.3436 55.7146C42.7563 59.0848 46.139 62.48 49.8389 65.5492C51.3579 66.8133 53.3815 66.9882 54.883 65.5492C58.2969 62.2789 61.6397 58.9424 65.1186 55.7421C67.6019 58.6426 70.0902 61.5407 72.6697 64.3587C75.7801 67.7614 80.8141 62.7024 77.7162 59.3134C74.3785 55.6634 71.1944 51.8847 67.9679 48.1348Z" fill="white"/>
</g>
<g clip-path="url(#clip2)">
<path d="M67.9677 65.9746C66.6374 64.4401 64.3027 64.7856 62.9237 65.9746C59.2274 69.1587 55.746 72.5595 52.2384 75.9393C48.6509 72.7354 45.2857 69.3048 41.8055 65.9746C41.111 65.3108 40.3428 65.0209 39.5883 64.9838C39.5083 64.9764 39.4271 64.9801 39.3447 64.9788C39.2647 64.9813 39.1823 64.9764 39.1011 64.9838C38.3479 65.0222 37.5771 65.312 36.8839 65.9746C33.4037 69.3036 30.0398 72.7342 26.4497 75.9393C22.9421 72.5595 19.4595 69.1587 15.7657 65.9746C14.3867 64.7856 12.052 64.4401 10.7204 65.9746C7.49384 69.6925 4.30726 73.4389 0.96828 77.0577C-2.12961 80.4164 2.90197 85.4335 6.01485 82.0599C8.59435 79.2646 11.0827 76.3926 13.5672 73.5169C17.0449 76.6899 20.3876 79.9966 23.8028 83.2401C25.3042 84.6669 27.3279 84.4935 28.8481 83.2401C32.5468 80.1972 35.9283 76.831 39.3434 73.4896C42.7561 76.831 46.1388 80.1972 49.8388 83.2401C51.3578 84.4935 53.3814 84.6669 54.8829 83.2401C58.2968 79.9978 61.6395 76.6899 65.1184 73.5169C67.6017 76.3926 70.09 79.2659 72.6695 82.0599C75.7799 85.4335 80.814 80.4177 77.7161 77.0577C74.3784 73.4389 71.1943 69.6925 67.9677 65.9746Z" fill="white"/>
</g>
<g clip-path="url(#clip3)">
<path d="M141.278 30.648C139.947 29.1003 137.613 29.4488 136.233 30.648C132.537 33.8595 129.056 37.2897 125.548 40.6986C121.961 37.4671 118.595 34.0069 115.115 30.648C114.421 29.9784 113.653 29.6861 112.898 29.6486C112.818 29.6411 112.737 29.6449 112.655 29.6436C112.575 29.6461 112.492 29.6411 112.411 29.6486C111.658 29.6874 110.887 29.9797 110.194 30.648C106.714 34.0057 103.35 37.4658 99.7595 40.6986C96.2519 37.2897 92.7693 33.8595 89.0755 30.648C87.6965 29.4488 85.3618 29.1003 84.0302 30.648C80.8037 34.3979 77.6171 38.1766 74.2781 41.8266C71.1802 45.2143 76.2118 50.2746 79.3247 46.8719C81.9042 44.0526 84.3925 41.1558 86.877 38.2553C90.3547 41.4556 93.6974 44.7908 97.1126 48.0624C98.6141 49.5014 100.638 49.3265 102.158 48.0624C105.857 44.9932 109.238 41.598 112.653 38.2278C116.066 41.598 119.449 44.9932 123.149 48.0624C124.668 49.3265 126.691 49.5014 128.193 48.0624C131.607 44.7921 134.949 41.4556 138.428 38.2553C140.912 41.1558 143.4 44.0538 145.979 46.8719C149.09 50.2746 154.124 45.2156 151.026 41.8266C147.688 38.1766 144.504 34.3979 141.278 30.648Z" fill="white"/>
</g>
<g clip-path="url(#clip4)">
<path d="M141.278 48.1348C139.947 46.5871 137.613 46.9356 136.233 48.1348C132.537 51.3463 129.056 54.7765 125.548 58.1854C121.961 54.9539 118.595 51.4937 115.115 48.1348C114.421 47.4652 113.653 47.1729 112.898 47.1355C112.818 47.128 112.737 47.1317 112.655 47.1305C112.575 47.133 112.492 47.128 112.411 47.1355C111.658 47.1742 110.887 47.4665 110.194 48.1348C106.714 51.4925 103.35 54.9526 99.7595 58.1854C96.2519 54.7765 92.7693 51.3463 89.0755 48.1348C87.6965 46.9356 85.3618 46.5871 84.0302 48.1348C80.8037 51.8847 77.6171 55.6634 74.2781 59.3134C71.1802 62.7011 76.2118 67.7614 79.3247 64.3587C81.9042 61.5394 84.3925 58.6426 86.877 55.7421C90.3547 58.9424 93.6974 62.2777 97.1126 65.5492C98.6141 66.9882 100.638 66.8133 102.158 65.5492C105.857 62.48 109.238 59.0848 112.653 55.7146C116.066 59.0848 119.449 62.48 123.149 65.5492C124.668 66.8133 126.691 66.9882 128.193 65.5492C131.607 62.2789 134.949 58.9424 138.428 55.7421C140.912 58.6426 143.4 61.5407 145.979 64.3587C149.09 67.7614 154.124 62.7024 151.026 59.3134C147.688 55.6634 144.504 51.8847 141.278 48.1348Z" fill="white"/>
</g>
<g clip-path="url(#clip5)">
<path d="M141.277 65.9746C139.947 64.4401 137.612 64.7856 136.233 65.9746C132.537 69.1587 129.056 72.5595 125.548 75.9393C121.961 72.7354 118.595 69.3048 115.115 65.9746C114.421 65.3108 113.652 65.0209 112.898 64.9838C112.818 64.9764 112.737 64.9801 112.654 64.9788C112.574 64.9813 112.492 64.9764 112.411 64.9838C111.658 65.0222 110.887 65.312 110.194 65.9746C106.713 69.3036 103.349 72.7342 99.7594 75.9393C96.2518 72.5595 92.7692 69.1587 89.0754 65.9746C87.6964 64.7856 85.3617 64.4401 84.0301 65.9746C80.8035 69.6925 77.617 73.4389 74.278 77.0577C71.1801 80.4164 76.2117 85.4335 79.3245 82.0599C81.904 79.2646 84.3923 76.3926 86.8769 73.5169C90.3545 76.6899 93.6973 79.9966 97.1125 83.2401C98.6139 84.6669 100.638 84.4935 102.158 83.2401C105.857 80.1972 109.238 76.831 112.653 73.4896C116.066 76.831 119.449 80.1972 123.148 83.2401C124.667 84.4935 126.691 84.6669 128.193 83.2401C131.607 79.9978 134.949 76.6899 138.428 73.5169C140.911 76.3926 143.4 79.2659 145.979 82.0599C149.09 85.4335 154.124 80.4177 151.026 77.0577C147.688 73.4389 144.504 69.6925 141.277 65.9746Z" fill="white"/>
</g>
<defs>
<clipPath id="clip0">
<rect width="78.6903" height="78.6903" fill="white"/>
</clipPath>
<clipPath id="clip1">
<rect width="78.6903" height="78.6903" fill="white" transform="translate(0 17.4868)"/>
</clipPath>
<clipPath id="clip2">
<rect width="78.6903" height="78.0177" fill="white" transform="translate(0 33.6284)"/>
</clipPath>
<clipPath id="clip3">
<rect width="78.6903" height="78.6903" fill="white" transform="translate(73.3097)"/>
</clipPath>
<clipPath id="clip4">
<rect width="78.6903" height="78.6903" fill="white" transform="translate(73.3097 17.4868)"/>
</clipPath>
<clipPath id="clip5">
<rect width="78.6903" height="78.0177" fill="white" transform="translate(73.3097 33.6284)"/>
</clipPath>
</defs>
</svg>
